%FSLAX23Y23*%
%MOIN*%
G70*
G01*
G75*
%ADD10R,0.030X0.030*%
%ADD11O,0.059X0.018*%
%ADD12R,0.059X0.018*%
%ADD13R,0.018X0.059*%
%ADD14C,0.032*%
%ADD15C,0.015*%
%ADD16C,0.016*%
%ADD17C,0.025*%
%ADD18C,0.008*%
%ADD19R,0.050X0.050*%
%ADD20C,0.050*%
%ADD21C,0.055*%
%ADD22C,0.062*%
%ADD23R,0.062X0.062*%
%ADD24R,0.022X0.079*%
%ADD25O,0.022X0.079*%
%ADD26R,0.060X0.060*%
%ADD27C,0.020*%
%ADD28R,0.038X0.038*%
%ADD29O,0.067X0.026*%
%ADD30R,0.067X0.026*%
%ADD31R,0.026X0.067*%
%ADD32R,0.058X0.058*%
%ADD33C,0.058*%
%ADD34C,0.063*%
%ADD35C,0.070*%
%ADD36R,0.070X0.070*%
%ADD37R,0.030X0.087*%
%ADD38O,0.030X0.087*%
%ADD39R,0.068X0.068*%
%ADD40C,0.010*%
%ADD41C,0.007*%
D41*
X10712Y7781D02*
X10747D01*
X10730Y7763D02*
Y7798D01*
X10712Y7881D02*
X10747D01*
X10730Y7863D02*
Y7898D01*
X10712Y7981D02*
X10747D01*
X10730Y7963D02*
Y7998D01*
X10712Y8081D02*
X10747D01*
X10730Y8063D02*
Y8098D01*
X10712Y8181D02*
X10747D01*
X10730Y8163D02*
Y8198D01*
X10712Y8281D02*
X10747D01*
X10730Y8263D02*
Y8298D01*
X10712Y8381D02*
X10747D01*
X10730Y8363D02*
Y8398D01*
X10712Y8481D02*
X10747D01*
X10730Y8463D02*
Y8498D01*
X9767Y7781D02*
X9802D01*
X9785Y7763D02*
Y7798D01*
X9767Y7881D02*
X9802D01*
X9785Y7863D02*
Y7898D01*
X9767Y7981D02*
X9802D01*
X9785Y7963D02*
Y7998D01*
X9767Y8081D02*
X9802D01*
X9785Y8063D02*
Y8098D01*
X9767Y8181D02*
X9802D01*
X9785Y8163D02*
Y8198D01*
X9767Y8281D02*
X9802D01*
X9785Y8263D02*
Y8298D01*
X9767Y8381D02*
X9802D01*
X9785Y8363D02*
Y8398D01*
X9767Y8481D02*
X9802D01*
X9785Y8463D02*
Y8498D01*
X10332Y7861D02*
X10367D01*
X10350Y7843D02*
Y7878D01*
X10232Y7861D02*
X10267D01*
X10250Y7843D02*
Y7878D01*
X10132Y7861D02*
X10167D01*
X10150Y7843D02*
Y7878D01*
X9889Y8451D02*
X9931D01*
X9910Y8430D02*
Y8472D01*
X9989Y8451D02*
X10031D01*
X10010Y8430D02*
Y8472D01*
X10089Y8451D02*
X10131D01*
X10110Y8430D02*
Y8472D01*
X10189Y8451D02*
X10231D01*
X10210Y8430D02*
Y8472D01*
X10289Y8451D02*
X10331D01*
X10310Y8430D02*
Y8472D01*
X10389Y8451D02*
X10431D01*
X10410Y8430D02*
Y8472D01*
X10489Y8451D02*
X10531D01*
X10510Y8430D02*
Y8472D01*
X10589Y8451D02*
X10631D01*
X10610Y8430D02*
Y8472D01*
X9989Y7776D02*
X10031D01*
X10010Y7755D02*
Y7797D01*
X10089Y7776D02*
X10131D01*
X10110Y7755D02*
Y7797D01*
X10189Y7776D02*
X10231D01*
X10210Y7755D02*
Y7797D01*
X10289Y7776D02*
X10331D01*
X10310Y7755D02*
Y7797D01*
X10389Y7776D02*
X10431D01*
X10410Y7755D02*
Y7797D01*
X10489Y7776D02*
X10531D01*
X10510Y7755D02*
Y7797D01*
X10589Y7776D02*
X10631D01*
X10610Y7755D02*
Y7797D01*
X9889Y7776D02*
X9931D01*
X9910Y7755D02*
Y7797D01*
X10811Y7633D02*
X10839D01*
X10825Y7619D02*
Y7647D01*
X10528Y8161D02*
X10556D01*
X10542Y8147D02*
Y8175D01*
X10768Y8033D02*
X10796D01*
X10782Y8019D02*
Y8047D01*
X10144Y8588D02*
X10172D01*
X10158Y8574D02*
Y8602D01*
X10256Y8193D02*
X10284D01*
X10270Y8179D02*
Y8207D01*
X9712Y8033D02*
X9740D01*
X9726Y8019D02*
Y8047D01*
X9712Y8689D02*
X9740D01*
X9726Y8675D02*
Y8703D01*
X10640Y8177D02*
X10668D01*
X10654Y8163D02*
Y8191D01*
X10496Y7963D02*
X10524D01*
X10510Y7949D02*
Y7977D01*
X10013Y8281D02*
X10041D01*
X10027Y8267D02*
Y8295D01*
X9856Y8209D02*
X9884D01*
X9870Y8195D02*
Y8223D01*
X10139Y8081D02*
X10167D01*
X10153Y8067D02*
Y8095D01*
X10176Y8129D02*
X10204D01*
X10190Y8115D02*
Y8143D01*
X10056Y7889D02*
X10084D01*
X10070Y7875D02*
Y7903D01*
X10216Y8081D02*
X10244D01*
X10230Y8067D02*
Y8095D01*
X9992Y8337D02*
X10020D01*
X10006Y8323D02*
Y8351D01*
X10581Y8225D02*
X10609D01*
X10595Y8211D02*
Y8239D01*
X10320Y7585D02*
X10348D01*
X10334Y7571D02*
Y7599D01*
X10240Y8499D02*
X10268D01*
X10254Y8485D02*
Y8513D01*
X10096Y8545D02*
X10124D01*
X10110Y8531D02*
Y8559D01*
X9664Y8529D02*
X9692D01*
X9678Y8515D02*
Y8543D01*
X10320Y8172D02*
X10348D01*
X10334Y8158D02*
Y8186D01*
X10192Y8246D02*
X10220D01*
X10206Y8232D02*
Y8260D01*
X10400Y7585D02*
X10428D01*
X10414Y7571D02*
Y7599D01*
X10576Y8369D02*
X10604D01*
X10590Y8355D02*
Y8383D01*
X10480Y8369D02*
X10508D01*
X10494Y8355D02*
Y8383D01*
X9952Y8129D02*
X9980D01*
X9966Y8115D02*
Y8143D01*
X10512Y8097D02*
X10540D01*
X10526Y8083D02*
Y8111D01*
X9936Y7931D02*
X9964D01*
X9950Y7917D02*
Y7945D01*
X9712Y7905D02*
X9740D01*
X9726Y7891D02*
Y7919D01*
X10480Y7585D02*
X10508D01*
X10494Y7571D02*
Y7599D01*
X10596Y7601D02*
X10624D01*
X10610Y7587D02*
Y7615D01*
X10000Y8193D02*
X10028D01*
X10014Y8179D02*
Y8207D01*
M02*
