%FSLAX23Y23*%
%MOIN*%
G70*
G01*
G75*
%ADD10R,0.030X0.030*%
%ADD11O,0.059X0.018*%
%ADD12R,0.059X0.018*%
%ADD13R,0.018X0.059*%
%ADD14C,0.032*%
%ADD15C,0.015*%
%ADD16C,0.016*%
%ADD17C,0.025*%
%ADD18C,0.008*%
%ADD19R,0.050X0.050*%
%ADD20C,0.050*%
%ADD21C,0.055*%
%ADD22C,0.062*%
%ADD23R,0.062X0.062*%
%ADD24R,0.022X0.079*%
%ADD25O,0.022X0.079*%
%ADD26R,0.060X0.060*%
%ADD27C,0.020*%
%ADD28R,0.038X0.038*%
%ADD29O,0.067X0.026*%
%ADD30R,0.067X0.026*%
%ADD31R,0.026X0.067*%
%ADD32R,0.058X0.058*%
%ADD33C,0.058*%
%ADD34C,0.063*%
%ADD35C,0.070*%
%ADD36R,0.070X0.070*%
%ADD37R,0.030X0.087*%
%ADD38O,0.030X0.087*%
%ADD39R,0.068X0.068*%
%ADD40C,0.010*%
%ADD41C,0.007*%
D18*
X10710Y7761D02*
Y7801D01*
X10750D01*
Y7761D01*
X10710D01*
Y7861D02*
Y7901D01*
X10750D01*
Y7861D01*
X10710D01*
Y7961D02*
Y8001D01*
X10750D01*
Y7961D01*
X10710D01*
Y8061D02*
Y8101D01*
X10750D01*
Y8061D01*
X10710D01*
Y8161D02*
Y8201D01*
X10750D01*
Y8161D01*
X10710D01*
Y8261D02*
Y8301D01*
X10750D01*
Y8261D01*
X10710D01*
Y8361D02*
Y8401D01*
X10750D01*
Y8361D01*
X10710D01*
Y8461D02*
Y8501D01*
X10750D01*
Y8461D01*
X10710D01*
X9765Y7761D02*
Y7801D01*
X9805D01*
Y7761D01*
X9765D01*
Y7861D02*
Y7901D01*
X9805D01*
Y7861D01*
X9765D01*
Y7961D02*
Y8001D01*
X9805D01*
Y7961D01*
X9765D01*
Y8061D02*
Y8101D01*
X9805D01*
Y8061D01*
X9765D01*
Y8161D02*
Y8201D01*
X9805D01*
Y8161D01*
X9765D01*
Y8261D02*
Y8301D01*
X9805D01*
Y8261D01*
X9765D01*
Y8361D02*
Y8401D01*
X9805D01*
Y8361D01*
X9765D01*
Y8461D02*
Y8501D01*
X9805D01*
Y8461D01*
X9765D01*
X10330Y7841D02*
Y7881D01*
X10370D01*
Y7841D01*
X10330D01*
X10230D02*
Y7881D01*
X10270D01*
Y7841D01*
X10230D01*
X10130D02*
Y7881D01*
X10170D01*
Y7841D01*
X10130D01*
D41*
X9930Y8451D02*
X9927Y8460D01*
X9921Y8467D01*
X9912Y8470D01*
X9903Y8469D01*
X9895Y8464D01*
X9890Y8455D01*
Y8446D01*
X9895Y8437D01*
X9903Y8432D01*
X9912Y8431D01*
X9921Y8434D01*
X9927Y8441D01*
X9930Y8451D01*
X10030D02*
X10027Y8460D01*
X10021Y8467D01*
X10012Y8470D01*
X10003Y8469D01*
X9995Y8464D01*
X9990Y8455D01*
Y8446D01*
X9995Y8437D01*
X10003Y8432D01*
X10012Y8431D01*
X10021Y8434D01*
X10027Y8441D01*
X10030Y8451D01*
X10130D02*
X10127Y8460D01*
X10121Y8467D01*
X10112Y8470D01*
X10103Y8469D01*
X10095Y8464D01*
X10090Y8455D01*
Y8446D01*
X10095Y8437D01*
X10103Y8432D01*
X10112Y8431D01*
X10121Y8434D01*
X10127Y8441D01*
X10130Y8451D01*
X10230D02*
X10227Y8460D01*
X10221Y8467D01*
X10212Y8470D01*
X10203Y8469D01*
X10195Y8464D01*
X10190Y8455D01*
Y8446D01*
X10195Y8437D01*
X10203Y8432D01*
X10212Y8431D01*
X10221Y8434D01*
X10227Y8441D01*
X10230Y8451D01*
X10330D02*
X10327Y8460D01*
X10321Y8467D01*
X10312Y8470D01*
X10303Y8469D01*
X10295Y8464D01*
X10290Y8455D01*
Y8446D01*
X10295Y8437D01*
X10303Y8432D01*
X10312Y8431D01*
X10321Y8434D01*
X10327Y8441D01*
X10330Y8451D01*
X10430D02*
X10427Y8460D01*
X10421Y8467D01*
X10412Y8470D01*
X10403Y8469D01*
X10395Y8464D01*
X10390Y8455D01*
Y8446D01*
X10395Y8437D01*
X10403Y8432D01*
X10412Y8431D01*
X10421Y8434D01*
X10427Y8441D01*
X10430Y8451D01*
X10530D02*
X10527Y8460D01*
X10521Y8467D01*
X10512Y8470D01*
X10503Y8469D01*
X10495Y8464D01*
X10490Y8455D01*
Y8446D01*
X10495Y8437D01*
X10503Y8432D01*
X10512Y8431D01*
X10521Y8434D01*
X10527Y8441D01*
X10530Y8451D01*
X10630D02*
X10627Y8460D01*
X10621Y8467D01*
X10612Y8470D01*
X10603Y8469D01*
X10595Y8464D01*
X10590Y8455D01*
Y8446D01*
X10595Y8437D01*
X10603Y8432D01*
X10612Y8431D01*
X10621Y8434D01*
X10627Y8441D01*
X10630Y8451D01*
X10030Y7776D02*
X10027Y7785D01*
X10021Y7792D01*
X10012Y7795D01*
X10003Y7794D01*
X9995Y7789D01*
X9990Y7780D01*
Y7771D01*
X9995Y7762D01*
X10003Y7757D01*
X10012Y7756D01*
X10021Y7759D01*
X10027Y7766D01*
X10030Y7776D01*
X10130Y7776D02*
X10127Y7785D01*
X10121Y7792D01*
X10112Y7795D01*
X10103Y7794D01*
X10095Y7789D01*
X10090Y7780D01*
Y7771D01*
X10095Y7762D01*
X10103Y7757D01*
X10112Y7756D01*
X10121Y7759D01*
X10127Y7766D01*
X10130Y7776D01*
X10230D02*
X10227Y7785D01*
X10221Y7792D01*
X10212Y7795D01*
X10203Y7794D01*
X10195Y7789D01*
X10190Y7780D01*
Y7771D01*
X10195Y7762D01*
X10203Y7757D01*
X10212Y7756D01*
X10221Y7759D01*
X10227Y7766D01*
X10230Y7776D01*
X10330D02*
X10327Y7785D01*
X10321Y7792D01*
X10312Y7795D01*
X10303Y7794D01*
X10295Y7789D01*
X10290Y7780D01*
Y7771D01*
X10295Y7762D01*
X10303Y7757D01*
X10312Y7756D01*
X10321Y7759D01*
X10327Y7766D01*
X10330Y7776D01*
X10430D02*
X10427Y7785D01*
X10421Y7792D01*
X10412Y7795D01*
X10403Y7794D01*
X10395Y7789D01*
X10390Y7780D01*
Y7771D01*
X10395Y7762D01*
X10403Y7757D01*
X10412Y7756D01*
X10421Y7759D01*
X10427Y7766D01*
X10430Y7776D01*
X10530D02*
X10527Y7785D01*
X10521Y7792D01*
X10512Y7795D01*
X10503Y7794D01*
X10495Y7789D01*
X10490Y7780D01*
Y7771D01*
X10495Y7762D01*
X10503Y7757D01*
X10512Y7756D01*
X10521Y7759D01*
X10527Y7766D01*
X10530Y7776D01*
X10630D02*
X10627Y7785D01*
X10621Y7792D01*
X10612Y7795D01*
X10603Y7794D01*
X10595Y7789D01*
X10590Y7780D01*
Y7771D01*
X10595Y7762D01*
X10603Y7757D01*
X10612Y7756D01*
X10621Y7759D01*
X10627Y7766D01*
X10630Y7776D01*
X9930D02*
X9927Y7785D01*
X9921Y7792D01*
X9912Y7795D01*
X9903Y7794D01*
X9895Y7789D01*
X9890Y7780D01*
Y7771D01*
X9895Y7762D01*
X9903Y7757D01*
X9912Y7756D01*
X9921Y7759D01*
X9927Y7766D01*
X9930Y7776D01*
X10825Y7613D02*
X10805Y7653D01*
X10845D01*
X10825Y7613D01*
X10542Y8141D02*
X10522Y8181D01*
X10562D01*
X10542Y8141D01*
X10782Y8013D02*
X10762Y8053D01*
X10802D01*
X10782Y8013D01*
X10158Y8568D02*
X10138Y8608D01*
X10178D01*
X10158Y8568D01*
X10270Y8173D02*
X10250Y8213D01*
X10290D01*
X10270Y8173D01*
X9726Y8013D02*
X9706Y8053D01*
X9746D01*
X9726Y8013D01*
Y8669D02*
X9706Y8709D01*
X9746D01*
X9726Y8669D01*
X10654Y8157D02*
X10634Y8197D01*
X10674D01*
X10654Y8157D01*
X10510Y7943D02*
X10490Y7983D01*
X10530D01*
X10510Y7943D01*
X10027Y8261D02*
X10007Y8301D01*
X10047D01*
X10027Y8261D01*
X9870Y8189D02*
X9850Y8229D01*
X9890D01*
X9870Y8189D01*
X10153Y8061D02*
X10133Y8101D01*
X10173D01*
X10153Y8061D01*
X10190Y8109D02*
X10170Y8149D01*
X10210D01*
X10190Y8109D01*
X10070Y7869D02*
X10050Y7909D01*
X10090D01*
X10070Y7869D01*
X10230Y8061D02*
X10210Y8101D01*
X10250D01*
X10230Y8061D01*
X10006Y8317D02*
X9986Y8357D01*
X10026D01*
X10006Y8317D01*
X10595Y8205D02*
X10575Y8245D01*
X10615D01*
X10595Y8205D01*
X10334Y7565D02*
X10314Y7605D01*
X10354D01*
X10334Y7565D01*
X10254Y8479D02*
X10234Y8519D01*
X10274D01*
X10254Y8479D01*
X10110Y8525D02*
X10090Y8565D01*
X10130D01*
X10110Y8525D01*
X9678Y8509D02*
X9658Y8549D01*
X9698D01*
X9678Y8509D01*
X10334Y8152D02*
X10314Y8192D01*
X10354D01*
X10334Y8152D01*
X10206Y8226D02*
X10186Y8266D01*
X10226D01*
X10206Y8226D01*
X10414Y7565D02*
X10394Y7605D01*
X10434D01*
X10414Y7565D01*
X10590Y8349D02*
X10570Y8389D01*
X10610D01*
X10590Y8349D01*
X10494D02*
X10474Y8389D01*
X10514D01*
X10494Y8349D01*
X9966Y8109D02*
X9946Y8149D01*
X9986D01*
X9966Y8109D01*
X10526Y8077D02*
X10506Y8117D01*
X10546D01*
X10526Y8077D01*
X9950Y7911D02*
X9930Y7951D01*
X9970D01*
X9950Y7911D01*
X9726Y7885D02*
X9706Y7925D01*
X9746D01*
X9726Y7885D01*
X10494Y7565D02*
X10474Y7605D01*
X10514D01*
X10494Y7565D01*
X10610Y7581D02*
X10590Y7621D01*
X10630D01*
X10610Y7581D01*
X10014Y8173D02*
X9994Y8213D01*
X10034D01*
X10014Y8173D01*
M02*
