G04 (created by PCBNEW-RS274X (2011-05-25)-stable) date Thu 13 Sep 2012 05:18:50 PM PDT*
G01*
G70*
G90*
%MOIN*%
G04 Gerber Fmt 3.4, Leading zero omitted, Abs format*
%FSLAX34Y34*%
G04 APERTURE LIST*
%ADD10C,0.006000*%
%ADD11C,0.005000*%
%ADD12C,0.012000*%
%ADD13C,0.005900*%
G04 APERTURE END LIST*
G54D10*
G54D11*
X50337Y-27309D02*
X51237Y-27309D01*
X51237Y-27309D02*
X51237Y-27809D01*
X51237Y-27809D02*
X50337Y-27809D01*
X50337Y-27809D02*
X50337Y-27309D01*
X40793Y-38934D02*
X40793Y-38034D01*
X40793Y-38034D02*
X41293Y-38034D01*
X41293Y-38034D02*
X41293Y-38934D01*
X41293Y-38934D02*
X40793Y-38934D01*
X40006Y-38934D02*
X40006Y-38034D01*
X40006Y-38034D02*
X40506Y-38034D01*
X40506Y-38034D02*
X40506Y-38934D01*
X40506Y-38934D02*
X40006Y-38934D01*
X42762Y-36080D02*
X42762Y-35180D01*
X42762Y-35180D02*
X43262Y-35180D01*
X43262Y-35180D02*
X43262Y-36080D01*
X43262Y-36080D02*
X42762Y-36080D01*
X51726Y-36459D02*
X51726Y-37359D01*
X51726Y-37359D02*
X51226Y-37359D01*
X51226Y-37359D02*
X51226Y-36459D01*
X51226Y-36459D02*
X51726Y-36459D01*
X39711Y-31454D02*
X39711Y-30554D01*
X39711Y-30554D02*
X40211Y-30554D01*
X40211Y-30554D02*
X40211Y-31454D01*
X40211Y-31454D02*
X39711Y-31454D01*
X51726Y-33310D02*
X51726Y-34210D01*
X51726Y-34210D02*
X51226Y-34210D01*
X51226Y-34210D02*
X51226Y-33310D01*
X51226Y-33310D02*
X51726Y-33310D01*
X51726Y-34885D02*
X51726Y-35785D01*
X51726Y-35785D02*
X51226Y-35785D01*
X51226Y-35785D02*
X51226Y-34885D01*
X51226Y-34885D02*
X51726Y-34885D01*
X40101Y-27309D02*
X41001Y-27309D01*
X41001Y-27309D02*
X41001Y-27809D01*
X41001Y-27809D02*
X40101Y-27809D01*
X40101Y-27809D02*
X40101Y-27309D01*
G54D10*
X48437Y-34555D02*
X47987Y-34555D01*
X48437Y-32375D02*
X47997Y-32375D01*
X48437Y-34555D02*
X48437Y-32375D01*
X47557Y-35025D02*
X47557Y-35455D01*
X45347Y-35035D02*
X45347Y-35455D01*
X45337Y-35455D02*
X47557Y-35465D01*
X45357Y-31485D02*
X47527Y-31475D01*
X44927Y-32175D02*
X44927Y-35005D01*
X47537Y-31485D02*
X47537Y-31895D01*
X45177Y-31935D02*
X47957Y-31935D01*
X47977Y-35015D02*
X47977Y-31975D01*
X44927Y-35015D02*
X47927Y-35015D01*
X44477Y-32345D02*
X44477Y-34565D01*
X44477Y-34565D02*
X44927Y-34565D01*
X44931Y-32165D02*
X45161Y-31935D01*
X44479Y-32345D02*
X44931Y-32345D01*
X45357Y-31935D02*
X45357Y-31483D01*
X45527Y-32339D02*
X45523Y-32375D01*
X45512Y-32410D01*
X45495Y-32443D01*
X45472Y-32471D01*
X45444Y-32494D01*
X45411Y-32512D01*
X45376Y-32523D01*
X45340Y-32526D01*
X45304Y-32523D01*
X45269Y-32513D01*
X45237Y-32496D01*
X45208Y-32473D01*
X45184Y-32445D01*
X45167Y-32413D01*
X45156Y-32378D01*
X45152Y-32341D01*
X45155Y-32306D01*
X45165Y-32270D01*
X45181Y-32238D01*
X45204Y-32209D01*
X45232Y-32185D01*
X45264Y-32167D01*
X45299Y-32156D01*
X45336Y-32152D01*
X45371Y-32154D01*
X45406Y-32164D01*
X45439Y-32181D01*
X45468Y-32203D01*
X45492Y-32231D01*
X45510Y-32263D01*
X45522Y-32298D01*
X45526Y-32334D01*
X45527Y-32339D01*
G54D11*
X42376Y-35180D02*
X42376Y-36080D01*
X42376Y-36080D02*
X41876Y-36080D01*
X41876Y-36080D02*
X41876Y-35180D01*
X41876Y-35180D02*
X42376Y-35180D01*
X49944Y-37939D02*
X50844Y-37939D01*
X50844Y-37939D02*
X50844Y-38439D01*
X50844Y-38439D02*
X49944Y-38439D01*
X49944Y-38439D02*
X49944Y-37939D01*
G54D10*
X49569Y-29618D02*
X49569Y-30618D01*
X41769Y-29618D02*
X41769Y-30618D01*
X41769Y-29618D02*
X49569Y-29618D01*
X49569Y-30618D02*
X41769Y-30618D01*
X49569Y-36705D02*
X49569Y-37705D01*
X41769Y-36705D02*
X41769Y-37705D01*
X41769Y-36705D02*
X49569Y-36705D01*
X49569Y-37705D02*
X41769Y-37705D01*
G54D12*
X43213Y-31554D02*
X43213Y-34198D01*
X43213Y-34198D02*
X41625Y-34198D01*
X41625Y-34198D02*
X41629Y-31550D01*
X41629Y-31550D02*
X43217Y-31554D01*
X43217Y-31554D02*
X43205Y-31550D01*
G54D13*
X50738Y-28269D02*
X50639Y-28128D01*
X50569Y-28269D02*
X50569Y-27974D01*
X50682Y-27974D01*
X50710Y-27988D01*
X50724Y-28002D01*
X50738Y-28030D01*
X50738Y-28072D01*
X50724Y-28100D01*
X50710Y-28114D01*
X50682Y-28128D01*
X50569Y-28128D01*
X50878Y-28269D02*
X50934Y-28269D01*
X50963Y-28255D01*
X50977Y-28241D01*
X51005Y-28199D01*
X51019Y-28142D01*
X51019Y-28030D01*
X51005Y-28002D01*
X50991Y-27988D01*
X50963Y-27974D01*
X50906Y-27974D01*
X50878Y-27988D01*
X50864Y-28002D01*
X50850Y-28030D01*
X50850Y-28100D01*
X50864Y-28128D01*
X50878Y-28142D01*
X50906Y-28157D01*
X50963Y-28157D01*
X50991Y-28142D01*
X51005Y-28128D01*
X51019Y-28100D01*
X40994Y-37914D02*
X40895Y-37773D01*
X40825Y-37914D02*
X40825Y-37619D01*
X40938Y-37619D01*
X40966Y-37633D01*
X40980Y-37647D01*
X40994Y-37675D01*
X40994Y-37717D01*
X40980Y-37745D01*
X40966Y-37759D01*
X40938Y-37773D01*
X40825Y-37773D01*
X41162Y-37745D02*
X41134Y-37731D01*
X41120Y-37717D01*
X41106Y-37689D01*
X41106Y-37675D01*
X41120Y-37647D01*
X41134Y-37633D01*
X41162Y-37619D01*
X41219Y-37619D01*
X41247Y-37633D01*
X41261Y-37647D01*
X41275Y-37675D01*
X41275Y-37689D01*
X41261Y-37717D01*
X41247Y-37731D01*
X41219Y-37745D01*
X41162Y-37745D01*
X41134Y-37759D01*
X41120Y-37773D01*
X41106Y-37802D01*
X41106Y-37858D01*
X41120Y-37886D01*
X41134Y-37900D01*
X41162Y-37914D01*
X41219Y-37914D01*
X41247Y-37900D01*
X41261Y-37886D01*
X41275Y-37858D01*
X41275Y-37802D01*
X41261Y-37773D01*
X41247Y-37759D01*
X41219Y-37745D01*
X40207Y-37914D02*
X40108Y-37773D01*
X40038Y-37914D02*
X40038Y-37619D01*
X40151Y-37619D01*
X40179Y-37633D01*
X40193Y-37647D01*
X40207Y-37675D01*
X40207Y-37717D01*
X40193Y-37745D01*
X40179Y-37759D01*
X40151Y-37773D01*
X40038Y-37773D01*
X40305Y-37619D02*
X40502Y-37619D01*
X40375Y-37914D01*
X42963Y-36536D02*
X42864Y-36395D01*
X42794Y-36536D02*
X42794Y-36241D01*
X42907Y-36241D01*
X42935Y-36255D01*
X42949Y-36269D01*
X42963Y-36297D01*
X42963Y-36339D01*
X42949Y-36367D01*
X42935Y-36381D01*
X42907Y-36395D01*
X42794Y-36395D01*
X43216Y-36241D02*
X43159Y-36241D01*
X43131Y-36255D01*
X43117Y-36269D01*
X43089Y-36311D01*
X43075Y-36367D01*
X43075Y-36480D01*
X43089Y-36508D01*
X43103Y-36522D01*
X43131Y-36536D01*
X43188Y-36536D01*
X43216Y-36522D01*
X43230Y-36508D01*
X43244Y-36480D01*
X43244Y-36409D01*
X43230Y-36381D01*
X43216Y-36367D01*
X43188Y-36353D01*
X43131Y-36353D01*
X43103Y-36367D01*
X43089Y-36381D01*
X43075Y-36409D01*
X51427Y-36339D02*
X51328Y-36198D01*
X51258Y-36339D02*
X51258Y-36044D01*
X51371Y-36044D01*
X51399Y-36058D01*
X51413Y-36072D01*
X51427Y-36100D01*
X51427Y-36142D01*
X51413Y-36170D01*
X51399Y-36184D01*
X51371Y-36198D01*
X51258Y-36198D01*
X51694Y-36044D02*
X51553Y-36044D01*
X51539Y-36184D01*
X51553Y-36170D01*
X51581Y-36156D01*
X51652Y-36156D01*
X51680Y-36170D01*
X51694Y-36184D01*
X51708Y-36212D01*
X51708Y-36283D01*
X51694Y-36311D01*
X51680Y-36325D01*
X51652Y-36339D01*
X51581Y-36339D01*
X51553Y-36325D01*
X51539Y-36311D01*
X39912Y-31910D02*
X39813Y-31769D01*
X39743Y-31910D02*
X39743Y-31615D01*
X39856Y-31615D01*
X39884Y-31629D01*
X39898Y-31643D01*
X39912Y-31671D01*
X39912Y-31713D01*
X39898Y-31741D01*
X39884Y-31755D01*
X39856Y-31769D01*
X39743Y-31769D01*
X40165Y-31713D02*
X40165Y-31910D01*
X40094Y-31601D02*
X40024Y-31812D01*
X40207Y-31812D01*
X51427Y-33190D02*
X51328Y-33049D01*
X51258Y-33190D02*
X51258Y-32895D01*
X51371Y-32895D01*
X51399Y-32909D01*
X51413Y-32923D01*
X51427Y-32951D01*
X51427Y-32993D01*
X51413Y-33021D01*
X51399Y-33035D01*
X51371Y-33049D01*
X51258Y-33049D01*
X51525Y-32895D02*
X51708Y-32895D01*
X51609Y-33007D01*
X51652Y-33007D01*
X51680Y-33021D01*
X51694Y-33035D01*
X51708Y-33063D01*
X51708Y-33134D01*
X51694Y-33162D01*
X51680Y-33176D01*
X51652Y-33190D01*
X51567Y-33190D01*
X51539Y-33176D01*
X51525Y-33162D01*
X51427Y-34765D02*
X51328Y-34624D01*
X51258Y-34765D02*
X51258Y-34470D01*
X51371Y-34470D01*
X51399Y-34484D01*
X51413Y-34498D01*
X51427Y-34526D01*
X51427Y-34568D01*
X51413Y-34596D01*
X51399Y-34610D01*
X51371Y-34624D01*
X51258Y-34624D01*
X51539Y-34498D02*
X51553Y-34484D01*
X51581Y-34470D01*
X51652Y-34470D01*
X51680Y-34484D01*
X51694Y-34498D01*
X51708Y-34526D01*
X51708Y-34554D01*
X51694Y-34596D01*
X51525Y-34765D01*
X51708Y-34765D01*
X40502Y-28269D02*
X40403Y-28128D01*
X40333Y-28269D02*
X40333Y-27974D01*
X40446Y-27974D01*
X40474Y-27988D01*
X40488Y-28002D01*
X40502Y-28030D01*
X40502Y-28072D01*
X40488Y-28100D01*
X40474Y-28114D01*
X40446Y-28128D01*
X40333Y-28128D01*
X40783Y-28269D02*
X40614Y-28269D01*
X40698Y-28269D02*
X40698Y-27974D01*
X40670Y-28016D01*
X40642Y-28044D01*
X40614Y-28058D01*
X44397Y-31812D02*
X44397Y-31517D01*
X44706Y-31784D02*
X44692Y-31798D01*
X44650Y-31812D01*
X44622Y-31812D01*
X44579Y-31798D01*
X44551Y-31770D01*
X44537Y-31742D01*
X44523Y-31685D01*
X44523Y-31643D01*
X44537Y-31587D01*
X44551Y-31559D01*
X44579Y-31531D01*
X44622Y-31517D01*
X44650Y-31517D01*
X44692Y-31531D01*
X44706Y-31545D01*
X44987Y-31812D02*
X44818Y-31812D01*
X44902Y-31812D02*
X44902Y-31517D01*
X44874Y-31559D01*
X44846Y-31587D01*
X44818Y-31601D01*
X42077Y-34934D02*
X42063Y-34948D01*
X42021Y-34962D01*
X41993Y-34962D01*
X41950Y-34948D01*
X41922Y-34920D01*
X41908Y-34892D01*
X41894Y-34835D01*
X41894Y-34793D01*
X41908Y-34737D01*
X41922Y-34709D01*
X41950Y-34681D01*
X41993Y-34667D01*
X42021Y-34667D01*
X42063Y-34681D01*
X42077Y-34695D01*
X42189Y-34695D02*
X42203Y-34681D01*
X42231Y-34667D01*
X42302Y-34667D01*
X42330Y-34681D01*
X42344Y-34695D01*
X42358Y-34723D01*
X42358Y-34751D01*
X42344Y-34793D01*
X42175Y-34962D01*
X42358Y-34962D01*
X50345Y-38871D02*
X50331Y-38885D01*
X50289Y-38899D01*
X50261Y-38899D01*
X50218Y-38885D01*
X50190Y-38857D01*
X50176Y-38829D01*
X50162Y-38772D01*
X50162Y-38730D01*
X50176Y-38674D01*
X50190Y-38646D01*
X50218Y-38618D01*
X50261Y-38604D01*
X50289Y-38604D01*
X50331Y-38618D01*
X50345Y-38632D01*
X50626Y-38899D02*
X50457Y-38899D01*
X50541Y-38899D02*
X50541Y-38604D01*
X50513Y-38646D01*
X50485Y-38674D01*
X50457Y-38688D01*
X41514Y-31123D02*
X41514Y-30828D01*
X41627Y-30828D01*
X41655Y-30842D01*
X41669Y-30856D01*
X41683Y-30884D01*
X41683Y-30926D01*
X41669Y-30954D01*
X41655Y-30968D01*
X41627Y-30982D01*
X41514Y-30982D01*
X41964Y-31123D02*
X41795Y-31123D01*
X41879Y-31123D02*
X41879Y-30828D01*
X41851Y-30870D01*
X41823Y-30898D01*
X41795Y-30912D01*
X41514Y-36536D02*
X41514Y-36241D01*
X41627Y-36241D01*
X41655Y-36255D01*
X41669Y-36269D01*
X41683Y-36297D01*
X41683Y-36339D01*
X41669Y-36367D01*
X41655Y-36381D01*
X41627Y-36395D01*
X41514Y-36395D01*
X41795Y-36269D02*
X41809Y-36255D01*
X41837Y-36241D01*
X41908Y-36241D01*
X41936Y-36255D01*
X41950Y-36269D01*
X41964Y-36297D01*
X41964Y-36325D01*
X41950Y-36367D01*
X41781Y-36536D01*
X41964Y-36536D01*
X42970Y-31025D02*
X43167Y-31320D01*
X43167Y-31025D02*
X42970Y-31320D01*
X43434Y-31320D02*
X43265Y-31320D01*
X43349Y-31320D02*
X43349Y-31025D01*
X43321Y-31067D01*
X43293Y-31095D01*
X43265Y-31109D01*
M02*
