M48
;DRILL file {PCBnew (2011-05-25)-stable} date Fri 25 Jan 2013 04:27:01 PM PST
;FORMAT={-:-/ absolute / inch / decimal}
FMAT,2
INCH,TZ
T1C0.025
T2C0.040
%
G90
G05
M72
T1
X4.182Y3.147
X4.192Y2.796
X4.274Y3.101
X4.337Y3.189
X4.389Y3.349
X4.414Y3.619
X4.466Y3.631
X4.523Y3.613
X4.529Y3.361
X4.586Y3.298
X4.593Y3.355
X4.600Y2.861
X4.660Y2.970
X4.675Y3.647
X4.685Y3.382
X4.688Y3.271
X4.719Y3.350
X4.764Y3.315
X4.847Y3.780
X4.895Y3.070
X4.901Y3.381
X4.910Y3.476
X4.932Y3.642
X5.110Y3.873
X5.137Y3.541
X5.140Y3.175
X5.149Y2.769
T2
X4.095Y2.957
X4.095Y3.057
X4.095Y3.157
X4.095Y3.257
X4.095Y3.357
X4.095Y3.457
X4.095Y3.557
X4.095Y3.657
X4.217Y3.012
X4.217Y3.721
X4.317Y3.012
X4.317Y3.721
X4.417Y3.012
X4.417Y3.721
X4.517Y3.012
X4.517Y3.721
X4.617Y3.012
X4.617Y3.721
X4.717Y3.012
X4.717Y3.721
X4.817Y3.012
X4.817Y3.721
X4.917Y3.012
X4.917Y3.721
X5.039Y2.957
X5.039Y3.057
X5.039Y3.157
X5.039Y3.257
X5.039Y3.357
X5.039Y3.457
X5.039Y3.557
X5.039Y3.657
T0
M30
