G04 (created by PCBNEW-RS274X (2011-05-25)-stable) date Fri 25 Jan 2013 03:29:58 PM PST*
G01*
G70*
G90*
%MOIN*%
G04 Gerber Fmt 3.4, Leading zero omitted, Abs format*
%FSLAX34Y34*%
G04 APERTURE LIST*
%ADD10C,0.006000*%
%ADD11C,0.080000*%
%ADD12R,0.080000X0.080000*%
%ADD13R,0.043600X0.098700*%
G04 APERTURE END LIST*
G54D10*
G54D11*
X40945Y-29569D03*
X40945Y-30569D03*
X40945Y-31569D03*
X40945Y-32569D03*
X40945Y-33569D03*
X40945Y-34569D03*
X40945Y-35569D03*
X40945Y-36569D03*
G54D12*
X50394Y-36569D03*
G54D11*
X50394Y-35569D03*
X50394Y-34569D03*
X50394Y-33569D03*
X50394Y-32569D03*
X50394Y-31569D03*
X50394Y-30569D03*
X50394Y-29569D03*
G54D12*
X42169Y-30118D03*
G54D11*
X43169Y-30118D03*
X44169Y-30118D03*
X45169Y-30118D03*
X46169Y-30118D03*
X47169Y-30118D03*
X48169Y-30118D03*
X49169Y-30118D03*
G54D12*
X42169Y-37205D03*
G54D11*
X43169Y-37205D03*
X44169Y-37205D03*
X45169Y-37205D03*
X46169Y-37205D03*
X47169Y-37205D03*
X48169Y-37205D03*
X49169Y-37205D03*
G54D13*
X48161Y-35457D03*
X47661Y-35457D03*
X47161Y-35457D03*
X46661Y-35457D03*
X46161Y-35457D03*
X45661Y-35457D03*
X45161Y-35457D03*
X44661Y-35457D03*
X44161Y-35457D03*
X48161Y-31669D03*
X47661Y-31669D03*
X47161Y-31669D03*
X46661Y-31669D03*
X46161Y-31669D03*
X45661Y-31669D03*
X45161Y-31669D03*
X44661Y-31669D03*
X44161Y-31669D03*
M02*
