G04 (created by PCBNEW-RS274X (2011-05-25)-stable) date Fri 25 Jan 2013 04:31:27 PM PST*
G01*
G70*
G90*
%MOIN*%
G04 Gerber Fmt 3.4, Leading zero omitted, Abs format*
%FSLAX34Y34*%
G04 APERTURE LIST*
%ADD10C,0.006000*%
%ADD11C,0.007900*%
%ADD12C,0.008000*%
G04 APERTURE END LIST*
G54D10*
G54D11*
X40316Y-28448D02*
X39922Y-28448D01*
X39922Y-28711D02*
X39922Y-28786D01*
X39941Y-28823D01*
X39979Y-28861D01*
X40054Y-28880D01*
X40185Y-28880D01*
X40260Y-28861D01*
X40298Y-28823D01*
X40316Y-28786D01*
X40316Y-28711D01*
X40298Y-28673D01*
X40260Y-28636D01*
X40185Y-28617D01*
X40054Y-28617D01*
X39979Y-28636D01*
X39941Y-28673D01*
X39922Y-28711D01*
X40316Y-29574D02*
X40129Y-29443D01*
X40316Y-29349D02*
X39922Y-29349D01*
X39922Y-29499D01*
X39941Y-29536D01*
X39960Y-29555D01*
X39998Y-29574D01*
X40054Y-29574D01*
X40091Y-29555D01*
X40110Y-29536D01*
X40129Y-29499D01*
X40129Y-29349D01*
X40316Y-29799D02*
X40298Y-29762D01*
X40279Y-29743D01*
X40241Y-29724D01*
X40129Y-29724D01*
X40091Y-29743D01*
X40073Y-29762D01*
X40054Y-29799D01*
X40054Y-29855D01*
X40073Y-29893D01*
X40091Y-29912D01*
X40129Y-29930D01*
X40241Y-29930D01*
X40279Y-29912D01*
X40298Y-29893D01*
X40316Y-29855D01*
X40316Y-29799D01*
X40316Y-30268D02*
X39922Y-30268D01*
X40298Y-30268D02*
X40316Y-30230D01*
X40316Y-30155D01*
X40298Y-30118D01*
X40279Y-30099D01*
X40241Y-30080D01*
X40129Y-30080D01*
X40091Y-30099D01*
X40073Y-30118D01*
X40054Y-30155D01*
X40054Y-30230D01*
X40073Y-30268D01*
X40298Y-30605D02*
X40316Y-30567D01*
X40316Y-30492D01*
X40298Y-30455D01*
X40260Y-30436D01*
X40110Y-30436D01*
X40073Y-30455D01*
X40054Y-30492D01*
X40054Y-30567D01*
X40073Y-30605D01*
X40110Y-30624D01*
X40148Y-30624D01*
X40185Y-30436D01*
X40316Y-30849D02*
X40298Y-30812D01*
X40279Y-30793D01*
X40241Y-30774D01*
X40129Y-30774D01*
X40091Y-30793D01*
X40073Y-30812D01*
X40054Y-30849D01*
X40054Y-30905D01*
X40073Y-30943D01*
X40091Y-30962D01*
X40129Y-30980D01*
X40241Y-30980D01*
X40279Y-30962D01*
X40298Y-30943D01*
X40316Y-30905D01*
X40316Y-30849D01*
X40316Y-31449D02*
X39922Y-31449D01*
X40054Y-31637D02*
X40316Y-31637D01*
X40091Y-31637D02*
X40073Y-31656D01*
X40054Y-31693D01*
X40054Y-31749D01*
X40073Y-31787D01*
X40110Y-31806D01*
X40316Y-31806D01*
X40298Y-32162D02*
X40316Y-32124D01*
X40316Y-32049D01*
X40298Y-32012D01*
X40279Y-31993D01*
X40241Y-31974D01*
X40129Y-31974D01*
X40091Y-31993D01*
X40073Y-32012D01*
X40054Y-32049D01*
X40054Y-32124D01*
X40073Y-32162D01*
X40279Y-32331D02*
X40298Y-32350D01*
X40316Y-32331D01*
X40298Y-32312D01*
X40279Y-32331D01*
X40316Y-32331D01*
X40467Y-32931D02*
X40448Y-32913D01*
X40392Y-32875D01*
X40354Y-32856D01*
X40298Y-32838D01*
X40204Y-32819D01*
X40129Y-32819D01*
X40035Y-32838D01*
X39979Y-32856D01*
X39941Y-32875D01*
X39885Y-32913D01*
X39866Y-32931D01*
X39922Y-33251D02*
X39922Y-33176D01*
X39941Y-33138D01*
X39960Y-33119D01*
X40016Y-33082D01*
X40091Y-33063D01*
X40241Y-33063D01*
X40279Y-33082D01*
X40298Y-33101D01*
X40316Y-33138D01*
X40316Y-33213D01*
X40298Y-33251D01*
X40279Y-33269D01*
X40241Y-33288D01*
X40148Y-33288D01*
X40110Y-33269D01*
X40091Y-33251D01*
X40073Y-33213D01*
X40073Y-33138D01*
X40091Y-33101D01*
X40110Y-33082D01*
X40148Y-33063D01*
X39960Y-33438D02*
X39941Y-33457D01*
X39922Y-33494D01*
X39922Y-33588D01*
X39941Y-33626D01*
X39960Y-33644D01*
X39998Y-33663D01*
X40035Y-33663D01*
X40091Y-33644D01*
X40316Y-33419D01*
X40316Y-33663D01*
X39922Y-34001D02*
X39922Y-33926D01*
X39941Y-33888D01*
X39960Y-33869D01*
X40016Y-33832D01*
X40091Y-33813D01*
X40241Y-33813D01*
X40279Y-33832D01*
X40298Y-33851D01*
X40316Y-33888D01*
X40316Y-33963D01*
X40298Y-34001D01*
X40279Y-34019D01*
X40241Y-34038D01*
X40148Y-34038D01*
X40110Y-34019D01*
X40091Y-34001D01*
X40073Y-33963D01*
X40073Y-33888D01*
X40091Y-33851D01*
X40110Y-33832D01*
X40148Y-33813D01*
X40467Y-34169D02*
X40448Y-34188D01*
X40392Y-34226D01*
X40354Y-34244D01*
X40298Y-34263D01*
X40204Y-34282D01*
X40129Y-34282D01*
X40035Y-34263D01*
X39979Y-34244D01*
X39941Y-34226D01*
X39885Y-34188D01*
X39866Y-34169D01*
X39922Y-34732D02*
X39922Y-34995D01*
X40316Y-34826D01*
X40316Y-35164D02*
X40316Y-35239D01*
X40298Y-35276D01*
X40279Y-35295D01*
X40223Y-35332D01*
X40148Y-35351D01*
X39998Y-35351D01*
X39960Y-35332D01*
X39941Y-35314D01*
X39922Y-35276D01*
X39922Y-35201D01*
X39941Y-35164D01*
X39960Y-35145D01*
X39998Y-35126D01*
X40091Y-35126D01*
X40129Y-35145D01*
X40148Y-35164D01*
X40166Y-35201D01*
X40166Y-35276D01*
X40148Y-35314D01*
X40129Y-35332D01*
X40091Y-35351D01*
X39922Y-35482D02*
X39922Y-35726D01*
X40073Y-35595D01*
X40073Y-35651D01*
X40091Y-35689D01*
X40110Y-35707D01*
X40148Y-35726D01*
X40241Y-35726D01*
X40279Y-35707D01*
X40298Y-35689D01*
X40316Y-35651D01*
X40316Y-35539D01*
X40298Y-35501D01*
X40279Y-35482D01*
X40166Y-35895D02*
X40166Y-36195D01*
X40091Y-36439D02*
X40073Y-36402D01*
X40054Y-36383D01*
X40016Y-36364D01*
X39998Y-36364D01*
X39960Y-36383D01*
X39941Y-36402D01*
X39922Y-36439D01*
X39922Y-36514D01*
X39941Y-36552D01*
X39960Y-36570D01*
X39998Y-36589D01*
X40016Y-36589D01*
X40054Y-36570D01*
X40073Y-36552D01*
X40091Y-36514D01*
X40091Y-36439D01*
X40110Y-36402D01*
X40129Y-36383D01*
X40166Y-36364D01*
X40241Y-36364D01*
X40279Y-36383D01*
X40298Y-36402D01*
X40316Y-36439D01*
X40316Y-36514D01*
X40298Y-36552D01*
X40279Y-36570D01*
X40241Y-36589D01*
X40166Y-36589D01*
X40129Y-36570D01*
X40110Y-36552D01*
X40091Y-36514D01*
X39960Y-36739D02*
X39941Y-36758D01*
X39922Y-36795D01*
X39922Y-36889D01*
X39941Y-36927D01*
X39960Y-36945D01*
X39998Y-36964D01*
X40035Y-36964D01*
X40091Y-36945D01*
X40316Y-36720D01*
X40316Y-36964D01*
X40091Y-37189D02*
X40073Y-37152D01*
X40054Y-37133D01*
X40016Y-37114D01*
X39998Y-37114D01*
X39960Y-37133D01*
X39941Y-37152D01*
X39922Y-37189D01*
X39922Y-37264D01*
X39941Y-37302D01*
X39960Y-37320D01*
X39998Y-37339D01*
X40016Y-37339D01*
X40054Y-37320D01*
X40073Y-37302D01*
X40091Y-37264D01*
X40091Y-37189D01*
X40110Y-37152D01*
X40129Y-37133D01*
X40166Y-37114D01*
X40241Y-37114D01*
X40279Y-37133D01*
X40298Y-37152D01*
X40316Y-37189D01*
X40316Y-37264D01*
X40298Y-37302D01*
X40279Y-37320D01*
X40241Y-37339D01*
X40166Y-37339D01*
X40129Y-37320D01*
X40110Y-37302D01*
X40091Y-37264D01*
X40054Y-37677D02*
X40316Y-37677D01*
X39904Y-37583D02*
X40185Y-37489D01*
X40185Y-37733D01*
X48605Y-27512D02*
X48736Y-27512D01*
X48736Y-27718D02*
X48736Y-27324D01*
X48549Y-27324D01*
X48342Y-27718D02*
X48379Y-27700D01*
X48398Y-27662D01*
X48398Y-27324D01*
X48230Y-27456D02*
X48136Y-27718D01*
X48042Y-27456D02*
X48136Y-27718D01*
X48173Y-27812D01*
X48192Y-27831D01*
X48230Y-27850D01*
X47892Y-27456D02*
X47892Y-27850D01*
X47892Y-27475D02*
X47855Y-27456D01*
X47780Y-27456D01*
X47742Y-27475D01*
X47723Y-27493D01*
X47705Y-27531D01*
X47705Y-27643D01*
X47723Y-27681D01*
X47742Y-27700D01*
X47780Y-27718D01*
X47855Y-27718D01*
X47892Y-27700D01*
X47367Y-27718D02*
X47367Y-27512D01*
X47386Y-27475D01*
X47424Y-27456D01*
X47499Y-27456D01*
X47536Y-27475D01*
X47367Y-27700D02*
X47405Y-27718D01*
X47499Y-27718D01*
X47536Y-27700D01*
X47555Y-27662D01*
X47555Y-27625D01*
X47536Y-27587D01*
X47499Y-27568D01*
X47405Y-27568D01*
X47367Y-27550D01*
X47180Y-27456D02*
X47180Y-27718D01*
X47180Y-27493D02*
X47161Y-27475D01*
X47124Y-27456D01*
X47068Y-27456D01*
X47030Y-27475D01*
X47011Y-27512D01*
X47011Y-27718D01*
X46674Y-27700D02*
X46712Y-27718D01*
X46787Y-27718D01*
X46824Y-27700D01*
X46843Y-27662D01*
X46843Y-27512D01*
X46824Y-27475D01*
X46787Y-27456D01*
X46712Y-27456D01*
X46674Y-27475D01*
X46655Y-27512D01*
X46655Y-27550D01*
X46843Y-27587D01*
X46430Y-27718D02*
X46467Y-27700D01*
X46486Y-27662D01*
X46486Y-27324D01*
X46018Y-27456D02*
X45924Y-27718D01*
X45830Y-27456D01*
X45474Y-27718D02*
X45699Y-27718D01*
X45586Y-27718D02*
X45586Y-27324D01*
X45624Y-27381D01*
X45661Y-27418D01*
X45699Y-27437D01*
X45305Y-27681D02*
X45286Y-27700D01*
X45305Y-27718D01*
X45324Y-27700D01*
X45305Y-27681D01*
X45305Y-27718D01*
X45042Y-27324D02*
X45005Y-27324D01*
X44967Y-27343D01*
X44948Y-27362D01*
X44930Y-27400D01*
X44911Y-27475D01*
X44911Y-27568D01*
X44930Y-27643D01*
X44948Y-27681D01*
X44967Y-27700D01*
X45005Y-27718D01*
X45042Y-27718D01*
X45080Y-27700D01*
X45098Y-27681D01*
X45117Y-27643D01*
X45136Y-27568D01*
X45136Y-27475D01*
X45117Y-27400D01*
X45098Y-27362D01*
X45080Y-27343D01*
X45042Y-27324D01*
X44330Y-27869D02*
X44348Y-27850D01*
X44386Y-27794D01*
X44405Y-27756D01*
X44423Y-27700D01*
X44442Y-27606D01*
X44442Y-27531D01*
X44423Y-27437D01*
X44405Y-27381D01*
X44386Y-27343D01*
X44348Y-27287D01*
X44330Y-27268D01*
X44198Y-27362D02*
X44179Y-27343D01*
X44142Y-27324D01*
X44048Y-27324D01*
X44010Y-27343D01*
X43992Y-27362D01*
X43973Y-27400D01*
X43973Y-27437D01*
X43992Y-27493D01*
X44217Y-27718D01*
X43973Y-27718D01*
X43729Y-27324D02*
X43692Y-27324D01*
X43654Y-27343D01*
X43635Y-27362D01*
X43617Y-27400D01*
X43598Y-27475D01*
X43598Y-27568D01*
X43617Y-27643D01*
X43635Y-27681D01*
X43654Y-27700D01*
X43692Y-27718D01*
X43729Y-27718D01*
X43767Y-27700D01*
X43785Y-27681D01*
X43804Y-27643D01*
X43823Y-27568D01*
X43823Y-27475D01*
X43804Y-27400D01*
X43785Y-27362D01*
X43767Y-27343D01*
X43729Y-27324D01*
X43223Y-27718D02*
X43448Y-27718D01*
X43335Y-27718D02*
X43335Y-27324D01*
X43373Y-27381D01*
X43410Y-27418D01*
X43448Y-27437D01*
X43073Y-27362D02*
X43054Y-27343D01*
X43017Y-27324D01*
X42923Y-27324D01*
X42885Y-27343D01*
X42867Y-27362D01*
X42848Y-27400D01*
X42848Y-27437D01*
X42867Y-27493D01*
X43092Y-27718D01*
X42848Y-27718D01*
X42717Y-27869D02*
X42698Y-27850D01*
X42660Y-27794D01*
X42642Y-27756D01*
X42623Y-27700D01*
X42604Y-27606D01*
X42604Y-27531D01*
X42623Y-27437D01*
X42642Y-27381D01*
X42660Y-27343D01*
X42698Y-27287D01*
X42717Y-27268D01*
G54D12*
X48405Y-32114D02*
X43905Y-32114D01*
X48405Y-35012D02*
X43905Y-35016D01*
X48405Y-35012D02*
X48405Y-32114D01*
X43905Y-35012D02*
X43905Y-32114D01*
X48411Y-33313D02*
X47911Y-33313D01*
X47911Y-33313D02*
X47911Y-33813D01*
X47911Y-33813D02*
X48411Y-33813D01*
X46466Y-32725D02*
X46466Y-33049D01*
X46447Y-33087D01*
X46428Y-33106D01*
X46390Y-33125D01*
X46313Y-33125D01*
X46275Y-33106D01*
X46256Y-33087D01*
X46237Y-33049D01*
X46237Y-32725D01*
X45837Y-33125D02*
X46066Y-33125D01*
X45952Y-33125D02*
X45952Y-32725D01*
X45990Y-32782D01*
X46028Y-32820D01*
X46066Y-32839D01*
X47580Y-33775D02*
X47580Y-34099D01*
X47561Y-34137D01*
X47542Y-34156D01*
X47504Y-34175D01*
X47427Y-34175D01*
X47389Y-34156D01*
X47370Y-34137D01*
X47351Y-34099D01*
X47351Y-33775D01*
X46970Y-34175D02*
X47161Y-34175D01*
X47161Y-33775D01*
X46837Y-34175D02*
X46837Y-33775D01*
X46608Y-34175D01*
X46608Y-33775D01*
X46437Y-33813D02*
X46418Y-33794D01*
X46380Y-33775D01*
X46284Y-33775D01*
X46246Y-33794D01*
X46227Y-33813D01*
X46208Y-33851D01*
X46208Y-33889D01*
X46227Y-33946D01*
X46456Y-34175D01*
X46208Y-34175D01*
X45980Y-33946D02*
X46018Y-33927D01*
X46037Y-33908D01*
X46056Y-33870D01*
X46056Y-33851D01*
X46037Y-33813D01*
X46018Y-33794D01*
X45980Y-33775D01*
X45903Y-33775D01*
X45865Y-33794D01*
X45846Y-33813D01*
X45827Y-33851D01*
X45827Y-33870D01*
X45846Y-33908D01*
X45865Y-33927D01*
X45903Y-33946D01*
X45980Y-33946D01*
X46018Y-33965D01*
X46037Y-33984D01*
X46056Y-34023D01*
X46056Y-34099D01*
X46037Y-34137D01*
X46018Y-34156D01*
X45980Y-34175D01*
X45903Y-34175D01*
X45865Y-34156D01*
X45846Y-34137D01*
X45827Y-34099D01*
X45827Y-34023D01*
X45846Y-33984D01*
X45865Y-33965D01*
X45903Y-33946D01*
X45580Y-33775D02*
X45541Y-33775D01*
X45503Y-33794D01*
X45484Y-33813D01*
X45465Y-33851D01*
X45446Y-33927D01*
X45446Y-34023D01*
X45465Y-34099D01*
X45484Y-34137D01*
X45503Y-34156D01*
X45541Y-34175D01*
X45580Y-34175D01*
X45618Y-34156D01*
X45637Y-34137D01*
X45656Y-34099D01*
X45675Y-34023D01*
X45675Y-33927D01*
X45656Y-33851D01*
X45637Y-33813D01*
X45618Y-33794D01*
X45580Y-33775D01*
X45103Y-33908D02*
X45103Y-34175D01*
X45199Y-33756D02*
X45294Y-34042D01*
X45046Y-34042D01*
X44913Y-34061D02*
X44722Y-34061D01*
X44951Y-34175D02*
X44818Y-33775D01*
X44684Y-34175D01*
M02*
