G04 (created by PCBNEW-RS274X (2011-05-25)-stable) date Fri 25 Jan 2013 04:31:27 PM PST*
G01*
G70*
G90*
%MOIN*%
G04 Gerber Fmt 3.4, Leading zero omitted, Abs format*
%FSLAX34Y34*%
G04 APERTURE LIST*
%ADD10C,0.006000*%
%ADD11C,0.060000*%
%ADD12R,0.060000X0.060000*%
%ADD13R,0.023600X0.078700*%
%ADD14C,0.035000*%
%ADD15C,0.008000*%
%ADD16C,0.012000*%
%ADD17C,0.010000*%
G04 APERTURE END LIST*
G54D10*
G54D11*
X40945Y-29569D03*
X40945Y-30569D03*
X40945Y-31569D03*
X40945Y-32569D03*
X40945Y-33569D03*
X40945Y-34569D03*
X40945Y-35569D03*
X40945Y-36569D03*
G54D12*
X50394Y-36569D03*
G54D11*
X50394Y-35569D03*
X50394Y-34569D03*
X50394Y-33569D03*
X50394Y-32569D03*
X50394Y-31569D03*
X50394Y-30569D03*
X50394Y-29569D03*
G54D12*
X42169Y-30118D03*
G54D11*
X43169Y-30118D03*
X44169Y-30118D03*
X45169Y-30118D03*
X46169Y-30118D03*
X47169Y-30118D03*
X48169Y-30118D03*
X49169Y-30118D03*
G54D12*
X42169Y-37205D03*
G54D11*
X43169Y-37205D03*
X44169Y-37205D03*
X45169Y-37205D03*
X46169Y-37205D03*
X47169Y-37205D03*
X48169Y-37205D03*
X49169Y-37205D03*
G54D13*
X48161Y-35457D03*
X47661Y-35457D03*
X47161Y-35457D03*
X46661Y-35457D03*
X46161Y-35457D03*
X45661Y-35457D03*
X45161Y-35457D03*
X44661Y-35457D03*
X44161Y-35457D03*
X48161Y-31669D03*
X47661Y-31669D03*
X47161Y-31669D03*
X46661Y-31669D03*
X46161Y-31669D03*
X45661Y-31669D03*
X45161Y-31669D03*
X44661Y-31669D03*
X44161Y-31669D03*
G54D14*
X47644Y-33148D03*
X51101Y-38733D03*
X49320Y-36424D03*
X51490Y-27694D03*
X45285Y-33613D03*
X43373Y-31890D03*
X41823Y-31471D03*
X46752Y-36474D03*
X45926Y-33552D03*
X44139Y-36185D03*
X45229Y-36128D03*
X47190Y-33500D03*
X44658Y-36309D03*
X46847Y-33817D03*
X45864Y-32975D03*
X42740Y-31014D03*
X46883Y-32708D03*
X48946Y-30702D03*
X51400Y-31747D03*
X51368Y-35413D03*
X41918Y-27964D03*
X46600Y-29697D03*
X49101Y-34757D03*
X48469Y-37804D03*
X43889Y-33493D03*
X49010Y-33805D03*
X45999Y-28611D03*
G54D15*
X42169Y-30561D02*
X42169Y-36762D01*
X42169Y-30118D02*
X42169Y-30561D01*
X42169Y-37205D02*
X42169Y-36762D01*
X50837Y-36126D02*
X50394Y-36126D01*
X51049Y-35914D02*
X50837Y-36126D01*
X51049Y-29354D02*
X51049Y-35914D01*
X50193Y-28498D02*
X51049Y-29354D01*
X47132Y-28498D02*
X50193Y-28498D01*
X45613Y-30017D02*
X47132Y-28498D01*
X45613Y-30584D02*
X45613Y-30017D01*
X46161Y-31132D02*
X45613Y-30584D01*
X46161Y-31669D02*
X46161Y-31132D01*
X50394Y-36569D02*
X50394Y-36126D01*
X49841Y-29016D02*
X50394Y-29569D01*
X48393Y-29016D02*
X49841Y-29016D01*
X47713Y-29696D02*
X48393Y-29016D01*
X47713Y-30566D02*
X47713Y-29696D01*
X47161Y-31118D02*
X47713Y-30566D01*
X47161Y-31669D02*
X47161Y-31118D01*
X43055Y-37091D02*
X43169Y-37205D01*
X43055Y-31680D02*
X43055Y-37091D01*
X43169Y-31566D02*
X43055Y-31680D01*
X43169Y-30118D02*
X43169Y-31566D01*
X46613Y-36613D02*
X46752Y-36474D01*
X46613Y-37463D02*
X46613Y-36613D01*
X46428Y-37648D02*
X46613Y-37463D01*
X45169Y-37648D02*
X46428Y-37648D01*
X45169Y-37205D02*
X45169Y-37648D01*
X41725Y-31569D02*
X41823Y-31471D01*
X41725Y-37647D02*
X41725Y-31569D01*
X41911Y-37833D02*
X41725Y-37647D01*
X44984Y-37833D02*
X41911Y-37833D01*
X45169Y-37648D02*
X44984Y-37833D01*
X45926Y-34685D02*
X45926Y-33552D01*
X46161Y-34920D02*
X45926Y-34685D01*
X46161Y-35457D02*
X46161Y-34920D01*
X45661Y-36445D02*
X45661Y-35457D01*
X45639Y-36467D02*
X45661Y-36445D01*
X44951Y-36467D02*
X45639Y-36467D01*
X44791Y-36627D02*
X44951Y-36467D01*
X44526Y-36627D02*
X44791Y-36627D01*
X44139Y-36240D02*
X44526Y-36627D01*
X44139Y-36185D02*
X44139Y-36240D01*
X45229Y-36061D02*
X45229Y-36128D01*
X45161Y-35993D02*
X45229Y-36061D01*
X45161Y-35457D02*
X45161Y-35993D01*
X48161Y-34471D02*
X47190Y-33500D01*
X48161Y-35457D02*
X48161Y-34471D01*
X44658Y-35996D02*
X44658Y-36309D01*
X44661Y-35993D02*
X44658Y-35996D01*
X44661Y-35457D02*
X44661Y-35993D01*
X47661Y-34631D02*
X46847Y-33817D01*
X47661Y-35457D02*
X47661Y-34631D01*
X46529Y-34788D02*
X46661Y-34920D01*
X46529Y-33640D02*
X46529Y-34788D01*
X45864Y-32975D02*
X46529Y-33640D01*
X46661Y-35457D02*
X46661Y-34920D01*
X47161Y-35457D02*
X47161Y-35993D01*
X46743Y-35993D02*
X47161Y-35993D01*
X45977Y-36759D02*
X46743Y-35993D01*
X44919Y-36759D02*
X45977Y-36759D01*
X44725Y-36953D02*
X44919Y-36759D01*
X44725Y-37351D02*
X44725Y-36953D01*
X44427Y-37649D02*
X44725Y-37351D01*
X42911Y-37649D02*
X44427Y-37649D01*
X42725Y-37463D02*
X42911Y-37649D01*
X42725Y-31029D02*
X42725Y-37463D01*
X42740Y-31014D02*
X42725Y-31029D01*
X43752Y-36788D02*
X44169Y-37205D01*
X43752Y-34516D02*
X43752Y-36788D01*
X45611Y-32657D02*
X43752Y-34516D01*
X46832Y-32657D02*
X45611Y-32657D01*
X46883Y-32708D02*
X46832Y-32657D01*
X50214Y-32389D02*
X50394Y-32569D01*
X44845Y-32389D02*
X50214Y-32389D01*
X44661Y-32205D02*
X44845Y-32389D01*
X44661Y-31669D02*
X44661Y-32205D01*
X48516Y-31132D02*
X48946Y-30702D01*
X48161Y-31132D02*
X48516Y-31132D01*
X48161Y-31669D02*
X48161Y-31132D01*
X51400Y-35381D02*
X51368Y-35413D01*
X51400Y-31747D02*
X51400Y-35381D01*
X48758Y-32205D02*
X50394Y-30569D01*
X45661Y-32205D02*
X48758Y-32205D01*
X45661Y-31669D02*
X45661Y-32205D01*
X46661Y-29758D02*
X46661Y-31669D01*
X46600Y-29697D02*
X46661Y-29758D01*
X40501Y-29381D02*
X41918Y-27964D01*
X40501Y-32125D02*
X40501Y-29381D01*
X40945Y-32569D02*
X40501Y-32125D01*
X47661Y-31669D02*
X47661Y-31132D01*
X47847Y-31132D02*
X47661Y-31132D01*
X48720Y-30259D02*
X47847Y-31132D01*
X48720Y-29689D02*
X48720Y-30259D01*
X48742Y-29667D02*
X48720Y-29689D01*
X49740Y-29667D02*
X48742Y-29667D01*
X50168Y-30095D02*
X49740Y-29667D01*
X50817Y-30095D02*
X50168Y-30095D01*
X50863Y-30141D02*
X50817Y-30095D01*
X50863Y-32986D02*
X50863Y-30141D01*
X50832Y-33017D02*
X50863Y-32986D01*
X50267Y-33017D02*
X50832Y-33017D01*
X49641Y-33643D02*
X50267Y-33017D01*
X49641Y-37363D02*
X49641Y-33643D01*
X48882Y-38122D02*
X49641Y-37363D01*
X41651Y-38122D02*
X48882Y-38122D01*
X41501Y-37972D02*
X41651Y-38122D01*
X41501Y-35125D02*
X41501Y-37972D01*
X40945Y-34569D02*
X41501Y-35125D01*
X49950Y-36013D02*
X50394Y-35569D01*
X49950Y-36932D02*
X49950Y-36013D01*
X50383Y-37365D02*
X49950Y-36932D01*
X50415Y-37365D02*
X50383Y-37365D01*
X51725Y-36055D02*
X50415Y-37365D01*
X51725Y-29569D02*
X51725Y-36055D01*
X50404Y-28248D02*
X51725Y-29569D01*
X46814Y-28248D02*
X50404Y-28248D01*
X45388Y-29674D02*
X46814Y-28248D01*
X44735Y-29674D02*
X45388Y-29674D01*
X44713Y-29696D02*
X44735Y-29674D01*
X44713Y-30684D02*
X44713Y-29696D01*
X45161Y-31132D02*
X44713Y-30684D01*
X45161Y-31669D02*
X45161Y-31132D01*
X48725Y-37548D02*
X48469Y-37804D01*
X48725Y-35133D02*
X48725Y-37548D01*
X49101Y-34757D02*
X48725Y-35133D01*
G54D16*
X44161Y-33221D02*
X43889Y-33493D01*
X44161Y-32225D02*
X44161Y-33221D01*
X44161Y-31751D02*
X44161Y-32225D01*
X48450Y-36924D02*
X48169Y-37205D01*
X48450Y-34365D02*
X48450Y-36924D01*
X49010Y-33805D02*
X48450Y-34365D01*
X44161Y-31751D02*
X44161Y-31669D01*
X44598Y-28611D02*
X45999Y-28611D01*
X43705Y-29504D02*
X44598Y-28611D01*
X43705Y-30656D02*
X43705Y-29504D01*
X44161Y-31112D02*
X43705Y-30656D01*
X44161Y-31669D02*
X44161Y-31112D01*
G54D10*
G36*
X51644Y-39045D02*
X51152Y-39045D01*
X51152Y-38515D01*
X51152Y-36997D01*
X50910Y-36997D01*
X50943Y-36919D01*
X50943Y-36820D01*
X50943Y-36220D01*
X50905Y-36128D01*
X50835Y-36058D01*
X50744Y-36020D01*
X50719Y-36020D01*
X50859Y-35880D01*
X50943Y-35678D01*
X50943Y-35460D01*
X50859Y-35258D01*
X50705Y-35104D01*
X50620Y-35069D01*
X50705Y-35034D01*
X50859Y-34880D01*
X50943Y-34678D01*
X50943Y-34460D01*
X50859Y-34258D01*
X50705Y-34104D01*
X50620Y-34069D01*
X50705Y-34034D01*
X50859Y-33880D01*
X50943Y-33678D01*
X50943Y-33460D01*
X50859Y-33258D01*
X50705Y-33104D01*
X50620Y-33069D01*
X50705Y-33034D01*
X50859Y-32880D01*
X50943Y-32678D01*
X50943Y-32460D01*
X50859Y-32258D01*
X50705Y-32104D01*
X50620Y-32069D01*
X50705Y-32034D01*
X50859Y-31880D01*
X50943Y-31678D01*
X50943Y-31460D01*
X50859Y-31258D01*
X50705Y-31104D01*
X50620Y-31069D01*
X50705Y-31034D01*
X50859Y-30880D01*
X50943Y-30678D01*
X50943Y-30460D01*
X50859Y-30258D01*
X50705Y-30104D01*
X50620Y-30069D01*
X50705Y-30034D01*
X50859Y-29880D01*
X50943Y-29678D01*
X50943Y-29460D01*
X50859Y-29258D01*
X50705Y-29104D01*
X50503Y-29020D01*
X50285Y-29020D01*
X50083Y-29104D01*
X49929Y-29258D01*
X49845Y-29460D01*
X49845Y-29678D01*
X49929Y-29880D01*
X50083Y-30034D01*
X50167Y-30069D01*
X50083Y-30104D01*
X49929Y-30258D01*
X49845Y-30460D01*
X49845Y-30678D01*
X49929Y-30880D01*
X50083Y-31034D01*
X50167Y-31069D01*
X50083Y-31104D01*
X49929Y-31258D01*
X49845Y-31460D01*
X49845Y-31678D01*
X49929Y-31880D01*
X50083Y-32034D01*
X50167Y-32069D01*
X50083Y-32104D01*
X49929Y-32258D01*
X49845Y-32460D01*
X49845Y-32678D01*
X49929Y-32880D01*
X50083Y-33034D01*
X50167Y-33069D01*
X50083Y-33104D01*
X49929Y-33258D01*
X49845Y-33460D01*
X49845Y-33678D01*
X49929Y-33880D01*
X50083Y-34034D01*
X50167Y-34069D01*
X50083Y-34104D01*
X49929Y-34258D01*
X49845Y-34460D01*
X49845Y-34678D01*
X49929Y-34880D01*
X50083Y-35034D01*
X50167Y-35069D01*
X50083Y-35104D01*
X49929Y-35258D01*
X49845Y-35460D01*
X49845Y-35678D01*
X49929Y-35880D01*
X50069Y-36020D01*
X50045Y-36020D01*
X49953Y-36058D01*
X49883Y-36128D01*
X49845Y-36219D01*
X49845Y-36318D01*
X49845Y-36918D01*
X49877Y-36997D01*
X49712Y-36997D01*
X49712Y-30197D01*
X49701Y-29984D01*
X49641Y-29837D01*
X49547Y-29810D01*
X49477Y-29880D01*
X49477Y-29740D01*
X49450Y-29646D01*
X49248Y-29575D01*
X49035Y-29586D01*
X48888Y-29646D01*
X48861Y-29740D01*
X49169Y-30047D01*
X49477Y-29740D01*
X49477Y-29880D01*
X49240Y-30118D01*
X49547Y-30426D01*
X49641Y-30399D01*
X49712Y-30197D01*
X49712Y-36997D01*
X49670Y-36997D01*
X49641Y-36924D01*
X49547Y-36897D01*
X49477Y-36967D01*
X49477Y-36827D01*
X49477Y-30496D01*
X49169Y-30189D01*
X49098Y-30259D01*
X49098Y-30118D01*
X48791Y-29810D01*
X48697Y-29837D01*
X48673Y-29902D01*
X48634Y-29807D01*
X48480Y-29653D01*
X48278Y-29569D01*
X48060Y-29569D01*
X47858Y-29653D01*
X47704Y-29807D01*
X47669Y-29891D01*
X47634Y-29807D01*
X47480Y-29653D01*
X47278Y-29569D01*
X47060Y-29569D01*
X46858Y-29653D01*
X46704Y-29807D01*
X46669Y-29891D01*
X46634Y-29807D01*
X46480Y-29653D01*
X46278Y-29569D01*
X46060Y-29569D01*
X45858Y-29653D01*
X45704Y-29807D01*
X45669Y-29891D01*
X45634Y-29807D01*
X45480Y-29653D01*
X45278Y-29569D01*
X45060Y-29569D01*
X44858Y-29653D01*
X44704Y-29807D01*
X44669Y-29891D01*
X44634Y-29807D01*
X44480Y-29653D01*
X44278Y-29569D01*
X44060Y-29569D01*
X43858Y-29653D01*
X43704Y-29807D01*
X43669Y-29891D01*
X43634Y-29807D01*
X43480Y-29653D01*
X43278Y-29569D01*
X43060Y-29569D01*
X42858Y-29653D01*
X42718Y-29793D01*
X42718Y-29769D01*
X42680Y-29677D01*
X42610Y-29607D01*
X42519Y-29569D01*
X42420Y-29569D01*
X41820Y-29569D01*
X41728Y-29607D01*
X41658Y-29677D01*
X41620Y-29768D01*
X41620Y-29867D01*
X41620Y-30467D01*
X41658Y-30559D01*
X41728Y-30629D01*
X41819Y-30667D01*
X41918Y-30667D01*
X42518Y-30667D01*
X42610Y-30629D01*
X42680Y-30559D01*
X42718Y-30468D01*
X42718Y-30443D01*
X42858Y-30583D01*
X43060Y-30667D01*
X43278Y-30667D01*
X43480Y-30583D01*
X43634Y-30429D01*
X43669Y-30344D01*
X43704Y-30429D01*
X43858Y-30583D01*
X44060Y-30667D01*
X44278Y-30667D01*
X44480Y-30583D01*
X44634Y-30429D01*
X44669Y-30344D01*
X44704Y-30429D01*
X44858Y-30583D01*
X45060Y-30667D01*
X45278Y-30667D01*
X45480Y-30583D01*
X45634Y-30429D01*
X45669Y-30344D01*
X45704Y-30429D01*
X45858Y-30583D01*
X46060Y-30667D01*
X46278Y-30667D01*
X46480Y-30583D01*
X46634Y-30429D01*
X46669Y-30344D01*
X46704Y-30429D01*
X46858Y-30583D01*
X47060Y-30667D01*
X47278Y-30667D01*
X47480Y-30583D01*
X47634Y-30429D01*
X47669Y-30344D01*
X47704Y-30429D01*
X47858Y-30583D01*
X48060Y-30667D01*
X48278Y-30667D01*
X48480Y-30583D01*
X48634Y-30429D01*
X48671Y-30337D01*
X48697Y-30399D01*
X48791Y-30426D01*
X49098Y-30118D01*
X49098Y-30259D01*
X48861Y-30496D01*
X48888Y-30590D01*
X49090Y-30661D01*
X49303Y-30650D01*
X49450Y-30590D01*
X49477Y-30496D01*
X49477Y-36827D01*
X49450Y-36733D01*
X49248Y-36662D01*
X49035Y-36673D01*
X48888Y-36733D01*
X48861Y-36827D01*
X49169Y-37134D01*
X49477Y-36827D01*
X49477Y-36967D01*
X49240Y-37205D01*
X49547Y-37513D01*
X49635Y-37487D01*
X49635Y-38515D01*
X51152Y-38515D01*
X51152Y-39045D01*
X49477Y-39045D01*
X49477Y-37583D01*
X49169Y-37276D01*
X49098Y-37346D01*
X49098Y-37205D01*
X48791Y-36897D01*
X48697Y-36924D01*
X48673Y-36989D01*
X48634Y-36894D01*
X48528Y-36788D01*
X48528Y-35900D01*
X48528Y-35801D01*
X48528Y-35015D01*
X48528Y-32112D01*
X48528Y-32013D01*
X48528Y-31227D01*
X48490Y-31135D01*
X48420Y-31065D01*
X48329Y-31027D01*
X48230Y-31027D01*
X47994Y-31027D01*
X47911Y-31061D01*
X47829Y-31027D01*
X47730Y-31027D01*
X47494Y-31027D01*
X47411Y-31061D01*
X47329Y-31027D01*
X47230Y-31027D01*
X46994Y-31027D01*
X46911Y-31061D01*
X46829Y-31027D01*
X46730Y-31027D01*
X46494Y-31027D01*
X46411Y-31061D01*
X46329Y-31027D01*
X46230Y-31027D01*
X45994Y-31027D01*
X45911Y-31061D01*
X45829Y-31027D01*
X45730Y-31027D01*
X45494Y-31027D01*
X45411Y-31061D01*
X45329Y-31027D01*
X45230Y-31027D01*
X44994Y-31027D01*
X44911Y-31061D01*
X44829Y-31027D01*
X44730Y-31027D01*
X44494Y-31027D01*
X44411Y-31061D01*
X44329Y-31027D01*
X44230Y-31027D01*
X43994Y-31027D01*
X43902Y-31065D01*
X43832Y-31135D01*
X43794Y-31226D01*
X43794Y-31325D01*
X43794Y-32111D01*
X43832Y-32203D01*
X43902Y-32273D01*
X43993Y-32311D01*
X44092Y-32311D01*
X44328Y-32311D01*
X44410Y-32276D01*
X44493Y-32311D01*
X44592Y-32311D01*
X44828Y-32311D01*
X44910Y-32276D01*
X44993Y-32311D01*
X45092Y-32311D01*
X45328Y-32311D01*
X45410Y-32276D01*
X45493Y-32311D01*
X45592Y-32311D01*
X45828Y-32311D01*
X45910Y-32276D01*
X45993Y-32311D01*
X46092Y-32311D01*
X46328Y-32311D01*
X46410Y-32276D01*
X46493Y-32311D01*
X46592Y-32311D01*
X46828Y-32311D01*
X46910Y-32276D01*
X46993Y-32311D01*
X47092Y-32311D01*
X47328Y-32311D01*
X47410Y-32276D01*
X47493Y-32311D01*
X47592Y-32311D01*
X47828Y-32311D01*
X47910Y-32276D01*
X47993Y-32311D01*
X48092Y-32311D01*
X48328Y-32311D01*
X48420Y-32273D01*
X48490Y-32203D01*
X48528Y-32112D01*
X48528Y-35015D01*
X48490Y-34923D01*
X48420Y-34853D01*
X48329Y-34815D01*
X48230Y-34815D01*
X47994Y-34815D01*
X47911Y-34849D01*
X47829Y-34815D01*
X47730Y-34815D01*
X47494Y-34815D01*
X47411Y-34849D01*
X47329Y-34815D01*
X47230Y-34815D01*
X46994Y-34815D01*
X46911Y-34849D01*
X46829Y-34815D01*
X46730Y-34815D01*
X46494Y-34815D01*
X46411Y-34849D01*
X46329Y-34815D01*
X46230Y-34815D01*
X45994Y-34815D01*
X45911Y-34849D01*
X45829Y-34815D01*
X45730Y-34815D01*
X45494Y-34815D01*
X45411Y-34849D01*
X45329Y-34815D01*
X45230Y-34815D01*
X44994Y-34815D01*
X44911Y-34849D01*
X44829Y-34815D01*
X44730Y-34815D01*
X44494Y-34815D01*
X44411Y-34849D01*
X44328Y-34815D01*
X44273Y-34814D01*
X44211Y-34876D01*
X44211Y-35357D01*
X44211Y-35407D01*
X44211Y-35507D01*
X44211Y-35557D01*
X44211Y-36038D01*
X44273Y-36100D01*
X44328Y-36099D01*
X44410Y-36064D01*
X44493Y-36099D01*
X44592Y-36099D01*
X44828Y-36099D01*
X44910Y-36064D01*
X44993Y-36099D01*
X45092Y-36099D01*
X45328Y-36099D01*
X45410Y-36064D01*
X45493Y-36099D01*
X45592Y-36099D01*
X45828Y-36099D01*
X45910Y-36064D01*
X45993Y-36099D01*
X46092Y-36099D01*
X46328Y-36099D01*
X46410Y-36064D01*
X46493Y-36099D01*
X46592Y-36099D01*
X46828Y-36099D01*
X46910Y-36064D01*
X46993Y-36099D01*
X47092Y-36099D01*
X47328Y-36099D01*
X47410Y-36064D01*
X47493Y-36099D01*
X47592Y-36099D01*
X47828Y-36099D01*
X47910Y-36064D01*
X47993Y-36099D01*
X48092Y-36099D01*
X48328Y-36099D01*
X48420Y-36061D01*
X48490Y-35991D01*
X48528Y-35900D01*
X48528Y-36788D01*
X48480Y-36740D01*
X48278Y-36656D01*
X48060Y-36656D01*
X47858Y-36740D01*
X47704Y-36894D01*
X47669Y-36978D01*
X47634Y-36894D01*
X47480Y-36740D01*
X47278Y-36656D01*
X47060Y-36656D01*
X46858Y-36740D01*
X46704Y-36894D01*
X46669Y-36978D01*
X46634Y-36894D01*
X46480Y-36740D01*
X46278Y-36656D01*
X46060Y-36656D01*
X45858Y-36740D01*
X45704Y-36894D01*
X45669Y-36978D01*
X45634Y-36894D01*
X45480Y-36740D01*
X45278Y-36656D01*
X45060Y-36656D01*
X44858Y-36740D01*
X44704Y-36894D01*
X44669Y-36978D01*
X44634Y-36894D01*
X44480Y-36740D01*
X44278Y-36656D01*
X44111Y-36656D01*
X44111Y-36038D01*
X44111Y-35507D01*
X44111Y-35407D01*
X44111Y-34876D01*
X44049Y-34814D01*
X43994Y-34815D01*
X43902Y-34853D01*
X43832Y-34923D01*
X43794Y-35014D01*
X43794Y-35113D01*
X43793Y-35345D01*
X43855Y-35407D01*
X44111Y-35407D01*
X44111Y-35507D01*
X43855Y-35507D01*
X43793Y-35569D01*
X43794Y-35801D01*
X43794Y-35900D01*
X43832Y-35991D01*
X43902Y-36061D01*
X43994Y-36099D01*
X44049Y-36100D01*
X44111Y-36038D01*
X44111Y-36656D01*
X44060Y-36656D01*
X43858Y-36740D01*
X43704Y-36894D01*
X43669Y-36978D01*
X43634Y-36894D01*
X43480Y-36740D01*
X43278Y-36656D01*
X43060Y-36656D01*
X42858Y-36740D01*
X42718Y-36880D01*
X42718Y-36856D01*
X42680Y-36764D01*
X42610Y-36694D01*
X42519Y-36656D01*
X42420Y-36656D01*
X41820Y-36656D01*
X41728Y-36694D01*
X41658Y-36764D01*
X41620Y-36855D01*
X41620Y-36954D01*
X41620Y-37554D01*
X41658Y-37646D01*
X41728Y-37716D01*
X41819Y-37754D01*
X41918Y-37754D01*
X42518Y-37754D01*
X42610Y-37716D01*
X42680Y-37646D01*
X42718Y-37555D01*
X42718Y-37530D01*
X42858Y-37670D01*
X43060Y-37754D01*
X43278Y-37754D01*
X43480Y-37670D01*
X43634Y-37516D01*
X43669Y-37431D01*
X43704Y-37516D01*
X43858Y-37670D01*
X44060Y-37754D01*
X44278Y-37754D01*
X44480Y-37670D01*
X44634Y-37516D01*
X44669Y-37431D01*
X44704Y-37516D01*
X44858Y-37670D01*
X45060Y-37754D01*
X45278Y-37754D01*
X45480Y-37670D01*
X45634Y-37516D01*
X45669Y-37431D01*
X45704Y-37516D01*
X45858Y-37670D01*
X46060Y-37754D01*
X46278Y-37754D01*
X46480Y-37670D01*
X46634Y-37516D01*
X46669Y-37431D01*
X46704Y-37516D01*
X46858Y-37670D01*
X47060Y-37754D01*
X47278Y-37754D01*
X47480Y-37670D01*
X47634Y-37516D01*
X47669Y-37431D01*
X47704Y-37516D01*
X47858Y-37670D01*
X48060Y-37754D01*
X48278Y-37754D01*
X48480Y-37670D01*
X48634Y-37516D01*
X48671Y-37424D01*
X48697Y-37486D01*
X48791Y-37513D01*
X49098Y-37205D01*
X49098Y-37346D01*
X48861Y-37583D01*
X48888Y-37677D01*
X49090Y-37748D01*
X49303Y-37737D01*
X49450Y-37677D01*
X49477Y-37583D01*
X49477Y-39045D01*
X41494Y-39045D01*
X41494Y-36678D01*
X41494Y-36460D01*
X41410Y-36258D01*
X41256Y-36104D01*
X41171Y-36069D01*
X41256Y-36034D01*
X41410Y-35880D01*
X41494Y-35678D01*
X41494Y-35460D01*
X41410Y-35258D01*
X41256Y-35104D01*
X41171Y-35069D01*
X41256Y-35034D01*
X41410Y-34880D01*
X41494Y-34678D01*
X41494Y-34460D01*
X41410Y-34258D01*
X41256Y-34104D01*
X41171Y-34069D01*
X41256Y-34034D01*
X41410Y-33880D01*
X41494Y-33678D01*
X41494Y-33460D01*
X41410Y-33258D01*
X41256Y-33104D01*
X41171Y-33069D01*
X41256Y-33034D01*
X41410Y-32880D01*
X41494Y-32678D01*
X41494Y-32460D01*
X41410Y-32258D01*
X41256Y-32104D01*
X41171Y-32069D01*
X41256Y-32034D01*
X41410Y-31880D01*
X41494Y-31678D01*
X41494Y-31460D01*
X41410Y-31258D01*
X41256Y-31104D01*
X41171Y-31069D01*
X41256Y-31034D01*
X41410Y-30880D01*
X41494Y-30678D01*
X41494Y-30460D01*
X41410Y-30258D01*
X41256Y-30104D01*
X41171Y-30069D01*
X41256Y-30034D01*
X41410Y-29880D01*
X41494Y-29678D01*
X41494Y-29460D01*
X41410Y-29258D01*
X41256Y-29104D01*
X41054Y-29020D01*
X40836Y-29020D01*
X40634Y-29104D01*
X40480Y-29258D01*
X40396Y-29460D01*
X40396Y-29678D01*
X40480Y-29880D01*
X40634Y-30034D01*
X40718Y-30069D01*
X40634Y-30104D01*
X40480Y-30258D01*
X40396Y-30460D01*
X40396Y-30678D01*
X40480Y-30880D01*
X40634Y-31034D01*
X40718Y-31069D01*
X40634Y-31104D01*
X40480Y-31258D01*
X40396Y-31460D01*
X40396Y-31678D01*
X40480Y-31880D01*
X40634Y-32034D01*
X40718Y-32069D01*
X40634Y-32104D01*
X40480Y-32258D01*
X40396Y-32460D01*
X40396Y-32678D01*
X40480Y-32880D01*
X40634Y-33034D01*
X40718Y-33069D01*
X40634Y-33104D01*
X40480Y-33258D01*
X40396Y-33460D01*
X40396Y-33678D01*
X40480Y-33880D01*
X40634Y-34034D01*
X40718Y-34069D01*
X40634Y-34104D01*
X40480Y-34258D01*
X40396Y-34460D01*
X40396Y-34678D01*
X40480Y-34880D01*
X40634Y-35034D01*
X40718Y-35069D01*
X40634Y-35104D01*
X40480Y-35258D01*
X40396Y-35460D01*
X40396Y-35678D01*
X40480Y-35880D01*
X40634Y-36034D01*
X40718Y-36069D01*
X40634Y-36104D01*
X40480Y-36258D01*
X40396Y-36460D01*
X40396Y-36678D01*
X40480Y-36880D01*
X40634Y-37034D01*
X40836Y-37118D01*
X41054Y-37118D01*
X41256Y-37034D01*
X41410Y-36880D01*
X41494Y-36678D01*
X41494Y-39045D01*
X39695Y-39045D01*
X39695Y-27097D01*
X51644Y-27097D01*
X51644Y-39045D01*
X51644Y-39045D01*
G37*
G54D17*
X51644Y-39045D02*
X51152Y-39045D01*
X51152Y-38515D01*
X51152Y-36997D01*
X50910Y-36997D01*
X50943Y-36919D01*
X50943Y-36820D01*
X50943Y-36220D01*
X50905Y-36128D01*
X50835Y-36058D01*
X50744Y-36020D01*
X50719Y-36020D01*
X50859Y-35880D01*
X50943Y-35678D01*
X50943Y-35460D01*
X50859Y-35258D01*
X50705Y-35104D01*
X50620Y-35069D01*
X50705Y-35034D01*
X50859Y-34880D01*
X50943Y-34678D01*
X50943Y-34460D01*
X50859Y-34258D01*
X50705Y-34104D01*
X50620Y-34069D01*
X50705Y-34034D01*
X50859Y-33880D01*
X50943Y-33678D01*
X50943Y-33460D01*
X50859Y-33258D01*
X50705Y-33104D01*
X50620Y-33069D01*
X50705Y-33034D01*
X50859Y-32880D01*
X50943Y-32678D01*
X50943Y-32460D01*
X50859Y-32258D01*
X50705Y-32104D01*
X50620Y-32069D01*
X50705Y-32034D01*
X50859Y-31880D01*
X50943Y-31678D01*
X50943Y-31460D01*
X50859Y-31258D01*
X50705Y-31104D01*
X50620Y-31069D01*
X50705Y-31034D01*
X50859Y-30880D01*
X50943Y-30678D01*
X50943Y-30460D01*
X50859Y-30258D01*
X50705Y-30104D01*
X50620Y-30069D01*
X50705Y-30034D01*
X50859Y-29880D01*
X50943Y-29678D01*
X50943Y-29460D01*
X50859Y-29258D01*
X50705Y-29104D01*
X50503Y-29020D01*
X50285Y-29020D01*
X50083Y-29104D01*
X49929Y-29258D01*
X49845Y-29460D01*
X49845Y-29678D01*
X49929Y-29880D01*
X50083Y-30034D01*
X50167Y-30069D01*
X50083Y-30104D01*
X49929Y-30258D01*
X49845Y-30460D01*
X49845Y-30678D01*
X49929Y-30880D01*
X50083Y-31034D01*
X50167Y-31069D01*
X50083Y-31104D01*
X49929Y-31258D01*
X49845Y-31460D01*
X49845Y-31678D01*
X49929Y-31880D01*
X50083Y-32034D01*
X50167Y-32069D01*
X50083Y-32104D01*
X49929Y-32258D01*
X49845Y-32460D01*
X49845Y-32678D01*
X49929Y-32880D01*
X50083Y-33034D01*
X50167Y-33069D01*
X50083Y-33104D01*
X49929Y-33258D01*
X49845Y-33460D01*
X49845Y-33678D01*
X49929Y-33880D01*
X50083Y-34034D01*
X50167Y-34069D01*
X50083Y-34104D01*
X49929Y-34258D01*
X49845Y-34460D01*
X49845Y-34678D01*
X49929Y-34880D01*
X50083Y-35034D01*
X50167Y-35069D01*
X50083Y-35104D01*
X49929Y-35258D01*
X49845Y-35460D01*
X49845Y-35678D01*
X49929Y-35880D01*
X50069Y-36020D01*
X50045Y-36020D01*
X49953Y-36058D01*
X49883Y-36128D01*
X49845Y-36219D01*
X49845Y-36318D01*
X49845Y-36918D01*
X49877Y-36997D01*
X49712Y-36997D01*
X49712Y-30197D01*
X49701Y-29984D01*
X49641Y-29837D01*
X49547Y-29810D01*
X49477Y-29880D01*
X49477Y-29740D01*
X49450Y-29646D01*
X49248Y-29575D01*
X49035Y-29586D01*
X48888Y-29646D01*
X48861Y-29740D01*
X49169Y-30047D01*
X49477Y-29740D01*
X49477Y-29880D01*
X49240Y-30118D01*
X49547Y-30426D01*
X49641Y-30399D01*
X49712Y-30197D01*
X49712Y-36997D01*
X49670Y-36997D01*
X49641Y-36924D01*
X49547Y-36897D01*
X49477Y-36967D01*
X49477Y-36827D01*
X49477Y-30496D01*
X49169Y-30189D01*
X49098Y-30259D01*
X49098Y-30118D01*
X48791Y-29810D01*
X48697Y-29837D01*
X48673Y-29902D01*
X48634Y-29807D01*
X48480Y-29653D01*
X48278Y-29569D01*
X48060Y-29569D01*
X47858Y-29653D01*
X47704Y-29807D01*
X47669Y-29891D01*
X47634Y-29807D01*
X47480Y-29653D01*
X47278Y-29569D01*
X47060Y-29569D01*
X46858Y-29653D01*
X46704Y-29807D01*
X46669Y-29891D01*
X46634Y-29807D01*
X46480Y-29653D01*
X46278Y-29569D01*
X46060Y-29569D01*
X45858Y-29653D01*
X45704Y-29807D01*
X45669Y-29891D01*
X45634Y-29807D01*
X45480Y-29653D01*
X45278Y-29569D01*
X45060Y-29569D01*
X44858Y-29653D01*
X44704Y-29807D01*
X44669Y-29891D01*
X44634Y-29807D01*
X44480Y-29653D01*
X44278Y-29569D01*
X44060Y-29569D01*
X43858Y-29653D01*
X43704Y-29807D01*
X43669Y-29891D01*
X43634Y-29807D01*
X43480Y-29653D01*
X43278Y-29569D01*
X43060Y-29569D01*
X42858Y-29653D01*
X42718Y-29793D01*
X42718Y-29769D01*
X42680Y-29677D01*
X42610Y-29607D01*
X42519Y-29569D01*
X42420Y-29569D01*
X41820Y-29569D01*
X41728Y-29607D01*
X41658Y-29677D01*
X41620Y-29768D01*
X41620Y-29867D01*
X41620Y-30467D01*
X41658Y-30559D01*
X41728Y-30629D01*
X41819Y-30667D01*
X41918Y-30667D01*
X42518Y-30667D01*
X42610Y-30629D01*
X42680Y-30559D01*
X42718Y-30468D01*
X42718Y-30443D01*
X42858Y-30583D01*
X43060Y-30667D01*
X43278Y-30667D01*
X43480Y-30583D01*
X43634Y-30429D01*
X43669Y-30344D01*
X43704Y-30429D01*
X43858Y-30583D01*
X44060Y-30667D01*
X44278Y-30667D01*
X44480Y-30583D01*
X44634Y-30429D01*
X44669Y-30344D01*
X44704Y-30429D01*
X44858Y-30583D01*
X45060Y-30667D01*
X45278Y-30667D01*
X45480Y-30583D01*
X45634Y-30429D01*
X45669Y-30344D01*
X45704Y-30429D01*
X45858Y-30583D01*
X46060Y-30667D01*
X46278Y-30667D01*
X46480Y-30583D01*
X46634Y-30429D01*
X46669Y-30344D01*
X46704Y-30429D01*
X46858Y-30583D01*
X47060Y-30667D01*
X47278Y-30667D01*
X47480Y-30583D01*
X47634Y-30429D01*
X47669Y-30344D01*
X47704Y-30429D01*
X47858Y-30583D01*
X48060Y-30667D01*
X48278Y-30667D01*
X48480Y-30583D01*
X48634Y-30429D01*
X48671Y-30337D01*
X48697Y-30399D01*
X48791Y-30426D01*
X49098Y-30118D01*
X49098Y-30259D01*
X48861Y-30496D01*
X48888Y-30590D01*
X49090Y-30661D01*
X49303Y-30650D01*
X49450Y-30590D01*
X49477Y-30496D01*
X49477Y-36827D01*
X49450Y-36733D01*
X49248Y-36662D01*
X49035Y-36673D01*
X48888Y-36733D01*
X48861Y-36827D01*
X49169Y-37134D01*
X49477Y-36827D01*
X49477Y-36967D01*
X49240Y-37205D01*
X49547Y-37513D01*
X49635Y-37487D01*
X49635Y-38515D01*
X51152Y-38515D01*
X51152Y-39045D01*
X49477Y-39045D01*
X49477Y-37583D01*
X49169Y-37276D01*
X49098Y-37346D01*
X49098Y-37205D01*
X48791Y-36897D01*
X48697Y-36924D01*
X48673Y-36989D01*
X48634Y-36894D01*
X48528Y-36788D01*
X48528Y-35900D01*
X48528Y-35801D01*
X48528Y-35015D01*
X48528Y-32112D01*
X48528Y-32013D01*
X48528Y-31227D01*
X48490Y-31135D01*
X48420Y-31065D01*
X48329Y-31027D01*
X48230Y-31027D01*
X47994Y-31027D01*
X47911Y-31061D01*
X47829Y-31027D01*
X47730Y-31027D01*
X47494Y-31027D01*
X47411Y-31061D01*
X47329Y-31027D01*
X47230Y-31027D01*
X46994Y-31027D01*
X46911Y-31061D01*
X46829Y-31027D01*
X46730Y-31027D01*
X46494Y-31027D01*
X46411Y-31061D01*
X46329Y-31027D01*
X46230Y-31027D01*
X45994Y-31027D01*
X45911Y-31061D01*
X45829Y-31027D01*
X45730Y-31027D01*
X45494Y-31027D01*
X45411Y-31061D01*
X45329Y-31027D01*
X45230Y-31027D01*
X44994Y-31027D01*
X44911Y-31061D01*
X44829Y-31027D01*
X44730Y-31027D01*
X44494Y-31027D01*
X44411Y-31061D01*
X44329Y-31027D01*
X44230Y-31027D01*
X43994Y-31027D01*
X43902Y-31065D01*
X43832Y-31135D01*
X43794Y-31226D01*
X43794Y-31325D01*
X43794Y-32111D01*
X43832Y-32203D01*
X43902Y-32273D01*
X43993Y-32311D01*
X44092Y-32311D01*
X44328Y-32311D01*
X44410Y-32276D01*
X44493Y-32311D01*
X44592Y-32311D01*
X44828Y-32311D01*
X44910Y-32276D01*
X44993Y-32311D01*
X45092Y-32311D01*
X45328Y-32311D01*
X45410Y-32276D01*
X45493Y-32311D01*
X45592Y-32311D01*
X45828Y-32311D01*
X45910Y-32276D01*
X45993Y-32311D01*
X46092Y-32311D01*
X46328Y-32311D01*
X46410Y-32276D01*
X46493Y-32311D01*
X46592Y-32311D01*
X46828Y-32311D01*
X46910Y-32276D01*
X46993Y-32311D01*
X47092Y-32311D01*
X47328Y-32311D01*
X47410Y-32276D01*
X47493Y-32311D01*
X47592Y-32311D01*
X47828Y-32311D01*
X47910Y-32276D01*
X47993Y-32311D01*
X48092Y-32311D01*
X48328Y-32311D01*
X48420Y-32273D01*
X48490Y-32203D01*
X48528Y-32112D01*
X48528Y-35015D01*
X48490Y-34923D01*
X48420Y-34853D01*
X48329Y-34815D01*
X48230Y-34815D01*
X47994Y-34815D01*
X47911Y-34849D01*
X47829Y-34815D01*
X47730Y-34815D01*
X47494Y-34815D01*
X47411Y-34849D01*
X47329Y-34815D01*
X47230Y-34815D01*
X46994Y-34815D01*
X46911Y-34849D01*
X46829Y-34815D01*
X46730Y-34815D01*
X46494Y-34815D01*
X46411Y-34849D01*
X46329Y-34815D01*
X46230Y-34815D01*
X45994Y-34815D01*
X45911Y-34849D01*
X45829Y-34815D01*
X45730Y-34815D01*
X45494Y-34815D01*
X45411Y-34849D01*
X45329Y-34815D01*
X45230Y-34815D01*
X44994Y-34815D01*
X44911Y-34849D01*
X44829Y-34815D01*
X44730Y-34815D01*
X44494Y-34815D01*
X44411Y-34849D01*
X44328Y-34815D01*
X44273Y-34814D01*
X44211Y-34876D01*
X44211Y-35357D01*
X44211Y-35407D01*
X44211Y-35507D01*
X44211Y-35557D01*
X44211Y-36038D01*
X44273Y-36100D01*
X44328Y-36099D01*
X44410Y-36064D01*
X44493Y-36099D01*
X44592Y-36099D01*
X44828Y-36099D01*
X44910Y-36064D01*
X44993Y-36099D01*
X45092Y-36099D01*
X45328Y-36099D01*
X45410Y-36064D01*
X45493Y-36099D01*
X45592Y-36099D01*
X45828Y-36099D01*
X45910Y-36064D01*
X45993Y-36099D01*
X46092Y-36099D01*
X46328Y-36099D01*
X46410Y-36064D01*
X46493Y-36099D01*
X46592Y-36099D01*
X46828Y-36099D01*
X46910Y-36064D01*
X46993Y-36099D01*
X47092Y-36099D01*
X47328Y-36099D01*
X47410Y-36064D01*
X47493Y-36099D01*
X47592Y-36099D01*
X47828Y-36099D01*
X47910Y-36064D01*
X47993Y-36099D01*
X48092Y-36099D01*
X48328Y-36099D01*
X48420Y-36061D01*
X48490Y-35991D01*
X48528Y-35900D01*
X48528Y-36788D01*
X48480Y-36740D01*
X48278Y-36656D01*
X48060Y-36656D01*
X47858Y-36740D01*
X47704Y-36894D01*
X47669Y-36978D01*
X47634Y-36894D01*
X47480Y-36740D01*
X47278Y-36656D01*
X47060Y-36656D01*
X46858Y-36740D01*
X46704Y-36894D01*
X46669Y-36978D01*
X46634Y-36894D01*
X46480Y-36740D01*
X46278Y-36656D01*
X46060Y-36656D01*
X45858Y-36740D01*
X45704Y-36894D01*
X45669Y-36978D01*
X45634Y-36894D01*
X45480Y-36740D01*
X45278Y-36656D01*
X45060Y-36656D01*
X44858Y-36740D01*
X44704Y-36894D01*
X44669Y-36978D01*
X44634Y-36894D01*
X44480Y-36740D01*
X44278Y-36656D01*
X44111Y-36656D01*
X44111Y-36038D01*
X44111Y-35507D01*
X44111Y-35407D01*
X44111Y-34876D01*
X44049Y-34814D01*
X43994Y-34815D01*
X43902Y-34853D01*
X43832Y-34923D01*
X43794Y-35014D01*
X43794Y-35113D01*
X43793Y-35345D01*
X43855Y-35407D01*
X44111Y-35407D01*
X44111Y-35507D01*
X43855Y-35507D01*
X43793Y-35569D01*
X43794Y-35801D01*
X43794Y-35900D01*
X43832Y-35991D01*
X43902Y-36061D01*
X43994Y-36099D01*
X44049Y-36100D01*
X44111Y-36038D01*
X44111Y-36656D01*
X44060Y-36656D01*
X43858Y-36740D01*
X43704Y-36894D01*
X43669Y-36978D01*
X43634Y-36894D01*
X43480Y-36740D01*
X43278Y-36656D01*
X43060Y-36656D01*
X42858Y-36740D01*
X42718Y-36880D01*
X42718Y-36856D01*
X42680Y-36764D01*
X42610Y-36694D01*
X42519Y-36656D01*
X42420Y-36656D01*
X41820Y-36656D01*
X41728Y-36694D01*
X41658Y-36764D01*
X41620Y-36855D01*
X41620Y-36954D01*
X41620Y-37554D01*
X41658Y-37646D01*
X41728Y-37716D01*
X41819Y-37754D01*
X41918Y-37754D01*
X42518Y-37754D01*
X42610Y-37716D01*
X42680Y-37646D01*
X42718Y-37555D01*
X42718Y-37530D01*
X42858Y-37670D01*
X43060Y-37754D01*
X43278Y-37754D01*
X43480Y-37670D01*
X43634Y-37516D01*
X43669Y-37431D01*
X43704Y-37516D01*
X43858Y-37670D01*
X44060Y-37754D01*
X44278Y-37754D01*
X44480Y-37670D01*
X44634Y-37516D01*
X44669Y-37431D01*
X44704Y-37516D01*
X44858Y-37670D01*
X45060Y-37754D01*
X45278Y-37754D01*
X45480Y-37670D01*
X45634Y-37516D01*
X45669Y-37431D01*
X45704Y-37516D01*
X45858Y-37670D01*
X46060Y-37754D01*
X46278Y-37754D01*
X46480Y-37670D01*
X46634Y-37516D01*
X46669Y-37431D01*
X46704Y-37516D01*
X46858Y-37670D01*
X47060Y-37754D01*
X47278Y-37754D01*
X47480Y-37670D01*
X47634Y-37516D01*
X47669Y-37431D01*
X47704Y-37516D01*
X47858Y-37670D01*
X48060Y-37754D01*
X48278Y-37754D01*
X48480Y-37670D01*
X48634Y-37516D01*
X48671Y-37424D01*
X48697Y-37486D01*
X48791Y-37513D01*
X49098Y-37205D01*
X49098Y-37346D01*
X48861Y-37583D01*
X48888Y-37677D01*
X49090Y-37748D01*
X49303Y-37737D01*
X49450Y-37677D01*
X49477Y-37583D01*
X49477Y-39045D01*
X41494Y-39045D01*
X41494Y-36678D01*
X41494Y-36460D01*
X41410Y-36258D01*
X41256Y-36104D01*
X41171Y-36069D01*
X41256Y-36034D01*
X41410Y-35880D01*
X41494Y-35678D01*
X41494Y-35460D01*
X41410Y-35258D01*
X41256Y-35104D01*
X41171Y-35069D01*
X41256Y-35034D01*
X41410Y-34880D01*
X41494Y-34678D01*
X41494Y-34460D01*
X41410Y-34258D01*
X41256Y-34104D01*
X41171Y-34069D01*
X41256Y-34034D01*
X41410Y-33880D01*
X41494Y-33678D01*
X41494Y-33460D01*
X41410Y-33258D01*
X41256Y-33104D01*
X41171Y-33069D01*
X41256Y-33034D01*
X41410Y-32880D01*
X41494Y-32678D01*
X41494Y-32460D01*
X41410Y-32258D01*
X41256Y-32104D01*
X41171Y-32069D01*
X41256Y-32034D01*
X41410Y-31880D01*
X41494Y-31678D01*
X41494Y-31460D01*
X41410Y-31258D01*
X41256Y-31104D01*
X41171Y-31069D01*
X41256Y-31034D01*
X41410Y-30880D01*
X41494Y-30678D01*
X41494Y-30460D01*
X41410Y-30258D01*
X41256Y-30104D01*
X41171Y-30069D01*
X41256Y-30034D01*
X41410Y-29880D01*
X41494Y-29678D01*
X41494Y-29460D01*
X41410Y-29258D01*
X41256Y-29104D01*
X41054Y-29020D01*
X40836Y-29020D01*
X40634Y-29104D01*
X40480Y-29258D01*
X40396Y-29460D01*
X40396Y-29678D01*
X40480Y-29880D01*
X40634Y-30034D01*
X40718Y-30069D01*
X40634Y-30104D01*
X40480Y-30258D01*
X40396Y-30460D01*
X40396Y-30678D01*
X40480Y-30880D01*
X40634Y-31034D01*
X40718Y-31069D01*
X40634Y-31104D01*
X40480Y-31258D01*
X40396Y-31460D01*
X40396Y-31678D01*
X40480Y-31880D01*
X40634Y-32034D01*
X40718Y-32069D01*
X40634Y-32104D01*
X40480Y-32258D01*
X40396Y-32460D01*
X40396Y-32678D01*
X40480Y-32880D01*
X40634Y-33034D01*
X40718Y-33069D01*
X40634Y-33104D01*
X40480Y-33258D01*
X40396Y-33460D01*
X40396Y-33678D01*
X40480Y-33880D01*
X40634Y-34034D01*
X40718Y-34069D01*
X40634Y-34104D01*
X40480Y-34258D01*
X40396Y-34460D01*
X40396Y-34678D01*
X40480Y-34880D01*
X40634Y-35034D01*
X40718Y-35069D01*
X40634Y-35104D01*
X40480Y-35258D01*
X40396Y-35460D01*
X40396Y-35678D01*
X40480Y-35880D01*
X40634Y-36034D01*
X40718Y-36069D01*
X40634Y-36104D01*
X40480Y-36258D01*
X40396Y-36460D01*
X40396Y-36678D01*
X40480Y-36880D01*
X40634Y-37034D01*
X40836Y-37118D01*
X41054Y-37118D01*
X41256Y-37034D01*
X41410Y-36880D01*
X41494Y-36678D01*
X41494Y-39045D01*
X39695Y-39045D01*
X39695Y-27097D01*
X51644Y-27097D01*
X51644Y-39045D01*
M02*
