G04 (created by PCBNEW-RS274X (2011-05-25)-stable) date Fri 25 Jan 2013 03:29:58 PM PST*
G01*
G70*
G90*
%MOIN*%
G04 Gerber Fmt 3.4, Leading zero omitted, Abs format*
%FSLAX34Y34*%
G04 APERTURE LIST*
%ADD10C,0.006000*%
%ADD11C,0.019700*%
%ADD12C,0.005000*%
%ADD13C,0.005900*%
G04 APERTURE END LIST*
G54D10*
G54D11*
X44986Y-27145D02*
X45436Y-27145D01*
X45211Y-27932D02*
X45211Y-27145D01*
X45848Y-27145D02*
X45998Y-27145D01*
X46073Y-27183D01*
X46148Y-27257D01*
X46186Y-27407D01*
X46186Y-27670D01*
X46148Y-27820D01*
X46073Y-27895D01*
X45998Y-27932D01*
X45848Y-27932D01*
X45773Y-27895D01*
X45698Y-27820D01*
X45661Y-27670D01*
X45661Y-27407D01*
X45698Y-27257D01*
X45773Y-27183D01*
X45848Y-27145D01*
X46522Y-27932D02*
X46522Y-27145D01*
X46822Y-27145D01*
X46897Y-27183D01*
X46935Y-27220D01*
X46972Y-27295D01*
X46972Y-27407D01*
X46935Y-27482D01*
X46897Y-27520D01*
X46822Y-27557D01*
X46522Y-27557D01*
G54D10*
X42913Y-32520D02*
X42205Y-32520D01*
X42205Y-32520D02*
X42205Y-31260D01*
X42205Y-31260D02*
X42913Y-31260D01*
X42913Y-32520D02*
X42913Y-31260D01*
G54D12*
X50337Y-27309D02*
X51237Y-27309D01*
X51237Y-27309D02*
X51237Y-27809D01*
X51237Y-27809D02*
X50337Y-27809D01*
X50337Y-27809D02*
X50337Y-27309D01*
X40793Y-38934D02*
X40793Y-38034D01*
X40793Y-38034D02*
X41293Y-38034D01*
X41293Y-38034D02*
X41293Y-38934D01*
X41293Y-38934D02*
X40793Y-38934D01*
X42267Y-34632D02*
X43167Y-34632D01*
X43167Y-34632D02*
X43167Y-35132D01*
X43167Y-35132D02*
X42267Y-35132D01*
X42267Y-35132D02*
X42267Y-34632D01*
X42267Y-33411D02*
X43167Y-33411D01*
X43167Y-33411D02*
X43167Y-33911D01*
X43167Y-33911D02*
X42267Y-33911D01*
X42267Y-33911D02*
X42267Y-33411D01*
X51589Y-35731D02*
X51589Y-36631D01*
X51589Y-36631D02*
X51089Y-36631D01*
X51089Y-36631D02*
X51089Y-35731D01*
X51089Y-35731D02*
X51589Y-35731D01*
X40479Y-28156D02*
X41379Y-28156D01*
X41379Y-28156D02*
X41379Y-28656D01*
X41379Y-28656D02*
X40479Y-28656D01*
X40479Y-28656D02*
X40479Y-28156D01*
X51589Y-32660D02*
X51589Y-33560D01*
X51589Y-33560D02*
X51089Y-33560D01*
X51089Y-33560D02*
X51089Y-32660D01*
X51089Y-32660D02*
X51589Y-32660D01*
X51589Y-34196D02*
X51589Y-35096D01*
X51589Y-35096D02*
X51089Y-35096D01*
X51089Y-35096D02*
X51089Y-34196D01*
X51089Y-34196D02*
X51589Y-34196D01*
X40452Y-27195D02*
X41352Y-27195D01*
X41352Y-27195D02*
X41352Y-27695D01*
X41352Y-27695D02*
X40452Y-27695D01*
X40452Y-27695D02*
X40452Y-27195D01*
G54D10*
X48437Y-34555D02*
X47987Y-34555D01*
X48437Y-32375D02*
X47997Y-32375D01*
X48437Y-34555D02*
X48437Y-32375D01*
X47557Y-35025D02*
X47557Y-35455D01*
X45347Y-35035D02*
X45347Y-35455D01*
X45337Y-35455D02*
X47557Y-35465D01*
X45357Y-31485D02*
X47527Y-31475D01*
X44927Y-32175D02*
X44927Y-35005D01*
X47537Y-31485D02*
X47537Y-31895D01*
X45177Y-31935D02*
X47957Y-31935D01*
X47977Y-35015D02*
X47977Y-31975D01*
X44927Y-35015D02*
X47927Y-35015D01*
X44477Y-32345D02*
X44477Y-34565D01*
X44477Y-34565D02*
X44927Y-34565D01*
X44931Y-32165D02*
X45161Y-31935D01*
X44479Y-32345D02*
X44931Y-32345D01*
X45357Y-31935D02*
X45357Y-31483D01*
X45527Y-32339D02*
X45523Y-32375D01*
X45512Y-32410D01*
X45495Y-32443D01*
X45472Y-32471D01*
X45444Y-32494D01*
X45411Y-32512D01*
X45376Y-32523D01*
X45340Y-32526D01*
X45304Y-32523D01*
X45269Y-32513D01*
X45237Y-32496D01*
X45208Y-32473D01*
X45184Y-32445D01*
X45167Y-32413D01*
X45156Y-32378D01*
X45152Y-32341D01*
X45155Y-32306D01*
X45165Y-32270D01*
X45181Y-32238D01*
X45204Y-32209D01*
X45232Y-32185D01*
X45264Y-32167D01*
X45299Y-32156D01*
X45336Y-32152D01*
X45371Y-32154D01*
X45406Y-32164D01*
X45439Y-32181D01*
X45468Y-32203D01*
X45492Y-32231D01*
X45510Y-32263D01*
X45522Y-32298D01*
X45526Y-32334D01*
X45527Y-32339D01*
G54D12*
X49423Y-35259D02*
X49423Y-36159D01*
X49423Y-36159D02*
X48923Y-36159D01*
X48923Y-36159D02*
X48923Y-35259D01*
X48923Y-35259D02*
X49423Y-35259D01*
X49944Y-38648D02*
X50844Y-38648D01*
X50844Y-38648D02*
X50844Y-39148D01*
X50844Y-39148D02*
X49944Y-39148D01*
X49944Y-39148D02*
X49944Y-38648D01*
G54D10*
X49569Y-29618D02*
X49569Y-30618D01*
X41769Y-29618D02*
X41769Y-30618D01*
X41769Y-29618D02*
X49569Y-29618D01*
X49569Y-30618D02*
X41769Y-30618D01*
X49569Y-36705D02*
X49569Y-37705D01*
X41769Y-36705D02*
X41769Y-37705D01*
X41769Y-36705D02*
X49569Y-36705D01*
X49569Y-37705D02*
X41769Y-37705D01*
G54D13*
X42379Y-30796D02*
X42576Y-31091D01*
X42576Y-30796D02*
X42379Y-31091D01*
X42843Y-31091D02*
X42674Y-31091D01*
X42758Y-31091D02*
X42758Y-30796D01*
X42730Y-30838D01*
X42702Y-30866D01*
X42674Y-30880D01*
X50738Y-28269D02*
X50639Y-28128D01*
X50569Y-28269D02*
X50569Y-27974D01*
X50682Y-27974D01*
X50710Y-27988D01*
X50724Y-28002D01*
X50738Y-28030D01*
X50738Y-28072D01*
X50724Y-28100D01*
X50710Y-28114D01*
X50682Y-28128D01*
X50569Y-28128D01*
X50878Y-28269D02*
X50934Y-28269D01*
X50963Y-28255D01*
X50977Y-28241D01*
X51005Y-28199D01*
X51019Y-28142D01*
X51019Y-28030D01*
X51005Y-28002D01*
X50991Y-27988D01*
X50963Y-27974D01*
X50906Y-27974D01*
X50878Y-27988D01*
X50864Y-28002D01*
X50850Y-28030D01*
X50850Y-28100D01*
X50864Y-28128D01*
X50878Y-28142D01*
X50906Y-28157D01*
X50963Y-28157D01*
X50991Y-28142D01*
X51005Y-28128D01*
X51019Y-28100D01*
X40994Y-37914D02*
X40895Y-37773D01*
X40825Y-37914D02*
X40825Y-37619D01*
X40938Y-37619D01*
X40966Y-37633D01*
X40980Y-37647D01*
X40994Y-37675D01*
X40994Y-37717D01*
X40980Y-37745D01*
X40966Y-37759D01*
X40938Y-37773D01*
X40825Y-37773D01*
X41162Y-37745D02*
X41134Y-37731D01*
X41120Y-37717D01*
X41106Y-37689D01*
X41106Y-37675D01*
X41120Y-37647D01*
X41134Y-37633D01*
X41162Y-37619D01*
X41219Y-37619D01*
X41247Y-37633D01*
X41261Y-37647D01*
X41275Y-37675D01*
X41275Y-37689D01*
X41261Y-37717D01*
X41247Y-37731D01*
X41219Y-37745D01*
X41162Y-37745D01*
X41134Y-37759D01*
X41120Y-37773D01*
X41106Y-37802D01*
X41106Y-37858D01*
X41120Y-37886D01*
X41134Y-37900D01*
X41162Y-37914D01*
X41219Y-37914D01*
X41247Y-37900D01*
X41261Y-37886D01*
X41275Y-37858D01*
X41275Y-37802D01*
X41261Y-37773D01*
X41247Y-37759D01*
X41219Y-37745D01*
X41762Y-35001D02*
X41663Y-34860D01*
X41593Y-35001D02*
X41593Y-34706D01*
X41706Y-34706D01*
X41734Y-34720D01*
X41748Y-34734D01*
X41762Y-34762D01*
X41762Y-34804D01*
X41748Y-34832D01*
X41734Y-34846D01*
X41706Y-34860D01*
X41593Y-34860D01*
X41860Y-34706D02*
X42057Y-34706D01*
X41930Y-35001D01*
X41762Y-33780D02*
X41663Y-33639D01*
X41593Y-33780D02*
X41593Y-33485D01*
X41706Y-33485D01*
X41734Y-33499D01*
X41748Y-33513D01*
X41762Y-33541D01*
X41762Y-33583D01*
X41748Y-33611D01*
X41734Y-33625D01*
X41706Y-33639D01*
X41593Y-33639D01*
X42015Y-33485D02*
X41958Y-33485D01*
X41930Y-33499D01*
X41916Y-33513D01*
X41888Y-33555D01*
X41874Y-33611D01*
X41874Y-33724D01*
X41888Y-33752D01*
X41902Y-33766D01*
X41930Y-33780D01*
X41987Y-33780D01*
X42015Y-33766D01*
X42029Y-33752D01*
X42043Y-33724D01*
X42043Y-33653D01*
X42029Y-33625D01*
X42015Y-33611D01*
X41987Y-33597D01*
X41930Y-33597D01*
X41902Y-33611D01*
X41888Y-33625D01*
X41874Y-33653D01*
X51329Y-35591D02*
X51230Y-35450D01*
X51160Y-35591D02*
X51160Y-35296D01*
X51273Y-35296D01*
X51301Y-35310D01*
X51315Y-35324D01*
X51329Y-35352D01*
X51329Y-35394D01*
X51315Y-35422D01*
X51301Y-35436D01*
X51273Y-35450D01*
X51160Y-35450D01*
X51596Y-35296D02*
X51455Y-35296D01*
X51441Y-35436D01*
X51455Y-35422D01*
X51483Y-35408D01*
X51554Y-35408D01*
X51582Y-35422D01*
X51596Y-35436D01*
X51610Y-35464D01*
X51610Y-35535D01*
X51596Y-35563D01*
X51582Y-35577D01*
X51554Y-35591D01*
X51483Y-35591D01*
X51455Y-35577D01*
X51441Y-35563D01*
X39967Y-27548D02*
X39868Y-27407D01*
X39798Y-27548D02*
X39798Y-27253D01*
X39911Y-27253D01*
X39939Y-27267D01*
X39953Y-27281D01*
X39967Y-27309D01*
X39967Y-27351D01*
X39953Y-27379D01*
X39939Y-27393D01*
X39911Y-27407D01*
X39798Y-27407D01*
X40220Y-27351D02*
X40220Y-27548D01*
X40149Y-27239D02*
X40079Y-27450D01*
X40262Y-27450D01*
X51290Y-32540D02*
X51191Y-32399D01*
X51121Y-32540D02*
X51121Y-32245D01*
X51234Y-32245D01*
X51262Y-32259D01*
X51276Y-32273D01*
X51290Y-32301D01*
X51290Y-32343D01*
X51276Y-32371D01*
X51262Y-32385D01*
X51234Y-32399D01*
X51121Y-32399D01*
X51388Y-32245D02*
X51571Y-32245D01*
X51472Y-32357D01*
X51515Y-32357D01*
X51543Y-32371D01*
X51557Y-32385D01*
X51571Y-32413D01*
X51571Y-32484D01*
X51557Y-32512D01*
X51543Y-32526D01*
X51515Y-32540D01*
X51430Y-32540D01*
X51402Y-32526D01*
X51388Y-32512D01*
X51290Y-34076D02*
X51191Y-33935D01*
X51121Y-34076D02*
X51121Y-33781D01*
X51234Y-33781D01*
X51262Y-33795D01*
X51276Y-33809D01*
X51290Y-33837D01*
X51290Y-33879D01*
X51276Y-33907D01*
X51262Y-33921D01*
X51234Y-33935D01*
X51121Y-33935D01*
X51402Y-33809D02*
X51416Y-33795D01*
X51444Y-33781D01*
X51515Y-33781D01*
X51543Y-33795D01*
X51557Y-33809D01*
X51571Y-33837D01*
X51571Y-33865D01*
X51557Y-33907D01*
X51388Y-34076D01*
X51571Y-34076D01*
X39967Y-28493D02*
X39868Y-28352D01*
X39798Y-28493D02*
X39798Y-28198D01*
X39911Y-28198D01*
X39939Y-28212D01*
X39953Y-28226D01*
X39967Y-28254D01*
X39967Y-28296D01*
X39953Y-28324D01*
X39939Y-28338D01*
X39911Y-28352D01*
X39798Y-28352D01*
X40248Y-28493D02*
X40079Y-28493D01*
X40163Y-28493D02*
X40163Y-28198D01*
X40135Y-28240D01*
X40107Y-28268D01*
X40079Y-28282D01*
X44397Y-31812D02*
X44397Y-31517D01*
X44706Y-31784D02*
X44692Y-31798D01*
X44650Y-31812D01*
X44622Y-31812D01*
X44579Y-31798D01*
X44551Y-31770D01*
X44537Y-31742D01*
X44523Y-31685D01*
X44523Y-31643D01*
X44537Y-31587D01*
X44551Y-31559D01*
X44579Y-31531D01*
X44622Y-31517D01*
X44650Y-31517D01*
X44692Y-31531D01*
X44706Y-31545D01*
X44987Y-31812D02*
X44818Y-31812D01*
X44902Y-31812D02*
X44902Y-31517D01*
X44874Y-31559D01*
X44846Y-31587D01*
X44818Y-31601D01*
X49124Y-35013D02*
X49110Y-35027D01*
X49068Y-35041D01*
X49040Y-35041D01*
X48997Y-35027D01*
X48969Y-34999D01*
X48955Y-34971D01*
X48941Y-34914D01*
X48941Y-34872D01*
X48955Y-34816D01*
X48969Y-34788D01*
X48997Y-34760D01*
X49040Y-34746D01*
X49068Y-34746D01*
X49110Y-34760D01*
X49124Y-34774D01*
X49236Y-34774D02*
X49250Y-34760D01*
X49278Y-34746D01*
X49349Y-34746D01*
X49377Y-34760D01*
X49391Y-34774D01*
X49405Y-34802D01*
X49405Y-34830D01*
X49391Y-34872D01*
X49222Y-35041D01*
X49405Y-35041D01*
X49479Y-38989D02*
X49465Y-39003D01*
X49423Y-39017D01*
X49395Y-39017D01*
X49352Y-39003D01*
X49324Y-38975D01*
X49310Y-38947D01*
X49296Y-38890D01*
X49296Y-38848D01*
X49310Y-38792D01*
X49324Y-38764D01*
X49352Y-38736D01*
X49395Y-38722D01*
X49423Y-38722D01*
X49465Y-38736D01*
X49479Y-38750D01*
X49760Y-39017D02*
X49591Y-39017D01*
X49675Y-39017D02*
X49675Y-38722D01*
X49647Y-38764D01*
X49619Y-38792D01*
X49591Y-38806D01*
X42841Y-29363D02*
X42841Y-29068D01*
X42954Y-29068D01*
X42982Y-29082D01*
X42996Y-29096D01*
X43010Y-29124D01*
X43010Y-29166D01*
X42996Y-29194D01*
X42982Y-29208D01*
X42954Y-29222D01*
X42841Y-29222D01*
X43291Y-29363D02*
X43122Y-29363D01*
X43206Y-29363D02*
X43206Y-29068D01*
X43178Y-29110D01*
X43150Y-29138D01*
X43122Y-29152D01*
X42813Y-38245D02*
X42813Y-37950D01*
X42926Y-37950D01*
X42954Y-37964D01*
X42968Y-37978D01*
X42982Y-38006D01*
X42982Y-38048D01*
X42968Y-38076D01*
X42954Y-38090D01*
X42926Y-38104D01*
X42813Y-38104D01*
X43094Y-37978D02*
X43108Y-37964D01*
X43136Y-37950D01*
X43207Y-37950D01*
X43235Y-37964D01*
X43249Y-37978D01*
X43263Y-38006D01*
X43263Y-38034D01*
X43249Y-38076D01*
X43080Y-38245D01*
X43263Y-38245D01*
M02*
