M48
;DRILL file {PCBnew (2011-05-25)-stable} date Tue 02 Apr 2013 03:30:11 PM PDT
;FORMAT={-:-/ absolute / inch / decimal}
FMAT,2
INCH,TZ
T1C0.025
T2C0.040
%
G90
G05
M72
T1
X4.352Y3.413
X4.354Y3.322
X4.354Y3.173
X4.359Y3.263
X4.373Y3.792
X4.413Y3.077
X4.509Y3.273
X4.542Y3.389
X4.548Y3.343
X4.610Y3.290
X4.665Y3.289
X4.699Y3.321
X4.727Y3.660
X4.737Y3.294
X4.840Y3.099
X4.874Y3.288
X4.876Y3.360
X4.909Y3.317
X5.004Y3.507
X5.057Y3.767
X5.151Y3.071
T2
X4.095Y2.957
X4.095Y3.057
X4.095Y3.157
X4.095Y3.257
X4.095Y3.357
X4.095Y3.457
X4.095Y3.557
X4.095Y3.657
X4.217Y3.012
X4.217Y3.721
X4.317Y3.012
X4.317Y3.721
X4.417Y3.012
X4.417Y3.721
X4.517Y3.012
X4.517Y3.721
X4.617Y3.012
X4.617Y3.721
X4.717Y3.012
X4.717Y3.721
X4.817Y3.012
X4.817Y3.721
X4.917Y3.012
X4.917Y3.721
X5.039Y2.957
X5.039Y3.057
X5.039Y3.157
X5.039Y3.257
X5.039Y3.357
X5.039Y3.457
X5.039Y3.557
X5.039Y3.657
T0
M30
