M48
;DRILL file {PCBnew (2011-05-25)-stable} date Thu 13 Sep 2012 05:18:58 PM PDT
;FORMAT={-:-/ absolute / inch / decimal}
FMAT,2
INCH,TZ
T1C0.025
T2C0.040
%
G90
G05
M72
T1
X3.997Y3.030
X4.224Y3.634
X4.289Y3.121
X4.388Y3.262
X4.452Y3.148
X4.498Y3.148
X4.547Y3.285
X4.579Y3.427
X4.594Y3.270
X4.624Y3.427
X4.662Y2.958
X4.665Y3.405
X4.686Y3.089
X4.690Y3.621
X4.921Y3.319
X4.989Y3.721
X5.093Y3.407
T2
X4.095Y2.957
X4.095Y3.057
X4.095Y3.157
X4.095Y3.257
X4.095Y3.357
X4.095Y3.457
X4.095Y3.557
X4.095Y3.657
X4.217Y3.012
X4.217Y3.721
X4.317Y3.012
X4.317Y3.721
X4.417Y3.012
X4.417Y3.721
X4.517Y3.012
X4.517Y3.721
X4.617Y3.012
X4.617Y3.721
X4.717Y3.012
X4.717Y3.721
X4.817Y3.012
X4.817Y3.721
X4.917Y3.012
X4.917Y3.721
X5.039Y2.957
X5.039Y3.057
X5.039Y3.157
X5.039Y3.257
X5.039Y3.357
X5.039Y3.457
X5.039Y3.557
X5.039Y3.657
T0
M30
