M72
M48
T1F00S00C0.0350
T2F00S00C0.0420
T3F00S00C0.0280
%
T01
X00155Y0028
X011
Y0038
Y0048
Y0058
Y0068
Y0078
Y0088
Y0098
X0072Y0036
X0062
X0052
X00155Y0038
Y0048
Y0058
Y0068
Y0078
Y0088
Y0098
T02
X0028Y00275
X0038Y00275
X0048Y00275
X0058
X0068
X0078
X0088
X0098
Y0095
X0088
X0078
X0068
X0058
X0048
X0038
X0028
T03
X00704Y00084
X00784
X00864
X0098Y001
X01195Y00132
X01152Y00532
X01024Y00676
X00965Y00724
X00912Y0066
X00896Y00596
X0088Y00462
X00704Y00671
X0064Y00692
X00576Y00745
X0056Y00628
X00523Y0058
X006
X00336Y00628
X00384Y00692
X00397Y0078
X00376Y00836
X0024Y00708
X0032Y0043
X0044Y00388
X0048Y01044
X00528Y01087
X00624Y00998
X00864Y00868
X0096
X00048Y01028
X00096Y01188
Y00532
Y00404
M30
