%FSLAX23Y23*%
%MOIN*%
G70*
G01*
G75*
%ADD10R,0.030X0.030*%
%ADD11O,0.059X0.018*%
%ADD12R,0.059X0.018*%
%ADD13R,0.018X0.059*%
%ADD14C,0.032*%
%ADD15C,0.015*%
%ADD16C,0.016*%
%ADD17C,0.025*%
%ADD18C,0.008*%
%ADD19R,0.050X0.050*%
%ADD20C,0.050*%
%ADD21C,0.055*%
%ADD22C,0.062*%
%ADD23R,0.062X0.062*%
%ADD24R,0.022X0.079*%
%ADD25O,0.022X0.079*%
%ADD26R,0.060X0.060*%
%ADD27C,0.020*%
%ADD28R,0.038X0.038*%
%ADD29O,0.067X0.026*%
%ADD30R,0.067X0.026*%
%ADD31R,0.026X0.067*%
%ADD32R,0.058X0.058*%
%ADD33C,0.058*%
%ADD34C,0.063*%
%ADD35C,0.070*%
%ADD36R,0.070X0.070*%
%ADD37R,0.030X0.087*%
%ADD38O,0.030X0.087*%
%ADD39R,0.068X0.068*%
%ADD40C,0.010*%
D18*
X9640Y7521D02*
Y7561D01*
X9660D01*
X9666Y7554D01*
Y7541D01*
X9660Y7534D01*
X9640D01*
X9653D02*
X9666Y7521D01*
X9686D02*
X9700D01*
X9706Y7527D01*
Y7541D01*
X9700Y7547D01*
X9686D01*
X9680Y7541D01*
Y7527D01*
X9686Y7521D01*
X9720Y7561D02*
Y7521D01*
X9740D01*
X9746Y7527D01*
Y7534D01*
Y7541D01*
X9740Y7547D01*
X9720D01*
X9780Y7521D02*
X9766D01*
X9760Y7527D01*
Y7541D01*
X9766Y7547D01*
X9780D01*
X9786Y7541D01*
Y7534D01*
X9760D01*
X9800Y7547D02*
Y7521D01*
Y7534D01*
X9806Y7541D01*
X9813Y7547D01*
X9820D01*
X9846Y7554D02*
Y7547D01*
X9840D01*
X9853D01*
X9846D01*
Y7527D01*
X9853Y7521D01*
X9913Y7561D02*
Y7521D01*
X9933D01*
X9940Y7527D01*
Y7534D01*
X9933Y7541D01*
X9913D01*
X9933D01*
X9940Y7547D01*
Y7554D01*
X9933Y7561D01*
X9913D01*
X9960Y7547D02*
X9973D01*
X9980Y7541D01*
Y7521D01*
X9960D01*
X9953Y7527D01*
X9960Y7534D01*
X9980D01*
X9993Y7521D02*
X10006D01*
X10000D01*
Y7547D01*
X9993D01*
X10026Y7521D02*
X10040D01*
X10033D01*
Y7561D01*
X10026D01*
X10080Y7521D02*
X10066D01*
X10060Y7527D01*
Y7541D01*
X10066Y7547D01*
X10080D01*
X10086Y7541D01*
Y7534D01*
X10060D01*
X10100Y7547D02*
Y7527D01*
X10106Y7521D01*
X10126D01*
Y7514D01*
X10120Y7507D01*
X10113D01*
X10126Y7521D02*
Y7547D01*
X10206Y7521D02*
X10179D01*
X10206Y7547D01*
Y7554D01*
X10199Y7561D01*
X10186D01*
X10179Y7554D01*
X10219D02*
X10226Y7561D01*
X10239D01*
X10246Y7554D01*
Y7527D01*
X10239Y7521D01*
X10226D01*
X10219Y7527D01*
Y7554D01*
X10259D02*
X10266Y7561D01*
X10279D01*
X10286Y7554D01*
Y7527D01*
X10279Y7521D01*
X10266D01*
X10259Y7527D01*
Y7554D01*
X10319Y7521D02*
Y7561D01*
X10299Y7541D01*
X10326D01*
D40*
X9875Y8731D02*
Y8671D01*
X9915D01*
X9975Y8731D02*
X9935D01*
Y8671D01*
X9975D01*
X9935Y8701D02*
X9955D01*
X9995Y8731D02*
Y8671D01*
X10025D01*
X10035Y8681D01*
Y8721D01*
X10025Y8731D01*
X9995D01*
X10115Y8671D02*
Y8731D01*
X10145D01*
X10155Y8721D01*
Y8701D01*
X10145Y8691D01*
X10115D01*
X10185Y8711D02*
X10205D01*
X10215Y8701D01*
Y8671D01*
X10185D01*
X10175Y8681D01*
X10185Y8691D01*
X10215D01*
X10235Y8671D02*
Y8711D01*
X10265D01*
X10275Y8701D01*
Y8671D01*
X10325D02*
X10305D01*
X10295Y8681D01*
Y8701D01*
X10305Y8711D01*
X10325D01*
X10335Y8701D01*
Y8691D01*
X10295D01*
X10355Y8671D02*
X10374D01*
X10364D01*
Y8731D01*
X10355D01*
X10464Y8711D02*
X10484Y8671D01*
X10504Y8711D01*
X10564Y8671D02*
X10524D01*
X10564Y8711D01*
Y8721D01*
X10554Y8731D01*
X10534D01*
X10524Y8721D01*
X10584Y8671D02*
Y8681D01*
X10594D01*
Y8671D01*
X10584D01*
X10634D02*
X10654D01*
X10644D01*
Y8731D01*
X10634Y8721D01*
M02*
