%FSLAX23Y23*%
%MOIN*%
G70*
G01*
G75*
%ADD10R,0.030X0.030*%
%ADD11O,0.059X0.018*%
%ADD12R,0.059X0.018*%
%ADD13R,0.018X0.059*%
%ADD14C,0.032*%
%ADD15C,0.015*%
%ADD16C,0.016*%
%ADD17C,0.025*%
%ADD18C,0.008*%
%ADD19R,0.050X0.050*%
%ADD20C,0.050*%
%ADD21C,0.055*%
%ADD22C,0.062*%
%ADD23R,0.062X0.062*%
D10*
X9925Y8061D02*
D03*
X9870D02*
D03*
X10595Y7981D02*
D03*
X10650D02*
D03*
X10595Y8081D02*
D03*
X10650D02*
D03*
X9925Y8361D02*
D03*
X9870D02*
D03*
X10595Y8281D02*
D03*
X10650D02*
D03*
X9925Y8261D02*
D03*
X9870D02*
D03*
X9925Y7861D02*
D03*
X9870D02*
D03*
X9750Y7646D02*
D03*
Y7701D02*
D03*
X10785Y8601D02*
D03*
X10730D02*
D03*
D11*
X10090Y8281D02*
D03*
D12*
Y8249D02*
D03*
Y8218D02*
D03*
Y8186D02*
D03*
Y8155D02*
D03*
Y8123D02*
D03*
Y8092D02*
D03*
Y8060D02*
D03*
X10420D02*
D03*
Y8092D02*
D03*
Y8123D02*
D03*
Y8155D02*
D03*
Y8186D02*
D03*
Y8218D02*
D03*
Y8249D02*
D03*
Y8281D02*
D03*
D13*
X10145Y8005D02*
D03*
X10176D02*
D03*
X10208D02*
D03*
X10239D02*
D03*
X10271D02*
D03*
X10302D02*
D03*
X10334D02*
D03*
X10365D02*
D03*
Y8336D02*
D03*
X10334D02*
D03*
X10302D02*
D03*
X10271D02*
D03*
X10239D02*
D03*
X10208D02*
D03*
X10176D02*
D03*
X10145D02*
D03*
D14*
X10793Y7601D02*
X10825Y7633D01*
X10610Y7601D02*
X10793D01*
X10510Y8193D02*
X10542Y8161D01*
X10769Y8561D02*
X10785Y8577D01*
X10720Y8561D02*
X10769D01*
X10610Y8451D02*
X10720Y8561D01*
X10510Y8451D02*
Y8609D01*
X10542Y8641D01*
X10814D01*
X10830Y8625D01*
Y8273D02*
Y8625D01*
X10789Y8232D02*
X10830Y8273D01*
X10709Y8232D02*
X10789D01*
X10654Y8177D02*
X10709Y8232D01*
X10269Y8121D02*
X10346D01*
X10254Y8136D02*
X10269Y8121D01*
X10254Y8136D02*
Y8145D01*
X10141Y8193D02*
X10158Y8176D01*
X9742Y7931D02*
X9950D01*
X9726Y7915D02*
X9742Y7931D01*
X9726Y7905D02*
Y7915D01*
X10494Y7585D02*
X10594D01*
X10610Y7601D01*
D15*
X10420Y8186D02*
X10430D01*
Y8193D01*
X10510D01*
X10078Y8117D02*
Y8123D01*
X10374Y8092D02*
X10420D01*
X10374Y8093D02*
X10378Y8097D01*
X10354Y8121D02*
X10378Y8097D01*
X10346Y8121D02*
X10354D01*
X10346D02*
X10386Y8161D01*
X10414D01*
Y8155D02*
Y8161D01*
Y8155D02*
X10420D01*
X10222Y8177D02*
X10254Y8145D01*
X10174Y8177D02*
X10222D01*
X10110Y8193D02*
X10141D01*
X10110Y8186D02*
Y8193D01*
X10090Y8186D02*
X10110D01*
X10014Y8193D02*
X10046Y8161D01*
X10078D01*
Y8155D02*
Y8161D01*
Y8155D02*
X10090D01*
X10039Y8218D02*
X10090D01*
X10014Y8193D02*
X10039Y8218D01*
X10078Y8123D02*
X10084D01*
X10090D01*
X10078Y8117D02*
X10084Y8123D01*
X10090Y8129D01*
X10378Y8097D02*
X10420D01*
X10526D01*
X9966Y8129D02*
X10090D01*
X10126D01*
X10158Y8161D01*
X10174Y8177D01*
X10158Y8161D02*
Y8176D01*
D16*
X10545Y7841D02*
X10610Y7776D01*
X10460Y7841D02*
X10545D01*
X10390Y7906D02*
X10460Y7841D01*
X10300Y7906D02*
X10390D01*
X10250Y7861D02*
X10300Y7906D01*
X10374Y8092D02*
Y8093D01*
D17*
X10785Y8577D02*
Y8601D01*
D18*
X10782Y8033D02*
X10862Y8113D01*
Y8657D01*
X10846Y8673D02*
X10862Y8657D01*
X10243Y8673D02*
X10846D01*
X10158Y8588D02*
X10243Y8673D01*
X9750Y7746D02*
X9785Y7781D01*
X9750Y7701D02*
Y7746D01*
X9785Y7881D02*
X9805Y7861D01*
X9870D01*
X9785Y8281D02*
X9805Y8261D01*
X9870D01*
X10650Y8281D02*
X10658Y8273D01*
X10666Y8281D01*
X10730D01*
X9785Y8381D02*
X9805Y8361D01*
X9870D01*
X10650Y8081D02*
X10730D01*
X10650Y7981D02*
X10730D01*
X9850Y8081D02*
X9870Y8061D01*
X9785Y8081D02*
X9850D01*
X10176Y8336D02*
Y8337D01*
X10174D02*
X10176D01*
X10174Y8289D02*
Y8337D01*
X10158Y8273D02*
X10174Y8289D01*
X10158Y8225D02*
Y8273D01*
Y8225D02*
X10174Y8209D01*
X10254D01*
X10270Y8193D01*
X9910Y8451D02*
X9948D01*
X9998Y8401D01*
X10046D01*
X10062Y8385D01*
X10254D01*
X10262Y8377D01*
Y8353D02*
Y8377D01*
Y8353D02*
X10271D01*
Y8336D02*
Y8353D01*
X10094Y8401D02*
X10276D01*
X10302Y8375D01*
Y8321D02*
Y8375D01*
Y8321D02*
X10302D01*
Y8336D01*
X9897Y8033D02*
X9925Y8061D01*
X9726Y8033D02*
X9897D01*
X9726Y8689D02*
X9870D01*
X10062Y8497D01*
X10174D01*
X10222Y8545D01*
X10334D01*
X10366Y8513D01*
Y8401D02*
Y8513D01*
Y8401D02*
X10398Y8369D01*
Y8281D02*
Y8369D01*
Y8281D02*
X10420D01*
X10595Y7981D02*
X10622Y8008D01*
Y8145D01*
X10510Y8257D02*
X10622Y8145D01*
X10430Y8257D02*
X10510D01*
X10430Y8249D02*
Y8257D01*
X10420Y8249D02*
X10430D01*
X10334Y8005D02*
X10334Y8001D01*
X10334D02*
X10334D01*
X10334Y7979D02*
Y8001D01*
Y7979D02*
X10350Y7963D01*
X10510D01*
X9750Y7646D02*
X10219D01*
X10302Y7729D01*
X10638D01*
X10654Y7745D01*
Y7809D01*
X10580Y7881D02*
X10654Y7809D01*
X10485Y7881D02*
X10580D01*
X10430Y7926D02*
X10485Y7881D01*
X10285Y7926D02*
X10430D01*
X10275Y7931D02*
X10285Y7926D01*
X10240Y7931D02*
X10275D01*
X10239Y7961D02*
X10240Y7931D01*
X10239Y7961D02*
Y8005D01*
X10027Y8281D02*
X10090D01*
X10078Y8249D02*
X10090D01*
X10078Y8241D02*
Y8249D01*
X9966Y8241D02*
X10078D01*
X9934Y8209D02*
X9966Y8241D01*
X9870Y8209D02*
X9934D01*
X10145Y8005D02*
Y8017D01*
X10142D02*
X10145D01*
X10142D02*
Y8073D01*
X10150Y8081D01*
X10153D01*
X10176Y8005D02*
Y8017D01*
X10174D02*
X10176D01*
X10174D02*
Y8049D01*
X10190Y8065D01*
Y8129D01*
X10208Y8001D02*
Y8005D01*
X10206Y8001D02*
X10208D01*
X10206Y7969D02*
Y8001D01*
X10190Y7953D02*
X10206Y7969D01*
X10126Y7953D02*
X10190D01*
X10078Y7905D02*
X10126Y7953D01*
X10078Y7897D02*
Y7905D01*
X10070Y7889D02*
X10078Y7897D01*
X10271Y7985D02*
Y8005D01*
X10270Y7985D02*
X10271D01*
X10270Y7978D02*
Y7985D01*
Y7978D02*
X10300Y7946D01*
X10446D01*
X10487Y7905D01*
X10589D01*
X10670Y7824D01*
Y7729D02*
Y7824D01*
X10654Y7713D02*
X10670Y7729D01*
X10318Y7713D02*
X10654D01*
X10222Y7617D02*
X10318Y7713D01*
X9725Y7617D02*
X10222D01*
X9710Y7632D02*
X9725Y7617D01*
X9710Y7632D02*
Y7658D01*
X9725Y7673D01*
X9822D01*
X9854Y7705D01*
Y7809D01*
X9870Y7825D01*
X9886D01*
X9902Y7841D01*
Y7861D01*
X9925D01*
X10302Y8005D02*
X10302Y8001D01*
X10302D02*
X10302D01*
X10302D02*
Y8036D01*
X10257Y8081D02*
X10302Y8036D01*
X10230Y8081D02*
X10257D01*
X9973Y8337D02*
X10006D01*
X9925Y8289D02*
X9973Y8337D01*
X9925Y8261D02*
Y8289D01*
X10595Y8225D02*
Y8281D01*
X10365Y8005D02*
X10370Y8001D01*
X10531D01*
X10550Y7982D01*
Y7926D02*
Y7982D01*
Y7926D02*
X10555Y7921D01*
X10654D01*
X10686Y7889D01*
Y7713D02*
Y7889D01*
X10670Y7697D02*
X10686Y7713D01*
X10382Y7697D02*
X10670D01*
X10286Y7601D02*
X10382Y7697D01*
X9710Y7601D02*
X10286D01*
X9678Y7633D02*
X9710Y7601D01*
X9678Y7633D02*
Y8273D01*
X9726Y8289D02*
X9758Y8321D01*
X9902D01*
X9925Y8344D01*
Y8361D01*
X10163Y7729D02*
X10210Y7776D01*
X9982Y7729D02*
X10163D01*
X9966Y7745D02*
X9982Y7729D01*
X9966Y7745D02*
Y7857D01*
X9998Y7889D01*
Y8049D01*
X9958Y8089D02*
X9998Y8049D01*
X9942Y8089D02*
X9958D01*
X9934Y8097D02*
X9942Y8089D01*
X9854Y8097D02*
X9934D01*
X9822Y8129D02*
X9854Y8097D01*
X9822Y8129D02*
Y8209D01*
X9806Y8225D02*
X9822Y8209D01*
X9726Y8225D02*
X9806D01*
X10566Y8052D02*
X10595Y8081D01*
X10414Y8049D02*
Y8060D01*
X10420D01*
X10566Y7953D02*
X10582Y7937D01*
X10750D01*
X10782Y7905D01*
Y7713D02*
Y7905D01*
X10750Y7681D02*
X10782Y7713D01*
X10430Y7681D02*
X10750D01*
X10334Y7585D02*
X10430Y7681D01*
X10254Y8446D02*
Y8499D01*
Y8446D02*
X10334Y8366D01*
Y8336D02*
Y8366D01*
Y8336D02*
X10334D01*
X10110Y8545D02*
X10190D01*
X10206Y8561D01*
X10446D01*
X10462Y8545D01*
Y8438D02*
Y8545D01*
Y8438D02*
X10494Y8406D01*
X10526D01*
X10558Y8438D01*
Y8569D01*
X10590Y8601D01*
X10730D01*
X9678Y8529D02*
X9966D01*
X10239Y8305D02*
Y8336D01*
X10239Y8305D02*
X10239D01*
X10238Y8304D02*
X10239Y8305D01*
X10238Y8289D02*
Y8304D01*
Y8289D02*
X10318Y8209D01*
Y8188D02*
Y8209D01*
Y8188D02*
X10334Y8172D01*
X10206Y8246D02*
Y8337D01*
X10208D01*
Y8336D02*
Y8337D01*
X10145Y8336D02*
Y8337D01*
X10071D02*
X10145D01*
X10023Y8385D02*
X10071Y8337D01*
X9966Y8385D02*
X10023D01*
X9950Y8401D02*
X9966Y8385D01*
X9822Y8401D02*
X9950D01*
X9790Y8433D02*
X9822Y8401D01*
X9694Y8433D02*
X9790D01*
X9662Y8401D02*
X9694Y8433D01*
X9662Y7569D02*
Y8401D01*
Y7569D02*
X9694Y7537D01*
X10382D01*
X10414Y7569D01*
Y7585D01*
X10494Y8369D02*
X10590D01*
X10114Y7825D02*
X10150Y7861D01*
X10046Y7825D02*
X10114D01*
X10014Y7857D02*
X10046Y7825D01*
X10014Y7857D02*
Y8065D01*
X10046Y8097D01*
X10078D01*
Y8092D02*
Y8097D01*
Y8092D02*
X10090D01*
Y7981D02*
Y8060D01*
X10030Y7921D02*
X10090Y7981D01*
X10030Y7868D02*
Y7921D01*
Y7868D02*
X10049Y7849D01*
X10083D01*
X10107Y7873D01*
Y7897D01*
X10115Y7905D01*
X10189D01*
X10206Y7888D01*
Y7844D02*
Y7888D01*
Y7844D02*
X10241Y7809D01*
X10278D01*
X10294Y7825D01*
X10350D01*
Y7861D01*
X9678Y8273D02*
X9726D01*
Y8225D02*
Y8273D01*
Y8289D01*
X10414Y8049D02*
X10420D01*
X10566D01*
Y7953D02*
Y8049D01*
Y8052D01*
X10010Y8451D02*
X10044D01*
X10094Y8401D01*
X10027Y8468D02*
X10044Y8451D01*
X9966Y8529D02*
X10027Y8468D01*
D19*
X10730Y7781D02*
D03*
D20*
Y7881D02*
D03*
Y7981D02*
D03*
Y8081D02*
D03*
Y8181D02*
D03*
Y8281D02*
D03*
Y8381D02*
D03*
Y8481D02*
D03*
X9785Y7781D02*
D03*
Y7881D02*
D03*
Y7981D02*
D03*
Y8081D02*
D03*
Y8181D02*
D03*
Y8281D02*
D03*
Y8381D02*
D03*
Y8481D02*
D03*
X10825Y7633D02*
D03*
X10542Y8161D02*
D03*
X10782Y8033D02*
D03*
X10158Y8588D02*
D03*
X10270Y8193D02*
D03*
X9726Y8033D02*
D03*
Y8689D02*
D03*
X10654Y8177D02*
D03*
X10510Y7963D02*
D03*
X10027Y8281D02*
D03*
X9870Y8209D02*
D03*
X10153Y8081D02*
D03*
X10190Y8129D02*
D03*
X10070Y7889D02*
D03*
X10230Y8081D02*
D03*
X10006Y8337D02*
D03*
X10595Y8225D02*
D03*
X10334Y7585D02*
D03*
X10254Y8499D02*
D03*
X10110Y8545D02*
D03*
X9678Y8529D02*
D03*
X10334Y8172D02*
D03*
X10206Y8246D02*
D03*
X10414Y7585D02*
D03*
X10590Y8369D02*
D03*
X10494D02*
D03*
X9966Y8129D02*
D03*
X10526Y8097D02*
D03*
X9950Y7931D02*
D03*
X9726Y7905D02*
D03*
X10494Y7585D02*
D03*
X10610Y7601D02*
D03*
X10014Y8193D02*
D03*
D21*
X10350Y7861D02*
D03*
D22*
X10250D02*
D03*
X10010Y8451D02*
D03*
X10110D02*
D03*
X10210D02*
D03*
X10310D02*
D03*
X10410D02*
D03*
X10510D02*
D03*
X10610D02*
D03*
X10010Y7776D02*
D03*
X10110Y7776D02*
D03*
X10210D02*
D03*
X10310D02*
D03*
X10410D02*
D03*
X10510D02*
D03*
X10610D02*
D03*
D23*
X10150Y7861D02*
D03*
X9910Y8451D02*
D03*
Y7776D02*
D03*
M02*
