%FSLAX23Y23*%
%MOIN*%
G70*
G01*
G75*
%ADD10R,0.030X0.030*%
%ADD11O,0.059X0.018*%
%ADD12R,0.059X0.018*%
%ADD13R,0.018X0.059*%
%ADD14C,0.032*%
%ADD15C,0.015*%
%ADD16C,0.016*%
%ADD17C,0.025*%
%ADD18C,0.008*%
%ADD19R,0.050X0.050*%
%ADD20C,0.050*%
%ADD21C,0.055*%
%ADD22C,0.062*%
%ADD23R,0.062X0.062*%
%ADD24R,0.022X0.079*%
%ADD25O,0.022X0.079*%
%ADD26R,0.060X0.060*%
%ADD27C,0.020*%
%ADD28R,0.038X0.038*%
%ADD29O,0.067X0.026*%
%ADD30R,0.067X0.026*%
%ADD31R,0.026X0.067*%
%ADD32R,0.058X0.058*%
%ADD33C,0.058*%
%ADD34C,0.063*%
%ADD35C,0.070*%
%ADD36R,0.070X0.070*%
D28*
X9925Y8061D02*
D03*
X9870D02*
D03*
X10595Y7981D02*
D03*
X10650D02*
D03*
X10595Y8081D02*
D03*
X10650D02*
D03*
X9925Y8361D02*
D03*
X9870D02*
D03*
X10595Y8281D02*
D03*
X10650D02*
D03*
X9925Y8261D02*
D03*
X9870D02*
D03*
X9925Y7861D02*
D03*
X9870D02*
D03*
X9750Y7646D02*
D03*
Y7701D02*
D03*
X10785Y8601D02*
D03*
X10730D02*
D03*
D29*
X10090Y8281D02*
D03*
D30*
Y8249D02*
D03*
Y8218D02*
D03*
Y8186D02*
D03*
Y8155D02*
D03*
Y8123D02*
D03*
Y8092D02*
D03*
Y8060D02*
D03*
X10420D02*
D03*
Y8092D02*
D03*
Y8123D02*
D03*
Y8155D02*
D03*
Y8186D02*
D03*
Y8218D02*
D03*
Y8249D02*
D03*
Y8281D02*
D03*
D31*
X10145Y8005D02*
D03*
X10176D02*
D03*
X10208D02*
D03*
X10239D02*
D03*
X10271D02*
D03*
X10302D02*
D03*
X10334D02*
D03*
X10365D02*
D03*
Y8336D02*
D03*
X10334D02*
D03*
X10302D02*
D03*
X10271D02*
D03*
X10239D02*
D03*
X10208D02*
D03*
X10176D02*
D03*
X10145D02*
D03*
D32*
X10730Y7781D02*
D03*
D33*
Y7881D02*
D03*
Y7981D02*
D03*
Y8081D02*
D03*
Y8181D02*
D03*
Y8281D02*
D03*
Y8381D02*
D03*
Y8481D02*
D03*
X9785Y7781D02*
D03*
Y7881D02*
D03*
Y7981D02*
D03*
Y8081D02*
D03*
Y8181D02*
D03*
Y8281D02*
D03*
Y8381D02*
D03*
Y8481D02*
D03*
X10825Y7633D02*
D03*
X10542Y8161D02*
D03*
X10782Y8033D02*
D03*
X10158Y8588D02*
D03*
X10270Y8193D02*
D03*
X9726Y8033D02*
D03*
Y8689D02*
D03*
X10654Y8177D02*
D03*
X10510Y7963D02*
D03*
X10027Y8281D02*
D03*
X9870Y8209D02*
D03*
X10153Y8081D02*
D03*
X10190Y8129D02*
D03*
X10070Y7889D02*
D03*
X10230Y8081D02*
D03*
X10006Y8337D02*
D03*
X10595Y8225D02*
D03*
X10334Y7585D02*
D03*
X10254Y8499D02*
D03*
X10110Y8545D02*
D03*
X9678Y8529D02*
D03*
X10334Y8172D02*
D03*
X10206Y8246D02*
D03*
X10414Y7585D02*
D03*
X10590Y8369D02*
D03*
X10494D02*
D03*
X9966Y8129D02*
D03*
X10526Y8097D02*
D03*
X9950Y7931D02*
D03*
X9726Y7905D02*
D03*
X10494Y7585D02*
D03*
X10610Y7601D02*
D03*
X10014Y8193D02*
D03*
D34*
X10350Y7861D02*
D03*
D35*
X10250D02*
D03*
X10010Y8451D02*
D03*
X10110D02*
D03*
X10210D02*
D03*
X10310D02*
D03*
X10410D02*
D03*
X10510D02*
D03*
X10610D02*
D03*
X10010Y7776D02*
D03*
X10110Y7776D02*
D03*
X10210D02*
D03*
X10310D02*
D03*
X10410D02*
D03*
X10510D02*
D03*
X10610D02*
D03*
D36*
X10150Y7861D02*
D03*
X9910Y8451D02*
D03*
Y7776D02*
D03*
M02*
