G04 (created by PCBNEW-RS274X (2011-05-25)-stable) date Thu 21 Feb 2013 10:48:38 AM PST*
G01*
G70*
G90*
%MOIN*%
G04 Gerber Fmt 3.4, Leading zero omitted, Abs format*
%FSLAX34Y34*%
G04 APERTURE LIST*
%ADD10C,0.006000*%
%ADD11C,0.060000*%
%ADD12R,0.060000X0.060000*%
%ADD13R,0.023600X0.078700*%
%ADD14C,0.035000*%
%ADD15C,0.008000*%
%ADD16C,0.012000*%
G04 APERTURE END LIST*
G54D10*
G54D11*
X40945Y-29569D03*
X40945Y-30569D03*
X40945Y-31569D03*
X40945Y-32569D03*
X40945Y-33569D03*
X40945Y-34569D03*
X40945Y-35569D03*
X40945Y-36569D03*
G54D12*
X50394Y-36569D03*
G54D11*
X50394Y-35569D03*
X50394Y-34569D03*
X50394Y-33569D03*
X50394Y-32569D03*
X50394Y-31569D03*
X50394Y-30569D03*
X50394Y-29569D03*
G54D12*
X42169Y-30118D03*
G54D11*
X43169Y-30118D03*
X44169Y-30118D03*
X45169Y-30118D03*
X46169Y-30118D03*
X47169Y-30118D03*
X48169Y-30118D03*
X49169Y-30118D03*
G54D12*
X42169Y-37205D03*
G54D11*
X43169Y-37205D03*
X44169Y-37205D03*
X45169Y-37205D03*
X46169Y-37205D03*
X47169Y-37205D03*
X48169Y-37205D03*
X49169Y-37205D03*
G54D13*
X47984Y-35240D03*
X47484Y-35240D03*
X46984Y-35240D03*
X46484Y-35240D03*
X45984Y-35240D03*
X45484Y-35240D03*
X44984Y-35240D03*
X44484Y-35240D03*
X43984Y-35240D03*
X47984Y-31452D03*
X47484Y-31452D03*
X46984Y-31452D03*
X46484Y-31452D03*
X45984Y-31452D03*
X45484Y-31452D03*
X44984Y-31452D03*
X44484Y-31452D03*
X43984Y-31452D03*
G54D14*
X48400Y-30993D03*
X43543Y-31734D03*
X45483Y-33425D03*
X45418Y-33886D03*
X43725Y-37925D03*
X43515Y-34130D03*
X49087Y-33165D03*
X46102Y-32902D03*
X45092Y-32733D03*
X43590Y-32626D03*
X47366Y-32944D03*
X43536Y-33220D03*
X46986Y-33210D03*
X46648Y-32888D03*
X48736Y-32875D03*
X50574Y-37669D03*
X51511Y-30708D03*
X47270Y-36597D03*
X48764Y-33601D03*
X50044Y-35069D03*
X44129Y-30774D03*
G54D15*
X50163Y-29124D02*
X49169Y-30118D01*
X50886Y-29124D02*
X50163Y-29124D01*
X51113Y-29351D02*
X50886Y-29124D01*
X51113Y-35718D02*
X51113Y-29351D01*
X50816Y-36015D02*
X51113Y-35718D01*
X50146Y-36015D02*
X50816Y-36015D01*
X49169Y-36992D02*
X50146Y-36015D01*
X49169Y-37205D02*
X49169Y-36992D01*
X48400Y-30887D02*
X48400Y-30993D01*
X49169Y-30118D02*
X48400Y-30887D01*
X48454Y-37920D02*
X49169Y-37205D01*
X45924Y-37920D02*
X48454Y-37920D01*
X45722Y-37718D02*
X45924Y-37920D01*
X45722Y-36876D02*
X45722Y-37718D01*
X44622Y-35776D02*
X45722Y-36876D01*
X43984Y-35776D02*
X44622Y-35776D01*
X43984Y-35240D02*
X43984Y-35776D01*
X42169Y-36762D02*
X42169Y-30561D01*
X42169Y-37205D02*
X42169Y-36762D01*
X42169Y-30118D02*
X42169Y-30561D01*
X45234Y-33425D02*
X45483Y-33425D01*
X43543Y-31734D02*
X45234Y-33425D01*
X48725Y-38681D02*
X50394Y-37012D01*
X43993Y-38681D02*
X48725Y-38681D01*
X42664Y-37352D02*
X43993Y-38681D01*
X42664Y-29743D02*
X42664Y-37352D01*
X42747Y-29660D02*
X42664Y-29743D01*
X44589Y-29660D02*
X42747Y-29660D01*
X44625Y-29696D02*
X44589Y-29660D01*
X44625Y-30276D02*
X44625Y-29696D01*
X45264Y-30915D02*
X44625Y-30276D01*
X45984Y-30915D02*
X45264Y-30915D01*
X45984Y-31452D02*
X45984Y-30915D01*
X50394Y-36569D02*
X50394Y-37012D01*
X48328Y-31988D02*
X46984Y-31988D01*
X50394Y-29922D02*
X48328Y-31988D01*
X50394Y-29569D02*
X50394Y-29922D01*
X46984Y-31452D02*
X46984Y-31988D01*
X43169Y-32212D02*
X43169Y-30118D01*
X43169Y-37205D02*
X43169Y-32212D01*
X43744Y-32212D02*
X45418Y-33886D01*
X43169Y-32212D02*
X43744Y-32212D01*
X43725Y-36806D02*
X43725Y-37925D01*
X43515Y-36596D02*
X43725Y-36806D01*
X43515Y-34130D02*
X43515Y-36596D01*
X48034Y-36340D02*
X47169Y-37205D01*
X48226Y-36340D02*
X48034Y-36340D01*
X49087Y-35479D02*
X48226Y-36340D01*
X49087Y-33165D02*
X49087Y-35479D01*
X45984Y-35240D02*
X45984Y-34703D01*
X46102Y-34585D02*
X46102Y-32902D01*
X45984Y-34703D02*
X46102Y-34585D01*
X45266Y-32733D02*
X45092Y-32733D01*
X45823Y-33290D02*
X45266Y-32733D01*
X45823Y-34364D02*
X45823Y-33290D01*
X45484Y-34703D02*
X45823Y-34364D01*
X45484Y-35240D02*
X45484Y-34703D01*
X44984Y-34020D02*
X43590Y-32626D01*
X44984Y-35240D02*
X44984Y-34020D01*
X47984Y-33562D02*
X47366Y-32944D01*
X47984Y-35240D02*
X47984Y-33562D01*
X44484Y-34168D02*
X43536Y-33220D01*
X44484Y-35240D02*
X44484Y-34168D01*
X47484Y-33708D02*
X46986Y-33210D01*
X47484Y-35240D02*
X47484Y-33708D01*
X46648Y-34539D02*
X46648Y-32888D01*
X46484Y-34703D02*
X46648Y-34539D01*
X46484Y-35240D02*
X46484Y-34703D01*
X46984Y-35240D02*
X46984Y-35776D01*
X48246Y-33365D02*
X48736Y-32875D01*
X48246Y-35719D02*
X48246Y-33365D01*
X48189Y-35776D02*
X48246Y-35719D01*
X46984Y-35776D02*
X48189Y-35776D01*
X51511Y-36732D02*
X51511Y-30708D01*
X50574Y-37669D02*
X51511Y-36732D01*
X47806Y-36061D02*
X47270Y-36597D01*
X48212Y-36061D02*
X47806Y-36061D01*
X48764Y-35509D02*
X48212Y-36061D01*
X48764Y-33601D02*
X48764Y-35509D01*
X44484Y-31452D02*
X44484Y-31988D01*
X44896Y-32400D02*
X44484Y-31988D01*
X45216Y-32400D02*
X44896Y-32400D01*
X45361Y-32545D02*
X45216Y-32400D01*
X50370Y-32545D02*
X45361Y-32545D01*
X50394Y-32569D02*
X50370Y-32545D01*
X41445Y-29069D02*
X40945Y-29569D01*
X47064Y-29069D02*
X41445Y-29069D01*
X47669Y-29674D02*
X47064Y-29069D01*
X47669Y-30600D02*
X47669Y-29674D01*
X47984Y-30915D02*
X47669Y-30600D01*
X47984Y-31452D02*
X47984Y-30915D01*
X45484Y-31452D02*
X45484Y-31988D01*
X45673Y-32177D02*
X45484Y-31988D01*
X48786Y-32177D02*
X45673Y-32177D01*
X50394Y-30569D02*
X48786Y-32177D01*
X46484Y-31452D02*
X46484Y-30915D01*
X46338Y-30915D02*
X46484Y-30915D01*
X45625Y-30202D02*
X46338Y-30915D01*
X45625Y-29706D02*
X45625Y-30202D01*
X45373Y-29454D02*
X45625Y-29706D01*
X41987Y-29454D02*
X45373Y-29454D01*
X41725Y-29716D02*
X41987Y-29454D01*
X41725Y-31789D02*
X41725Y-29716D01*
X40945Y-32569D02*
X41725Y-31789D01*
X40389Y-34013D02*
X40945Y-34569D01*
X40389Y-31247D02*
X40389Y-34013D01*
X40523Y-31113D02*
X40389Y-31247D01*
X41103Y-31113D02*
X40523Y-31113D01*
X41531Y-30685D02*
X41103Y-31113D01*
X41531Y-29624D02*
X41531Y-30685D01*
X41885Y-29270D02*
X41531Y-29624D01*
X45987Y-29270D02*
X41885Y-29270D01*
X46669Y-29952D02*
X45987Y-29270D01*
X46669Y-30246D02*
X46669Y-29952D01*
X47338Y-30915D02*
X46669Y-30246D01*
X47484Y-30915D02*
X47338Y-30915D01*
X47484Y-31452D02*
X47484Y-30915D01*
X50841Y-35122D02*
X50394Y-35569D01*
X50841Y-32138D02*
X50841Y-35122D01*
X50816Y-32113D02*
X50841Y-32138D01*
X49187Y-32113D02*
X50816Y-32113D01*
X48939Y-32361D02*
X49187Y-32113D01*
X45438Y-32361D02*
X48939Y-32361D01*
X45065Y-31988D02*
X45438Y-32361D01*
X44984Y-31988D02*
X45065Y-31988D01*
X44984Y-31452D02*
X44984Y-31988D01*
X48351Y-36762D02*
X50044Y-35069D01*
X47984Y-36762D02*
X48351Y-36762D01*
X47613Y-37133D02*
X47984Y-36762D01*
X47613Y-37627D02*
X47613Y-37133D01*
X47591Y-37649D02*
X47613Y-37627D01*
X46613Y-37649D02*
X47591Y-37649D01*
X46169Y-37205D02*
X46613Y-37649D01*
G54D16*
X44008Y-30895D02*
X44129Y-30774D01*
X43984Y-30895D02*
X44008Y-30895D01*
X43984Y-31452D02*
X43984Y-30895D01*
M02*
