G04 (created by PCBNEW-RS274X (2011-05-25)-stable) date Thu 21 Feb 2013 10:48:38 AM PST*
G01*
G70*
G90*
%MOIN*%
G04 Gerber Fmt 3.4, Leading zero omitted, Abs format*
%FSLAX34Y34*%
G04 APERTURE LIST*
%ADD10C,0.006000*%
%ADD11R,0.025000X0.045000*%
%ADD12R,0.045000X0.025000*%
%ADD13R,0.017700X0.078700*%
%ADD14R,0.078700X0.017700*%
%ADD15C,0.060000*%
%ADD16R,0.060000X0.060000*%
%ADD17R,0.051200X0.019700*%
%ADD18C,0.035000*%
%ADD19C,0.008000*%
%ADD20C,0.012000*%
G04 APERTURE END LIST*
G54D10*
G54D11*
X50094Y-28504D03*
X50694Y-28504D03*
X42220Y-36102D03*
X42820Y-36102D03*
X39897Y-38701D03*
X40497Y-38701D03*
X42259Y-34961D03*
X42859Y-34961D03*
G54D12*
X49213Y-31629D03*
X49213Y-32229D03*
G54D11*
X42259Y-33858D03*
X42859Y-33858D03*
G54D12*
X51417Y-33952D03*
X51417Y-34552D03*
X51378Y-31717D03*
X51378Y-31117D03*
G54D11*
X40645Y-28504D03*
X41245Y-28504D03*
G54D13*
X45048Y-31529D03*
X45363Y-31529D03*
X45678Y-31529D03*
X45993Y-31529D03*
X46308Y-31529D03*
X46623Y-31529D03*
X46938Y-31529D03*
X47253Y-31529D03*
X47251Y-35295D03*
X45041Y-35295D03*
X45361Y-35295D03*
X45681Y-35295D03*
X45991Y-35295D03*
X46311Y-35295D03*
X46621Y-35295D03*
X46941Y-35295D03*
G54D14*
X48041Y-32313D03*
X48041Y-32627D03*
X48041Y-32943D03*
X48041Y-33257D03*
X48041Y-33573D03*
X48041Y-33887D03*
X48041Y-34203D03*
X48041Y-34517D03*
X44261Y-32315D03*
X44261Y-32625D03*
X44261Y-32945D03*
X44261Y-33255D03*
X44261Y-33565D03*
X44261Y-33885D03*
X44261Y-34205D03*
X44261Y-34525D03*
G54D15*
X40945Y-29569D03*
X40945Y-30569D03*
X40945Y-31569D03*
X40945Y-32569D03*
X40945Y-33569D03*
X40945Y-34569D03*
X40945Y-35569D03*
X40945Y-36569D03*
G54D16*
X50394Y-36569D03*
G54D15*
X50394Y-35569D03*
X50394Y-34569D03*
X50394Y-33569D03*
X50394Y-32569D03*
X50394Y-31569D03*
X50394Y-30569D03*
X50394Y-29569D03*
G54D12*
X49173Y-35409D03*
X49173Y-36009D03*
G54D11*
X50094Y-38898D03*
X50694Y-38898D03*
G54D16*
X42169Y-30118D03*
G54D15*
X43169Y-30118D03*
X44169Y-30118D03*
X45169Y-30118D03*
X46169Y-30118D03*
X47169Y-30118D03*
X48169Y-30118D03*
X49169Y-30118D03*
G54D16*
X42169Y-37205D03*
G54D15*
X43169Y-37205D03*
X44169Y-37205D03*
X45169Y-37205D03*
X46169Y-37205D03*
X47169Y-37205D03*
X48169Y-37205D03*
X49169Y-37205D03*
G54D17*
X42559Y-31890D03*
X42559Y-31418D03*
X42559Y-32362D03*
G54D18*
X48400Y-30993D03*
X43543Y-31734D03*
X45483Y-33425D03*
X45418Y-33886D03*
X43725Y-37925D03*
X43515Y-34130D03*
X49087Y-33165D03*
X46102Y-32902D03*
X45092Y-32733D03*
X43590Y-32626D03*
X47366Y-32944D03*
X43536Y-33220D03*
X46986Y-33210D03*
X46648Y-32888D03*
X48736Y-32875D03*
X50574Y-37669D03*
X51511Y-30708D03*
X47270Y-36597D03*
X48764Y-33601D03*
X50044Y-35069D03*
X44129Y-30774D03*
G54D19*
X50694Y-38898D02*
X50694Y-38530D01*
X49173Y-37205D02*
X49169Y-37205D01*
X50498Y-38530D02*
X49173Y-37205D01*
X50694Y-38530D02*
X50498Y-38530D01*
X50694Y-28504D02*
X50426Y-28504D01*
X42559Y-31890D02*
X42160Y-31890D01*
X50426Y-28861D02*
X50426Y-28504D01*
X49169Y-30118D02*
X50426Y-28861D01*
X46623Y-31529D02*
X46623Y-30993D01*
X48400Y-30993D02*
X46623Y-30993D01*
X46623Y-30993D02*
X45993Y-30993D01*
X45993Y-31529D02*
X45993Y-30993D01*
X42160Y-31216D02*
X42160Y-31890D01*
X42182Y-31194D02*
X42160Y-31216D01*
X42765Y-31194D02*
X42182Y-31194D01*
X43643Y-30316D02*
X42765Y-31194D01*
X43643Y-29245D02*
X43643Y-30316D01*
X44761Y-28127D02*
X43643Y-29245D01*
X50317Y-28127D02*
X44761Y-28127D01*
X50426Y-28236D02*
X50317Y-28127D01*
X50426Y-28504D02*
X50426Y-28236D01*
X46311Y-35295D02*
X46311Y-35832D01*
X49173Y-37205D02*
X49173Y-36009D01*
X46495Y-36016D02*
X46311Y-35832D01*
X48014Y-36016D02*
X46495Y-36016D01*
X48889Y-35141D02*
X48014Y-36016D01*
X49521Y-35141D02*
X48889Y-35141D01*
X49542Y-35162D02*
X49521Y-35141D01*
X49542Y-35640D02*
X49542Y-35162D01*
X49173Y-36009D02*
X49542Y-35640D01*
X51378Y-32403D02*
X51378Y-31717D01*
X50712Y-33069D02*
X51378Y-32403D01*
X50164Y-33069D02*
X50712Y-33069D01*
X49861Y-33372D02*
X50164Y-33069D01*
X49861Y-34036D02*
X49861Y-33372D01*
X50394Y-34569D02*
X49861Y-34036D01*
X42169Y-30118D02*
X42169Y-30561D01*
X45631Y-33573D02*
X47505Y-33573D01*
X45483Y-33425D02*
X45631Y-33573D01*
X48041Y-33573D02*
X47505Y-33573D01*
X41976Y-30754D02*
X42169Y-30561D01*
X41976Y-32062D02*
X41976Y-30754D01*
X42026Y-32112D02*
X41976Y-32062D01*
X43165Y-32112D02*
X42026Y-32112D01*
X43543Y-31734D02*
X43165Y-32112D01*
X47505Y-33886D02*
X47505Y-33887D01*
X45418Y-33886D02*
X47505Y-33886D01*
X48041Y-33887D02*
X47505Y-33887D01*
X42859Y-33858D02*
X43127Y-33858D01*
X44261Y-34525D02*
X43884Y-34525D01*
X43884Y-34525D02*
X43771Y-34525D01*
X43884Y-35920D02*
X45169Y-37205D01*
X43884Y-34525D02*
X43884Y-35920D01*
X43460Y-34525D02*
X43771Y-34525D01*
X43127Y-34192D02*
X43460Y-34525D01*
X43127Y-33858D02*
X43127Y-34192D01*
X44261Y-34205D02*
X43725Y-34205D01*
X43650Y-34130D02*
X43515Y-34130D01*
X43725Y-34205D02*
X43650Y-34130D01*
X46449Y-37925D02*
X43725Y-37925D01*
X47169Y-37205D02*
X46449Y-37925D01*
X49213Y-32229D02*
X49213Y-32497D01*
X49087Y-32623D02*
X49213Y-32497D01*
X49087Y-33165D02*
X49087Y-32623D01*
X46938Y-31529D02*
X46938Y-32066D01*
X46938Y-32066D02*
X46102Y-32902D01*
X45048Y-31529D02*
X45048Y-30993D01*
X42559Y-31418D02*
X42958Y-31418D01*
X44402Y-30993D02*
X45048Y-30993D01*
X44303Y-31092D02*
X44402Y-30993D01*
X43284Y-31092D02*
X44303Y-31092D01*
X42958Y-31418D02*
X43284Y-31092D01*
X44798Y-32439D02*
X45092Y-32733D01*
X44798Y-32315D02*
X44798Y-32439D01*
X44261Y-32315D02*
X44798Y-32315D01*
X44261Y-32625D02*
X43725Y-32625D01*
X43725Y-32626D02*
X43725Y-32625D01*
X43590Y-32626D02*
X43725Y-32626D01*
X48041Y-32943D02*
X47505Y-32943D01*
X47366Y-32943D02*
X47366Y-32944D01*
X47505Y-32943D02*
X47366Y-32943D01*
X43725Y-33031D02*
X43725Y-32945D01*
X43536Y-33220D02*
X43725Y-33031D01*
X44261Y-32945D02*
X43725Y-32945D01*
X48041Y-32627D02*
X47505Y-32627D01*
X47505Y-32626D02*
X47505Y-32627D01*
X47171Y-32626D02*
X47505Y-32626D01*
X46986Y-32811D02*
X47171Y-32626D01*
X46986Y-33210D02*
X46986Y-32811D01*
X43669Y-36683D02*
X43088Y-36102D01*
X43669Y-37333D02*
X43669Y-36683D01*
X44000Y-37664D02*
X43669Y-37333D01*
X45555Y-37664D02*
X44000Y-37664D01*
X45725Y-37494D02*
X45555Y-37664D01*
X45725Y-37022D02*
X45725Y-37494D01*
X44798Y-36095D02*
X45725Y-37022D01*
X44798Y-33255D02*
X44798Y-36095D01*
X44261Y-33255D02*
X44798Y-33255D01*
X42820Y-36102D02*
X43088Y-36102D01*
X47253Y-32283D02*
X47253Y-31529D01*
X46648Y-32888D02*
X47253Y-32283D01*
X48629Y-32313D02*
X48041Y-32313D01*
X48736Y-32420D02*
X48629Y-32313D01*
X48736Y-32875D02*
X48736Y-32420D01*
X51378Y-30841D02*
X51511Y-30708D01*
X51378Y-31117D02*
X51378Y-30841D01*
X46941Y-35295D02*
X46941Y-35832D01*
X47452Y-35832D02*
X46941Y-35832D01*
X48327Y-34957D02*
X47452Y-35832D01*
X49597Y-34957D02*
X48327Y-34957D01*
X49725Y-35085D02*
X49597Y-34957D01*
X49725Y-36820D02*
X49725Y-35085D01*
X50574Y-37669D02*
X49725Y-36820D01*
X47251Y-35295D02*
X47251Y-34759D01*
X41245Y-28504D02*
X41513Y-28504D01*
X42073Y-27944D02*
X41513Y-28504D01*
X50758Y-27944D02*
X42073Y-27944D01*
X50963Y-28149D02*
X50758Y-27944D01*
X50963Y-31878D02*
X50963Y-28149D01*
X50728Y-32113D02*
X50963Y-31878D01*
X49968Y-32113D02*
X50728Y-32113D01*
X49946Y-32135D02*
X49968Y-32113D01*
X49946Y-32896D02*
X49946Y-32135D01*
X49677Y-33165D02*
X49946Y-32896D01*
X49677Y-33747D02*
X49677Y-33165D01*
X48665Y-34759D02*
X49677Y-33747D01*
X47251Y-34759D02*
X48665Y-34759D01*
X48041Y-34203D02*
X48578Y-34203D01*
X49532Y-28504D02*
X50094Y-28504D01*
X48725Y-29311D02*
X49532Y-28504D01*
X48725Y-31768D02*
X48725Y-29311D01*
X48917Y-31960D02*
X48725Y-31768D01*
X49562Y-31960D02*
X48917Y-31960D01*
X49584Y-31982D02*
X49562Y-31960D01*
X49584Y-32486D02*
X49584Y-31982D01*
X49444Y-32626D02*
X49584Y-32486D01*
X49444Y-33519D02*
X49444Y-32626D01*
X48760Y-34203D02*
X49444Y-33519D01*
X48578Y-34203D02*
X48760Y-34203D01*
X44976Y-29311D02*
X48725Y-29311D01*
X44169Y-30118D02*
X44976Y-29311D01*
X48578Y-33415D02*
X48578Y-33257D01*
X48764Y-33601D02*
X48578Y-33415D01*
X48041Y-33257D02*
X48578Y-33257D01*
X47613Y-36940D02*
X47270Y-36597D01*
X47613Y-37463D02*
X47613Y-36940D01*
X46698Y-38378D02*
X47613Y-37463D01*
X43702Y-38378D02*
X46698Y-38378D01*
X42613Y-37289D02*
X43702Y-38378D01*
X42613Y-36600D02*
X42613Y-37289D01*
X42551Y-36538D02*
X42613Y-36600D01*
X42551Y-35755D02*
X42551Y-36538D01*
X42573Y-35733D02*
X42551Y-35755D01*
X43035Y-35733D02*
X42573Y-35733D01*
X44169Y-36867D02*
X43035Y-35733D01*
X44169Y-37205D02*
X44169Y-36867D01*
X44261Y-33885D02*
X43725Y-33885D01*
X42859Y-34961D02*
X42591Y-34961D01*
X43561Y-33721D02*
X43725Y-33885D01*
X43327Y-33721D02*
X43561Y-33721D01*
X43095Y-33489D02*
X43327Y-33721D01*
X42612Y-33489D02*
X43095Y-33489D01*
X42591Y-33510D02*
X42612Y-33489D01*
X42591Y-34961D02*
X42591Y-33510D01*
X49641Y-31569D02*
X49581Y-31629D01*
X50394Y-31569D02*
X49641Y-31569D01*
X49213Y-31629D02*
X49581Y-31629D01*
X44261Y-33565D02*
X43725Y-33565D01*
X43698Y-33538D02*
X43725Y-33565D01*
X43404Y-33538D02*
X43698Y-33538D01*
X42953Y-33087D02*
X43404Y-33538D01*
X42481Y-33087D02*
X42953Y-33087D01*
X41792Y-32398D02*
X42481Y-33087D01*
X41792Y-30568D02*
X41792Y-32398D01*
X41337Y-30113D02*
X41792Y-30568D01*
X40739Y-30113D02*
X41337Y-30113D01*
X40502Y-30350D02*
X40739Y-30113D01*
X40502Y-32752D02*
X40502Y-30350D01*
X40763Y-33013D02*
X40502Y-32752D01*
X41034Y-33013D02*
X40763Y-33013D01*
X41391Y-33370D02*
X41034Y-33013D01*
X41391Y-35846D02*
X41391Y-33370D01*
X41168Y-36069D02*
X41391Y-35846D01*
X40706Y-36069D02*
X41168Y-36069D01*
X40497Y-36278D02*
X40706Y-36069D01*
X40497Y-38701D02*
X40497Y-36278D01*
X51302Y-33569D02*
X51417Y-33684D01*
X50394Y-33569D02*
X51302Y-33569D01*
X51417Y-33952D02*
X51417Y-33684D01*
X42259Y-33858D02*
X42259Y-33490D01*
X41589Y-32820D02*
X42259Y-33490D01*
X41589Y-31213D02*
X41589Y-32820D01*
X40945Y-30569D02*
X41589Y-31213D01*
X41991Y-33596D02*
X41991Y-34961D01*
X41397Y-33002D02*
X41991Y-33596D01*
X41397Y-32021D02*
X41397Y-33002D01*
X40945Y-31569D02*
X41397Y-32021D01*
X42259Y-34961D02*
X41991Y-34961D01*
X40645Y-28504D02*
X40377Y-28504D01*
X40194Y-32818D02*
X40945Y-33569D01*
X40194Y-28687D02*
X40194Y-32818D01*
X40377Y-28504D02*
X40194Y-28687D01*
X39897Y-36617D02*
X39897Y-38701D01*
X40945Y-35569D02*
X39897Y-36617D01*
X41485Y-36569D02*
X41952Y-36102D01*
X40945Y-36569D02*
X41485Y-36569D01*
X42220Y-36102D02*
X41952Y-36102D01*
X43403Y-32362D02*
X42559Y-32362D01*
X43699Y-32066D02*
X43403Y-32362D01*
X45363Y-32066D02*
X43699Y-32066D01*
X45363Y-31529D02*
X45363Y-32066D01*
X51417Y-34552D02*
X51417Y-34820D01*
X51168Y-35069D02*
X50044Y-35069D01*
X51417Y-34820D02*
X51168Y-35069D01*
X45041Y-36077D02*
X45041Y-35295D01*
X46169Y-37205D02*
X45041Y-36077D01*
G54D20*
X49173Y-35409D02*
X49173Y-35697D01*
X45991Y-35295D02*
X45991Y-35852D01*
X45361Y-35295D02*
X45361Y-35852D01*
X46308Y-31529D02*
X46308Y-32086D01*
X49806Y-38842D02*
X48169Y-37205D01*
X49806Y-38898D02*
X49806Y-38842D01*
X50094Y-38898D02*
X49806Y-38898D01*
X45678Y-31807D02*
X45678Y-32086D01*
X45678Y-31807D02*
X45678Y-31529D01*
X45991Y-35852D02*
X45361Y-35852D01*
X48169Y-36339D02*
X48169Y-37205D01*
X46308Y-32086D02*
X45678Y-32086D01*
X45361Y-35295D02*
X45361Y-34739D01*
X48811Y-35697D02*
X49173Y-35697D01*
X48169Y-36339D02*
X48811Y-35697D01*
X46397Y-36258D02*
X45991Y-35852D01*
X48088Y-36258D02*
X46397Y-36258D01*
X48169Y-36339D02*
X48088Y-36258D01*
X47633Y-30654D02*
X48169Y-30118D01*
X45832Y-30654D02*
X47633Y-30654D01*
X45678Y-30808D02*
X45832Y-30654D01*
X45644Y-30774D02*
X45678Y-30808D01*
X44129Y-30774D02*
X45644Y-30774D01*
X45678Y-30808D02*
X45678Y-31529D01*
X45080Y-34458D02*
X45361Y-34739D01*
X45080Y-33350D02*
X45080Y-34458D01*
X45678Y-32752D02*
X45080Y-33350D01*
X45678Y-32086D02*
X45678Y-32752D01*
M02*
