G04 (created by PCBNEW-RS274X (2011-05-25)-stable) date Thu 21 Feb 2013 10:48:38 AM PST*
G01*
G70*
G90*
%MOIN*%
G04 Gerber Fmt 3.4, Leading zero omitted, Abs format*
%FSLAX34Y34*%
G04 APERTURE LIST*
%ADD10C,0.006000*%
%ADD11C,0.007900*%
%ADD12C,0.008000*%
G04 APERTURE END LIST*
G54D10*
G54D11*
X39883Y-28094D02*
X39489Y-28094D01*
X39489Y-28357D02*
X39489Y-28432D01*
X39508Y-28469D01*
X39546Y-28507D01*
X39621Y-28526D01*
X39752Y-28526D01*
X39827Y-28507D01*
X39865Y-28469D01*
X39883Y-28432D01*
X39883Y-28357D01*
X39865Y-28319D01*
X39827Y-28282D01*
X39752Y-28263D01*
X39621Y-28263D01*
X39546Y-28282D01*
X39508Y-28319D01*
X39489Y-28357D01*
X39883Y-29220D02*
X39696Y-29089D01*
X39883Y-28995D02*
X39489Y-28995D01*
X39489Y-29145D01*
X39508Y-29182D01*
X39527Y-29201D01*
X39565Y-29220D01*
X39621Y-29220D01*
X39658Y-29201D01*
X39677Y-29182D01*
X39696Y-29145D01*
X39696Y-28995D01*
X39883Y-29445D02*
X39865Y-29408D01*
X39846Y-29389D01*
X39808Y-29370D01*
X39696Y-29370D01*
X39658Y-29389D01*
X39640Y-29408D01*
X39621Y-29445D01*
X39621Y-29501D01*
X39640Y-29539D01*
X39658Y-29558D01*
X39696Y-29576D01*
X39808Y-29576D01*
X39846Y-29558D01*
X39865Y-29539D01*
X39883Y-29501D01*
X39883Y-29445D01*
X39883Y-29914D02*
X39489Y-29914D01*
X39865Y-29914D02*
X39883Y-29876D01*
X39883Y-29801D01*
X39865Y-29764D01*
X39846Y-29745D01*
X39808Y-29726D01*
X39696Y-29726D01*
X39658Y-29745D01*
X39640Y-29764D01*
X39621Y-29801D01*
X39621Y-29876D01*
X39640Y-29914D01*
X39865Y-30251D02*
X39883Y-30213D01*
X39883Y-30138D01*
X39865Y-30101D01*
X39827Y-30082D01*
X39677Y-30082D01*
X39640Y-30101D01*
X39621Y-30138D01*
X39621Y-30213D01*
X39640Y-30251D01*
X39677Y-30270D01*
X39715Y-30270D01*
X39752Y-30082D01*
X39883Y-30495D02*
X39865Y-30458D01*
X39846Y-30439D01*
X39808Y-30420D01*
X39696Y-30420D01*
X39658Y-30439D01*
X39640Y-30458D01*
X39621Y-30495D01*
X39621Y-30551D01*
X39640Y-30589D01*
X39658Y-30608D01*
X39696Y-30626D01*
X39808Y-30626D01*
X39846Y-30608D01*
X39865Y-30589D01*
X39883Y-30551D01*
X39883Y-30495D01*
X39883Y-31095D02*
X39489Y-31095D01*
X39621Y-31283D02*
X39883Y-31283D01*
X39658Y-31283D02*
X39640Y-31302D01*
X39621Y-31339D01*
X39621Y-31395D01*
X39640Y-31433D01*
X39677Y-31452D01*
X39883Y-31452D01*
X39865Y-31808D02*
X39883Y-31770D01*
X39883Y-31695D01*
X39865Y-31658D01*
X39846Y-31639D01*
X39808Y-31620D01*
X39696Y-31620D01*
X39658Y-31639D01*
X39640Y-31658D01*
X39621Y-31695D01*
X39621Y-31770D01*
X39640Y-31808D01*
X39846Y-31977D02*
X39865Y-31996D01*
X39883Y-31977D01*
X39865Y-31958D01*
X39846Y-31977D01*
X39883Y-31977D01*
X40034Y-32577D02*
X40015Y-32559D01*
X39959Y-32521D01*
X39921Y-32502D01*
X39865Y-32484D01*
X39771Y-32465D01*
X39696Y-32465D01*
X39602Y-32484D01*
X39546Y-32502D01*
X39508Y-32521D01*
X39452Y-32559D01*
X39433Y-32577D01*
X39489Y-32897D02*
X39489Y-32822D01*
X39508Y-32784D01*
X39527Y-32765D01*
X39583Y-32728D01*
X39658Y-32709D01*
X39808Y-32709D01*
X39846Y-32728D01*
X39865Y-32747D01*
X39883Y-32784D01*
X39883Y-32859D01*
X39865Y-32897D01*
X39846Y-32915D01*
X39808Y-32934D01*
X39715Y-32934D01*
X39677Y-32915D01*
X39658Y-32897D01*
X39640Y-32859D01*
X39640Y-32784D01*
X39658Y-32747D01*
X39677Y-32728D01*
X39715Y-32709D01*
X39527Y-33084D02*
X39508Y-33103D01*
X39489Y-33140D01*
X39489Y-33234D01*
X39508Y-33272D01*
X39527Y-33290D01*
X39565Y-33309D01*
X39602Y-33309D01*
X39658Y-33290D01*
X39883Y-33065D01*
X39883Y-33309D01*
X39489Y-33647D02*
X39489Y-33572D01*
X39508Y-33534D01*
X39527Y-33515D01*
X39583Y-33478D01*
X39658Y-33459D01*
X39808Y-33459D01*
X39846Y-33478D01*
X39865Y-33497D01*
X39883Y-33534D01*
X39883Y-33609D01*
X39865Y-33647D01*
X39846Y-33665D01*
X39808Y-33684D01*
X39715Y-33684D01*
X39677Y-33665D01*
X39658Y-33647D01*
X39640Y-33609D01*
X39640Y-33534D01*
X39658Y-33497D01*
X39677Y-33478D01*
X39715Y-33459D01*
X40034Y-33815D02*
X40015Y-33834D01*
X39959Y-33872D01*
X39921Y-33890D01*
X39865Y-33909D01*
X39771Y-33928D01*
X39696Y-33928D01*
X39602Y-33909D01*
X39546Y-33890D01*
X39508Y-33872D01*
X39452Y-33834D01*
X39433Y-33815D01*
X39489Y-34378D02*
X39489Y-34641D01*
X39883Y-34472D01*
X39883Y-34810D02*
X39883Y-34885D01*
X39865Y-34922D01*
X39846Y-34941D01*
X39790Y-34978D01*
X39715Y-34997D01*
X39565Y-34997D01*
X39527Y-34978D01*
X39508Y-34960D01*
X39489Y-34922D01*
X39489Y-34847D01*
X39508Y-34810D01*
X39527Y-34791D01*
X39565Y-34772D01*
X39658Y-34772D01*
X39696Y-34791D01*
X39715Y-34810D01*
X39733Y-34847D01*
X39733Y-34922D01*
X39715Y-34960D01*
X39696Y-34978D01*
X39658Y-34997D01*
X39489Y-35128D02*
X39489Y-35372D01*
X39640Y-35241D01*
X39640Y-35297D01*
X39658Y-35335D01*
X39677Y-35353D01*
X39715Y-35372D01*
X39808Y-35372D01*
X39846Y-35353D01*
X39865Y-35335D01*
X39883Y-35297D01*
X39883Y-35185D01*
X39865Y-35147D01*
X39846Y-35128D01*
X39733Y-35541D02*
X39733Y-35841D01*
X39658Y-36085D02*
X39640Y-36048D01*
X39621Y-36029D01*
X39583Y-36010D01*
X39565Y-36010D01*
X39527Y-36029D01*
X39508Y-36048D01*
X39489Y-36085D01*
X39489Y-36160D01*
X39508Y-36198D01*
X39527Y-36216D01*
X39565Y-36235D01*
X39583Y-36235D01*
X39621Y-36216D01*
X39640Y-36198D01*
X39658Y-36160D01*
X39658Y-36085D01*
X39677Y-36048D01*
X39696Y-36029D01*
X39733Y-36010D01*
X39808Y-36010D01*
X39846Y-36029D01*
X39865Y-36048D01*
X39883Y-36085D01*
X39883Y-36160D01*
X39865Y-36198D01*
X39846Y-36216D01*
X39808Y-36235D01*
X39733Y-36235D01*
X39696Y-36216D01*
X39677Y-36198D01*
X39658Y-36160D01*
X39527Y-36385D02*
X39508Y-36404D01*
X39489Y-36441D01*
X39489Y-36535D01*
X39508Y-36573D01*
X39527Y-36591D01*
X39565Y-36610D01*
X39602Y-36610D01*
X39658Y-36591D01*
X39883Y-36366D01*
X39883Y-36610D01*
X39658Y-36835D02*
X39640Y-36798D01*
X39621Y-36779D01*
X39583Y-36760D01*
X39565Y-36760D01*
X39527Y-36779D01*
X39508Y-36798D01*
X39489Y-36835D01*
X39489Y-36910D01*
X39508Y-36948D01*
X39527Y-36966D01*
X39565Y-36985D01*
X39583Y-36985D01*
X39621Y-36966D01*
X39640Y-36948D01*
X39658Y-36910D01*
X39658Y-36835D01*
X39677Y-36798D01*
X39696Y-36779D01*
X39733Y-36760D01*
X39808Y-36760D01*
X39846Y-36779D01*
X39865Y-36798D01*
X39883Y-36835D01*
X39883Y-36910D01*
X39865Y-36948D01*
X39846Y-36966D01*
X39808Y-36985D01*
X39733Y-36985D01*
X39696Y-36966D01*
X39677Y-36948D01*
X39658Y-36910D01*
X39621Y-37323D02*
X39883Y-37323D01*
X39471Y-37229D02*
X39752Y-37135D01*
X39752Y-37379D01*
X48605Y-27512D02*
X48736Y-27512D01*
X48736Y-27718D02*
X48736Y-27324D01*
X48549Y-27324D01*
X48342Y-27718D02*
X48379Y-27700D01*
X48398Y-27662D01*
X48398Y-27324D01*
X48230Y-27456D02*
X48136Y-27718D01*
X48042Y-27456D02*
X48136Y-27718D01*
X48173Y-27812D01*
X48192Y-27831D01*
X48230Y-27850D01*
X47892Y-27456D02*
X47892Y-27850D01*
X47892Y-27475D02*
X47855Y-27456D01*
X47780Y-27456D01*
X47742Y-27475D01*
X47723Y-27493D01*
X47705Y-27531D01*
X47705Y-27643D01*
X47723Y-27681D01*
X47742Y-27700D01*
X47780Y-27718D01*
X47855Y-27718D01*
X47892Y-27700D01*
X47367Y-27718D02*
X47367Y-27512D01*
X47386Y-27475D01*
X47424Y-27456D01*
X47499Y-27456D01*
X47536Y-27475D01*
X47367Y-27700D02*
X47405Y-27718D01*
X47499Y-27718D01*
X47536Y-27700D01*
X47555Y-27662D01*
X47555Y-27625D01*
X47536Y-27587D01*
X47499Y-27568D01*
X47405Y-27568D01*
X47367Y-27550D01*
X47180Y-27456D02*
X47180Y-27718D01*
X47180Y-27493D02*
X47161Y-27475D01*
X47124Y-27456D01*
X47068Y-27456D01*
X47030Y-27475D01*
X47011Y-27512D01*
X47011Y-27718D01*
X46674Y-27700D02*
X46712Y-27718D01*
X46787Y-27718D01*
X46824Y-27700D01*
X46843Y-27662D01*
X46843Y-27512D01*
X46824Y-27475D01*
X46787Y-27456D01*
X46712Y-27456D01*
X46674Y-27475D01*
X46655Y-27512D01*
X46655Y-27550D01*
X46843Y-27587D01*
X46430Y-27718D02*
X46467Y-27700D01*
X46486Y-27662D01*
X46486Y-27324D01*
X46018Y-27456D02*
X45924Y-27718D01*
X45830Y-27456D01*
X45474Y-27718D02*
X45699Y-27718D01*
X45586Y-27718D02*
X45586Y-27324D01*
X45624Y-27381D01*
X45661Y-27418D01*
X45699Y-27437D01*
X45305Y-27681D02*
X45286Y-27700D01*
X45305Y-27718D01*
X45324Y-27700D01*
X45305Y-27681D01*
X45305Y-27718D01*
X44911Y-27718D02*
X45136Y-27718D01*
X45023Y-27718D02*
X45023Y-27324D01*
X45061Y-27381D01*
X45098Y-27418D01*
X45136Y-27437D01*
X44330Y-27869D02*
X44348Y-27850D01*
X44386Y-27794D01*
X44405Y-27756D01*
X44423Y-27700D01*
X44442Y-27606D01*
X44442Y-27531D01*
X44423Y-27437D01*
X44405Y-27381D01*
X44386Y-27343D01*
X44348Y-27287D01*
X44330Y-27268D01*
X44198Y-27362D02*
X44179Y-27343D01*
X44142Y-27324D01*
X44048Y-27324D01*
X44010Y-27343D01*
X43992Y-27362D01*
X43973Y-27400D01*
X43973Y-27437D01*
X43992Y-27493D01*
X44217Y-27718D01*
X43973Y-27718D01*
X43729Y-27324D02*
X43692Y-27324D01*
X43654Y-27343D01*
X43635Y-27362D01*
X43617Y-27400D01*
X43598Y-27475D01*
X43598Y-27568D01*
X43617Y-27643D01*
X43635Y-27681D01*
X43654Y-27700D01*
X43692Y-27718D01*
X43729Y-27718D01*
X43767Y-27700D01*
X43785Y-27681D01*
X43804Y-27643D01*
X43823Y-27568D01*
X43823Y-27475D01*
X43804Y-27400D01*
X43785Y-27362D01*
X43767Y-27343D01*
X43729Y-27324D01*
X43223Y-27718D02*
X43448Y-27718D01*
X43335Y-27718D02*
X43335Y-27324D01*
X43373Y-27381D01*
X43410Y-27418D01*
X43448Y-27437D01*
X43073Y-27362D02*
X43054Y-27343D01*
X43017Y-27324D01*
X42923Y-27324D01*
X42885Y-27343D01*
X42867Y-27362D01*
X42848Y-27400D01*
X42848Y-27437D01*
X42867Y-27493D01*
X43092Y-27718D01*
X42848Y-27718D01*
X42717Y-27869D02*
X42698Y-27850D01*
X42660Y-27794D01*
X42642Y-27756D01*
X42623Y-27700D01*
X42604Y-27606D01*
X42604Y-27531D01*
X42623Y-27437D01*
X42642Y-27381D01*
X42660Y-27343D01*
X42698Y-27287D01*
X42717Y-27268D01*
G54D12*
X48228Y-31897D02*
X43728Y-31897D01*
X48228Y-34795D02*
X43728Y-34799D01*
X48228Y-34795D02*
X48228Y-31897D01*
X43728Y-34795D02*
X43728Y-31897D01*
X48234Y-33096D02*
X47734Y-33096D01*
X47734Y-33096D02*
X47734Y-33596D01*
X47734Y-33596D02*
X48234Y-33596D01*
X46289Y-32508D02*
X46289Y-32832D01*
X46270Y-32870D01*
X46251Y-32889D01*
X46213Y-32908D01*
X46136Y-32908D01*
X46098Y-32889D01*
X46079Y-32870D01*
X46060Y-32832D01*
X46060Y-32508D01*
X45660Y-32908D02*
X45889Y-32908D01*
X45775Y-32908D02*
X45775Y-32508D01*
X45813Y-32565D01*
X45851Y-32603D01*
X45889Y-32622D01*
X47403Y-33558D02*
X47403Y-33882D01*
X47384Y-33920D01*
X47365Y-33939D01*
X47327Y-33958D01*
X47250Y-33958D01*
X47212Y-33939D01*
X47193Y-33920D01*
X47174Y-33882D01*
X47174Y-33558D01*
X46793Y-33958D02*
X46984Y-33958D01*
X46984Y-33558D01*
X46660Y-33958D02*
X46660Y-33558D01*
X46431Y-33958D01*
X46431Y-33558D01*
X46260Y-33596D02*
X46241Y-33577D01*
X46203Y-33558D01*
X46107Y-33558D01*
X46069Y-33577D01*
X46050Y-33596D01*
X46031Y-33634D01*
X46031Y-33672D01*
X46050Y-33729D01*
X46279Y-33958D01*
X46031Y-33958D01*
X45803Y-33729D02*
X45841Y-33710D01*
X45860Y-33691D01*
X45879Y-33653D01*
X45879Y-33634D01*
X45860Y-33596D01*
X45841Y-33577D01*
X45803Y-33558D01*
X45726Y-33558D01*
X45688Y-33577D01*
X45669Y-33596D01*
X45650Y-33634D01*
X45650Y-33653D01*
X45669Y-33691D01*
X45688Y-33710D01*
X45726Y-33729D01*
X45803Y-33729D01*
X45841Y-33748D01*
X45860Y-33767D01*
X45879Y-33806D01*
X45879Y-33882D01*
X45860Y-33920D01*
X45841Y-33939D01*
X45803Y-33958D01*
X45726Y-33958D01*
X45688Y-33939D01*
X45669Y-33920D01*
X45650Y-33882D01*
X45650Y-33806D01*
X45669Y-33767D01*
X45688Y-33748D01*
X45726Y-33729D01*
X45403Y-33558D02*
X45364Y-33558D01*
X45326Y-33577D01*
X45307Y-33596D01*
X45288Y-33634D01*
X45269Y-33710D01*
X45269Y-33806D01*
X45288Y-33882D01*
X45307Y-33920D01*
X45326Y-33939D01*
X45364Y-33958D01*
X45403Y-33958D01*
X45441Y-33939D01*
X45460Y-33920D01*
X45479Y-33882D01*
X45498Y-33806D01*
X45498Y-33710D01*
X45479Y-33634D01*
X45460Y-33596D01*
X45441Y-33577D01*
X45403Y-33558D01*
X44926Y-33691D02*
X44926Y-33958D01*
X45022Y-33539D02*
X45117Y-33825D01*
X44869Y-33825D01*
X44736Y-33844D02*
X44545Y-33844D01*
X44774Y-33958D02*
X44641Y-33558D01*
X44507Y-33958D01*
M02*
