G04 (created by PCBNEW-RS274X (2011-05-25)-stable) date Mon 01 Oct 2012 10:51:08 AM PDT*
G01*
G70*
G90*
%MOIN*%
G04 Gerber Fmt 3.4, Leading zero omitted, Abs format*
%FSLAX34Y34*%
G04 APERTURE LIST*
%ADD10C,0.006000*%
%ADD11R,0.030000X0.060000*%
%ADD12C,0.060000*%
%ADD13R,0.060000X0.060000*%
%ADD14C,0.035000*%
%ADD15C,0.008000*%
%ADD16C,0.012000*%
%ADD17C,0.010000*%
G04 APERTURE END LIST*
G54D10*
G54D11*
X44161Y-32063D03*
X44661Y-32063D03*
X45161Y-32063D03*
X45661Y-32063D03*
X46161Y-32063D03*
X46661Y-32063D03*
X47161Y-32063D03*
X47661Y-32063D03*
X48161Y-32063D03*
X44161Y-35063D03*
X44661Y-35063D03*
X45161Y-35063D03*
X45661Y-35063D03*
X46161Y-35063D03*
X46661Y-35063D03*
X47161Y-35063D03*
X47661Y-35063D03*
X48161Y-35063D03*
G54D12*
X40945Y-29569D03*
X40945Y-30569D03*
X40945Y-31569D03*
X40945Y-32569D03*
X40945Y-33569D03*
X40945Y-34569D03*
X40945Y-35569D03*
X40945Y-36569D03*
G54D13*
X50394Y-36569D03*
G54D12*
X50394Y-35569D03*
X50394Y-34569D03*
X50394Y-33569D03*
X50394Y-32569D03*
X50394Y-31569D03*
X50394Y-30569D03*
X50394Y-29569D03*
G54D13*
X42169Y-30118D03*
G54D12*
X43169Y-30118D03*
X44169Y-30118D03*
X45169Y-30118D03*
X46169Y-30118D03*
X47169Y-30118D03*
X48169Y-30118D03*
X49169Y-30118D03*
G54D13*
X42169Y-37205D03*
G54D12*
X43169Y-37205D03*
X44169Y-37205D03*
X45169Y-37205D03*
X46169Y-37205D03*
X47169Y-37205D03*
X48169Y-37205D03*
X49169Y-37205D03*
G54D14*
X46623Y-29576D03*
X46864Y-30889D03*
X39966Y-30297D03*
X46903Y-36206D03*
X49892Y-37209D03*
X45938Y-32699D03*
X45785Y-34266D03*
X46238Y-34272D03*
X45470Y-32853D03*
X46654Y-34045D03*
X44521Y-31480D03*
X43876Y-32621D03*
X44977Y-31481D03*
X42888Y-31208D03*
X49208Y-33192D03*
X42239Y-36340D03*
X50929Y-34069D03*
G54D15*
X49169Y-30612D02*
X48161Y-31620D01*
X49169Y-30118D02*
X49169Y-30612D01*
X48161Y-32063D02*
X48161Y-31620D01*
X42169Y-37205D02*
X42169Y-36762D01*
X42169Y-30118D02*
X42169Y-30561D01*
X42276Y-36762D02*
X42169Y-36762D01*
X42679Y-36359D02*
X42276Y-36762D01*
X42679Y-36327D02*
X42679Y-36359D01*
X42429Y-36077D02*
X42679Y-36327D01*
X42429Y-31459D02*
X42429Y-36077D01*
X42169Y-31199D02*
X42429Y-31459D01*
X42169Y-30561D02*
X42169Y-31199D01*
X50394Y-36569D02*
X50394Y-37012D01*
X46161Y-35947D02*
X46161Y-35063D01*
X46711Y-36497D02*
X46161Y-35947D01*
X46711Y-37553D02*
X46711Y-36497D01*
X47224Y-38066D02*
X46711Y-37553D01*
X49616Y-38066D02*
X47224Y-38066D01*
X50394Y-37288D02*
X49616Y-38066D01*
X50394Y-37012D02*
X50394Y-37288D01*
X45161Y-35063D02*
X45161Y-34620D01*
X46532Y-34620D02*
X45161Y-34620D01*
X47104Y-34048D02*
X46532Y-34620D01*
X47104Y-33788D02*
X47104Y-34048D01*
X49486Y-31406D02*
X47104Y-33788D01*
X49486Y-30477D02*
X49486Y-31406D01*
X50394Y-29569D02*
X49486Y-30477D01*
X46623Y-30648D02*
X46623Y-29576D01*
X46864Y-30889D02*
X46623Y-30648D01*
X43169Y-35049D02*
X43169Y-37205D01*
X42613Y-34493D02*
X43169Y-35049D01*
X42613Y-31383D02*
X42613Y-34493D01*
X42570Y-31340D02*
X42613Y-31383D01*
X42570Y-30717D02*
X42570Y-31340D01*
X43169Y-30118D02*
X42570Y-30717D01*
X39966Y-36462D02*
X39966Y-30297D01*
X41389Y-37885D02*
X39966Y-36462D01*
X44489Y-37885D02*
X41389Y-37885D01*
X45169Y-37205D02*
X44489Y-37885D01*
X47169Y-36472D02*
X47169Y-37205D01*
X46903Y-36206D02*
X47169Y-36472D01*
X49268Y-37833D02*
X49892Y-37209D01*
X47797Y-37833D02*
X49268Y-37833D01*
X47169Y-37205D02*
X47797Y-37833D01*
X46131Y-32506D02*
X46161Y-32506D01*
X45938Y-32699D02*
X46131Y-32506D01*
X46161Y-32063D02*
X46161Y-32506D01*
X45785Y-34204D02*
X45785Y-34266D01*
X46661Y-33328D02*
X45785Y-34204D01*
X46661Y-32063D02*
X46661Y-33328D01*
X46238Y-34011D02*
X46238Y-34272D01*
X47161Y-33088D02*
X46238Y-34011D01*
X47161Y-32063D02*
X47161Y-33088D01*
X43802Y-32063D02*
X44161Y-32063D01*
X43541Y-32324D02*
X43802Y-32063D01*
X43541Y-32904D02*
X43541Y-32324D01*
X43579Y-32942D02*
X43541Y-32904D01*
X45381Y-32942D02*
X43579Y-32942D01*
X45470Y-32853D02*
X45381Y-32942D01*
X46654Y-33978D02*
X46654Y-34045D01*
X47661Y-32971D02*
X46654Y-33978D01*
X47661Y-32063D02*
X47661Y-32971D01*
X44661Y-32063D02*
X44661Y-31620D01*
X44521Y-31480D02*
X44661Y-31620D01*
X43991Y-32506D02*
X43876Y-32621D01*
X45661Y-32506D02*
X43991Y-32506D01*
X45661Y-32063D02*
X45661Y-32506D01*
X45116Y-31620D02*
X45161Y-31620D01*
X44977Y-31481D02*
X45116Y-31620D01*
X45161Y-32063D02*
X45161Y-31620D01*
X42888Y-34095D02*
X42888Y-31208D01*
X43433Y-34640D02*
X42888Y-34095D01*
X43433Y-36469D02*
X43433Y-34640D01*
X44169Y-37205D02*
X43433Y-36469D01*
X48315Y-34620D02*
X47661Y-34620D01*
X50366Y-32569D02*
X48315Y-34620D01*
X50394Y-32569D02*
X50366Y-32569D01*
X47661Y-35063D02*
X47661Y-34620D01*
X44161Y-35063D02*
X44161Y-34620D01*
X43162Y-33621D02*
X44161Y-34620D01*
X43162Y-31385D02*
X43162Y-33621D01*
X43622Y-30925D02*
X43162Y-31385D01*
X43622Y-29582D02*
X43622Y-30925D01*
X43609Y-29569D02*
X43622Y-29582D01*
X40945Y-29569D02*
X43609Y-29569D01*
X49208Y-32755D02*
X49208Y-33192D01*
X50394Y-31569D02*
X49208Y-32755D01*
X46661Y-34909D02*
X46661Y-35063D01*
X47353Y-34217D02*
X46661Y-34909D01*
X47353Y-33928D02*
X47353Y-34217D01*
X50394Y-30887D02*
X47353Y-33928D01*
X50394Y-30569D02*
X50394Y-30887D01*
X42239Y-32863D02*
X42239Y-36340D01*
X40945Y-31569D02*
X42239Y-32863D01*
X44617Y-36550D02*
X45661Y-35506D01*
X44617Y-37472D02*
X44617Y-36550D01*
X44388Y-37701D02*
X44617Y-37472D01*
X41799Y-37701D02*
X44388Y-37701D01*
X41725Y-37627D02*
X41799Y-37701D01*
X41725Y-33349D02*
X41725Y-37627D01*
X40945Y-32569D02*
X41725Y-33349D01*
X45661Y-35063D02*
X45661Y-35506D01*
X44661Y-34430D02*
X44661Y-35063D01*
X43357Y-33126D02*
X44661Y-34430D01*
X43357Y-31761D02*
X43357Y-33126D01*
X44625Y-30493D02*
X43357Y-31761D01*
X44625Y-29386D02*
X44625Y-30493D01*
X44360Y-29121D02*
X44625Y-29386D01*
X40509Y-29121D02*
X44360Y-29121D01*
X40483Y-29147D02*
X40509Y-29121D01*
X40483Y-34107D02*
X40483Y-29147D01*
X40945Y-34569D02*
X40483Y-34107D01*
X47161Y-35684D02*
X47161Y-35063D01*
X47702Y-36225D02*
X47161Y-35684D01*
X47702Y-37442D02*
X47702Y-36225D01*
X47909Y-37649D02*
X47702Y-37442D01*
X48596Y-37649D02*
X47909Y-37649D01*
X48618Y-37627D02*
X48596Y-37649D01*
X48618Y-37130D02*
X48618Y-37627D01*
X50179Y-35569D02*
X48618Y-37130D01*
X50394Y-35569D02*
X50179Y-35569D01*
X50929Y-37014D02*
X50929Y-34069D01*
X49422Y-38521D02*
X50929Y-37014D01*
X47419Y-38521D02*
X49422Y-38521D01*
X46169Y-37271D02*
X47419Y-38521D01*
X46169Y-37205D02*
X46169Y-37271D01*
G54D16*
X48169Y-35534D02*
X48161Y-35526D01*
X48169Y-37205D02*
X48169Y-35534D01*
X48161Y-35294D02*
X48161Y-35526D01*
X48161Y-35294D02*
X48161Y-35063D01*
X49338Y-28949D02*
X48169Y-30118D01*
X50430Y-28949D02*
X49338Y-28949D01*
X50969Y-29488D02*
X50430Y-28949D01*
X50969Y-32888D02*
X50969Y-29488D01*
X50824Y-33033D02*
X50969Y-32888D01*
X50191Y-33033D02*
X50824Y-33033D01*
X48161Y-35063D02*
X50191Y-33033D01*
G54D10*
G36*
X49845Y-36784D02*
X49808Y-36784D01*
X49652Y-36848D01*
X49590Y-36909D01*
X49547Y-36897D01*
X49240Y-37205D01*
X49169Y-37276D01*
X49098Y-37205D01*
X49169Y-37134D01*
X49204Y-37099D01*
X49477Y-36827D01*
X49450Y-36733D01*
X49431Y-36726D01*
X49845Y-36313D01*
X49845Y-36318D01*
X49845Y-36784D01*
X49845Y-36784D01*
G37*
G54D17*
X49845Y-36784D02*
X49808Y-36784D01*
X49652Y-36848D01*
X49590Y-36909D01*
X49547Y-36897D01*
X49240Y-37205D01*
X49169Y-37276D01*
X49098Y-37205D01*
X49169Y-37134D01*
X49204Y-37099D01*
X49477Y-36827D01*
X49450Y-36733D01*
X49431Y-36726D01*
X49845Y-36313D01*
X49845Y-36318D01*
X49845Y-36784D01*
G54D10*
G36*
X49928Y-29259D02*
X49845Y-29460D01*
X49845Y-29678D01*
X49853Y-29699D01*
X49662Y-29890D01*
X49641Y-29837D01*
X49547Y-29810D01*
X49240Y-30118D01*
X49169Y-30189D01*
X48861Y-30496D01*
X48888Y-30590D01*
X49090Y-30661D01*
X49196Y-30655D01*
X49196Y-31285D01*
X48560Y-31920D01*
X48560Y-31812D01*
X48560Y-31713D01*
X48522Y-31622D01*
X48452Y-31552D01*
X48360Y-31514D01*
X48273Y-31513D01*
X48211Y-31575D01*
X48211Y-31963D01*
X48211Y-32013D01*
X48211Y-32113D01*
X48111Y-32113D01*
X48111Y-32013D01*
X48111Y-31963D01*
X48111Y-31575D01*
X48049Y-31513D01*
X47962Y-31514D01*
X47911Y-31534D01*
X47861Y-31514D01*
X47762Y-31514D01*
X47462Y-31514D01*
X47411Y-31534D01*
X47361Y-31514D01*
X47262Y-31514D01*
X46962Y-31514D01*
X46911Y-31534D01*
X46861Y-31514D01*
X46762Y-31514D01*
X46462Y-31514D01*
X46411Y-31534D01*
X46361Y-31514D01*
X46262Y-31514D01*
X45962Y-31514D01*
X45911Y-31534D01*
X45861Y-31514D01*
X45762Y-31514D01*
X45462Y-31514D01*
X45432Y-31526D01*
X45429Y-31509D01*
X45402Y-31468D01*
X45402Y-31397D01*
X45338Y-31241D01*
X45218Y-31121D01*
X45062Y-31056D01*
X44893Y-31056D01*
X44749Y-31114D01*
X44606Y-31055D01*
X44473Y-31055D01*
X44830Y-30698D01*
X44893Y-30604D01*
X44894Y-30598D01*
X45060Y-30667D01*
X45278Y-30667D01*
X45480Y-30583D01*
X45634Y-30429D01*
X45669Y-30344D01*
X45704Y-30429D01*
X45858Y-30583D01*
X46060Y-30667D01*
X46278Y-30667D01*
X46333Y-30644D01*
X46333Y-30648D01*
X46355Y-30759D01*
X46418Y-30853D01*
X46439Y-30874D01*
X46439Y-30973D01*
X46503Y-31129D01*
X46623Y-31249D01*
X46779Y-31314D01*
X46948Y-31314D01*
X47104Y-31250D01*
X47224Y-31130D01*
X47289Y-30974D01*
X47289Y-30805D01*
X47232Y-30667D01*
X47278Y-30667D01*
X47480Y-30583D01*
X47634Y-30429D01*
X47669Y-30344D01*
X47704Y-30429D01*
X47858Y-30583D01*
X48060Y-30667D01*
X48278Y-30667D01*
X48480Y-30583D01*
X48634Y-30429D01*
X48671Y-30337D01*
X48697Y-30399D01*
X48791Y-30426D01*
X49063Y-30153D01*
X49098Y-30118D01*
X49169Y-30047D01*
X49204Y-30012D01*
X49477Y-29740D01*
X49450Y-29646D01*
X49248Y-29575D01*
X49144Y-29580D01*
X49466Y-29259D01*
X49928Y-29259D01*
X49928Y-29259D01*
G37*
G54D17*
X49928Y-29259D02*
X49845Y-29460D01*
X49845Y-29678D01*
X49853Y-29699D01*
X49662Y-29890D01*
X49641Y-29837D01*
X49547Y-29810D01*
X49240Y-30118D01*
X49169Y-30189D01*
X48861Y-30496D01*
X48888Y-30590D01*
X49090Y-30661D01*
X49196Y-30655D01*
X49196Y-31285D01*
X48560Y-31920D01*
X48560Y-31812D01*
X48560Y-31713D01*
X48522Y-31622D01*
X48452Y-31552D01*
X48360Y-31514D01*
X48273Y-31513D01*
X48211Y-31575D01*
X48211Y-31963D01*
X48211Y-32013D01*
X48211Y-32113D01*
X48111Y-32113D01*
X48111Y-32013D01*
X48111Y-31963D01*
X48111Y-31575D01*
X48049Y-31513D01*
X47962Y-31514D01*
X47911Y-31534D01*
X47861Y-31514D01*
X47762Y-31514D01*
X47462Y-31514D01*
X47411Y-31534D01*
X47361Y-31514D01*
X47262Y-31514D01*
X46962Y-31514D01*
X46911Y-31534D01*
X46861Y-31514D01*
X46762Y-31514D01*
X46462Y-31514D01*
X46411Y-31534D01*
X46361Y-31514D01*
X46262Y-31514D01*
X45962Y-31514D01*
X45911Y-31534D01*
X45861Y-31514D01*
X45762Y-31514D01*
X45462Y-31514D01*
X45432Y-31526D01*
X45429Y-31509D01*
X45402Y-31468D01*
X45402Y-31397D01*
X45338Y-31241D01*
X45218Y-31121D01*
X45062Y-31056D01*
X44893Y-31056D01*
X44749Y-31114D01*
X44606Y-31055D01*
X44473Y-31055D01*
X44830Y-30698D01*
X44893Y-30604D01*
X44894Y-30598D01*
X45060Y-30667D01*
X45278Y-30667D01*
X45480Y-30583D01*
X45634Y-30429D01*
X45669Y-30344D01*
X45704Y-30429D01*
X45858Y-30583D01*
X46060Y-30667D01*
X46278Y-30667D01*
X46333Y-30644D01*
X46333Y-30648D01*
X46355Y-30759D01*
X46418Y-30853D01*
X46439Y-30874D01*
X46439Y-30973D01*
X46503Y-31129D01*
X46623Y-31249D01*
X46779Y-31314D01*
X46948Y-31314D01*
X47104Y-31250D01*
X47224Y-31130D01*
X47289Y-30974D01*
X47289Y-30805D01*
X47232Y-30667D01*
X47278Y-30667D01*
X47480Y-30583D01*
X47634Y-30429D01*
X47669Y-30344D01*
X47704Y-30429D01*
X47858Y-30583D01*
X48060Y-30667D01*
X48278Y-30667D01*
X48480Y-30583D01*
X48634Y-30429D01*
X48671Y-30337D01*
X48697Y-30399D01*
X48791Y-30426D01*
X49063Y-30153D01*
X49098Y-30118D01*
X49169Y-30047D01*
X49204Y-30012D01*
X49477Y-29740D01*
X49450Y-29646D01*
X49248Y-29575D01*
X49144Y-29580D01*
X49466Y-29259D01*
X49928Y-29259D01*
M02*
